<?xml version="1.0" encoding="utf-8"?>
<!-- Generator: Adobe Illustrator 25.0.0, SVG Export Plug-In . SVG Version: 6.00 Build 0)  -->
<svg version="1.1" id="Layer_1" xmlns="http://www.w3.org/2000/svg" xmlns:xlink="http://www.w3.org/1999/xlink" x="0px" y="0px"
	 viewBox="0 0 512 512" style="enable-background:new 0 0 512 512;" xml:space="preserve">
<style type="text/css">
	.st0{fill:#606060;}
</style>
<g>
	<g>
		<path class="st0" d="M75.7,572.9c-10.3-0.7-20.5-4.9-28.2-11.8c-9.1-8.1-11-20.3-12.9-31.7c-1.6-9.7-3.9-18.5-8.8-27
			c-4.1-7-9.7-15.1-18.1-17.1c-0.7-0.2-0.8,0.9-0.1,1.1c9.3,2.2,15.4,12.6,19.4,20.4c4.9,9.7,6,20.3,8,30.8
			c1.9,10.2,5.6,19.2,13.8,25.9c7.5,6.1,17.3,9.8,26.9,10.4C76.3,574,76.4,572.9,75.7,572.9z"/>
		<path class="st0" d="M74.5,517.4c0.6,0.1,0.9-0.9,0.3-1.1c0,0-0.1,0-0.1,0c0,0,0,0,0,0c-6.2-1.3-11-6.9-15-11.4
			c-3.5-4-7-7.9-11.3-11.1c-9.4-6.8-22.6-7.9-33.6-5.5c-0.7,0.2-0.6,1.3,0.1,1.1c0.1,0,0.2,0,0.3-0.1c0,0.2,0.1,0.4,0.3,0.5
			c4.2,1.4,9.1,1.1,13.5,1.7c6.3,0.8,12.1,2.9,17,7.1c4.7,4,8.3,9.1,13.1,13c4.5,3.7,9.8,4.3,15.2,5.7c0,0,0,0,0,0
			C74.4,517.4,74.5,517.4,74.5,517.4z M68,514.8c-3.4-0.8-6.2-2.4-8.9-4.6c-4.8-3.9-8.4-9-13.1-13c-4.1-3.4-9.2-5.3-14.4-6.3
			c-4.8-0.9-10.1-0.5-14.8-1.8c11.6-2.1,24.3-0.1,33.4,7.6c6.2,5.1,11.1,13.8,18.2,18.2C68.3,514.9,68.1,514.9,68,514.8z"/>
		<path class="st0" d="M54.1,517.4c-6.1-3.5-9-10.2-13.9-15c-4.6-4.4-11.2-7.3-17.5-5.3c-0.1,0-0.3,0-0.3,0.1
			c-0.3,0.2-0.2,0.6,0.1,0.8c0,0,0,0,0.1,0.1c0,0,0,0,0,0c0,0,0.1,0.1,0.1,0.1c6.7,1.7,10.5,8,15.2,12.5c4.4,4.3,10,6.2,15.9,7.7
			C54.2,518.5,54.5,517.6,54.1,517.4z M35.9,507.1c-3.3-3.7-6.6-7.5-11.2-9.4c6.6-1.1,12.7,3,16.9,7.9c3.1,3.6,5.7,7.9,9.3,10.9
			c-2.3-0.7-4.6-1.4-6.7-2.5C40.9,512.3,38.3,509.7,35.9,507.1z"/>
		<path class="st0" d="M71.8,542c-16-5.8-22.8-25.7-40.5-27.9c-0.7-0.1-0.8,1-0.2,1.1c-0.3,0.2-0.3,0.8,0.1,0.9
			c8.4,3.6,11.7,12.9,17.6,19.2c6,6.4,14.4,7.5,22.7,7.7C72.2,543.1,72.5,542.2,71.8,542z M47.2,531.7c-4.6-5.9-7.8-13-14.9-16.3
			c15.6,2.7,22.7,19.7,36.3,26.5c-3.5-0.2-6.9-0.6-10.3-1.7C53.7,538.6,50.1,535.4,47.2,531.7z"/>
		<path class="st0" d="M58.4,553.2c-12.1-4.7-12.1-21.6-23.9-26.9c-0.7-0.3-1.1,0.7-0.4,1c0,0,0.1,0,0.1,0c-0.2,0.2-0.3,0.6,0,0.8
			c2.8,1.9,4,5.4,5.1,8.4c1,2.8,2.1,5.6,3.6,8.2c3.3,5.4,8.8,9.7,15.4,9.5C58.8,554.3,58.9,553.4,58.4,553.2z M42.1,541
			c-1.8-3.9-2.6-9.1-5.7-12.4c8.7,5.8,10,18.8,19,24.3C49.3,551.9,44.7,546.6,42.1,541z"/>
		<path class="st0" d="M63.7,563.2c0.6,0,0.6-1,0-1.1c-8.3-1.1-13.7-10.6-22.6-9.2c-0.6,0.1-0.6,0.9-0.2,1.1c-0.2,0.3,0,0.8,0.4,0.8
			c3.7,0.1,6.1,5.7,9.1,7.6C54,564.5,59.8,563.2,63.7,563.2z M55.3,562.3c-3.1-0.1-5.1-1.2-7.1-3.4c-1.5-1.7-3.2-4.2-5.5-5
			c6.6-0.1,11.4,5.8,17.3,8.3C58.5,562.3,56.9,562.3,55.3,562.3z"/>
		<path class="st0" d="M82.4,570.9c0.6-0.1,0.6-1.1,0-1.1c-5-0.4-9.2-3-13.9-4.3c-4.1-1.1-7.8,0-11.1,2.5c-0.6,0.4,0.1,1.3,0.7,0.9
			c0,0,0.1-0.1,0.2-0.1c0.1,0,0.1,0,0.2-0.1c3.8-2,9,0.9,12.7,2.1C74.8,571.9,78.6,571.4,82.4,570.9z M68.3,568.6
			c-2-0.7-4.5-1.6-6.8-1.7c3.1-1.1,6.3-0.7,9.9,0.7c2.3,0.9,4.6,1.9,6.9,2.5C74.9,570.3,71.8,569.9,68.3,568.6z"/>
		<path class="st0" d="M39.5,565.4c2.4-4,1.5-8.5,0-12.7c-2-5.7-5-10.7-4.3-16.9c0-0.1,0-0.2-0.1-0.3c0.2-0.5-0.4-1.1-0.8-0.6
			c-3.2,2.8-3.4,8.1-3,12.1c0.3,2.9,1.8,5.6,3.2,8.1c1.9,3.4,2.9,6.7,4,10.3C38.7,565.6,39.3,565.7,39.5,565.4z M33.6,550.7
			c-1.6-3.6-2.2-10.3,0.4-13.9c-0.2,4.3,1.1,7.9,2.7,12c1.9,4.5,4.4,10,2.4,14.7c-0.6-2-1-4-2-6C36.1,555.2,34.7,553.1,33.6,550.7z"
			/>
		<path class="st0" d="M66.4,582.3c-1.4-3.7-4.2-5.9-7.4-8.1c-4.1-2.9-6.3-6.6-9.4-10.4c0,0,0,0,0,0c0-0.1,0.1-0.2,0.1-0.3
			c0.3-0.7-0.8-1.1-1-0.4c-1.8,4.3-0.1,10.4,3.1,13.6c1.6,1.6,3.9,2.4,6,3.1c2.7,0.9,5.3,2.2,7.9,3.3
			C66.1,583.2,66.6,582.7,66.4,582.3z M54.8,577.3c-4-1.9-6.4-7.7-5.6-12.3c2.3,3,4.2,6.3,7.2,8.6c3.1,2.4,6.5,4.3,8.3,7.8
			C61.5,580.1,58,578.9,54.8,577.3z"/>
		<path class="st0" d="M80.6,582.3c-3.5-0.6-5.3-3.6-7.4-6.1c-2-2.3-4.7-3.7-7.5-4.9c-0.2-0.1-0.4,0-0.5,0c-0.1,0-0.2-0.1-0.3-0.1
			c-0.7-0.1-0.8,1-0.1,1.1c1.6,0.3,2.6,3.5,3.2,4.7c0.6,1.2,1.1,2.4,2,3.3c2.6,2.9,6.9,2.7,10.5,3C81.2,583.5,81.3,582.5,80.6,582.3
			z M73.5,581.4c-2.4-0.8-3.4-2.6-4.4-4.7c-0.4-0.9-1-2.2-1.7-3.3c2.7,1.4,4.8,3.3,6.8,5.8c0.9,1.1,1.9,2.1,3,2.9
			C76,582,74.7,581.8,73.5,581.4z"/>
		<path class="st0" d="M85.8,577.9c0.6-0.1,0.6-1.1,0-1.1c-1.6,0-3.5-2.6-4.9-3.3c-1.8-1-3.6-0.9-5.7-0.8c-0.2,0-0.3,0.1-0.4,0.2
			c-0.1,0-0.1,0-0.2,0c-0.7,0.1-0.6,1.2,0.1,1.1c1.8-0.3,3.2,2.7,4.7,3.5C81.6,578.5,83.5,578.2,85.8,577.9z M81.7,577.1
			c-1.7-0.1-2.7-1.4-3.8-2.5c-0.3-0.3-0.6-0.6-0.9-0.8c2,0.1,3.5,0.7,5.3,2.1c0.4,0.3,0.9,0.8,1.4,1.2
			C83.1,577.1,82.4,577.2,81.7,577.1z"/>
		<path class="st0" d="M22.5,532.5c-3.9-9.6,8.7-17,4.5-26.8c0-0.1-0.1-0.2-0.2-0.2c0-0.4-0.1-0.8-0.3-1.3c-0.3-0.6-1.3-0.2-1,0.4
			c1.2,2.5-2.6,5.8-4.1,7.4c-1.8,2-3.2,3.7-4,6.2c-1.7,5.4-0.3,11.4,4.3,14.8C22.1,533.5,22.7,533,22.5,532.5z M20.9,514.2
			c1.4-1.6,4.4-4.1,5.5-6.7c2.3,8.3-7.2,15.1-5.5,23.4C16.6,526.4,16.8,518.9,20.9,514.2z"/>
		<path class="st0" d="M13,525c-0.6-7.2,5.4-12.1,6.8-18.8c1.2-5.6-0.2-12.7-4.4-16.8c-0.5-0.5-1.4,0.2-0.9,0.7
			c0.1,0.1,0.1,0.1,0.2,0.2c0,0,0,0.1,0,0.1c-0.2,6.6-3.6,12.6-5.1,18.9c-1.3,5.5,0.2,10.9,2.3,16C12.2,525.9,13.1,525.7,13,525z
			 M11.5,506.8c1.6-5,3.8-10,4.2-15.3c3.8,5,4.2,12.5,1.7,18.1c-1.9,4.4-4.8,8.1-5.5,12.8C10.3,517.2,9.8,512.2,11.5,506.8z"/>
		<path class="st0" d="M23.6,552.9c-3.4-11.7,11-18.5,10-30c0-0.3-0.2-0.4-0.4-0.5c0.2-1.4,0-2.8-0.9-4.3c-0.4-0.6-1.3,0-1,0.6
			c3.6,6-5.5,11.2-8.6,15.4c-4.4,5.8-2.7,13-0.1,19.1C22.8,554,23.8,553.6,23.6,552.9z M21.1,540.7c0.5-4.1,3.2-7,6.1-9.7
			c1.9-1.8,4.1-3.9,5.2-6.3c-0.2,5.5-3.9,9.9-6.9,14.4c-2,3-3.4,6.1-3.6,9.4C21.2,546,20.8,543.4,21.1,540.7z"/>
	</g>
	<g>
		<path class="st0" d="M26,384.4c-8.6,5.7-15.4,14.4-18.7,24.2c-3.9,11.6,0.4,23.1,4.4,34c3.4,9.2,5.8,18,5.6,27.9
			c-0.1,8.1-1,17.9-7.3,23.8c-0.5,0.5-1.2-0.4-0.7-0.9c7-6.5,7.2-18.5,6.8-27.3c-0.5-10.9-4.8-20.6-8.3-30.7
			c-3.4-9.8-4.6-19.5-0.8-29.3c3.5-9,10.2-17,18.3-22.3C25.9,383.1,26.6,384,26,384.4z"/>
		<path class="st0" d="M52.2,433.3C52.2,433.3,52.2,433.3,52.2,433.3c-4,3.9-8.3,7-10.4,12.5c-2.2,5.8-2.9,12-5,17.8
			c-2.2,6-6.3,10.7-11.3,14.5c-3.5,2.7-7.9,4.8-10.9,8.1c-0.2,0.2-0.2,0.4,0,0.6c-0.1,0-0.2,0.1-0.3,0.1c-0.7,0.2-0.3,1.2,0.4,1
			c10.8-3.3,21.8-10.8,26.6-21.3c2.2-4.9,3.3-10,4.4-15.2c1.3-5.9,2.6-13.1,7.4-17.3c0,0,0,0,0,0c0,0,0.1-0.1,0.1-0.1
			c0.5-0.4-0.3-1.2-0.8-0.8C52.3,433.2,52.2,433.3,52.2,433.3z M48.3,438.4c-4,7.4-4,17.3-6.9,24.8c-4.2,11.2-14.3,19.2-25.4,23.1
			c3.5-3.4,8.3-5.7,12-8.9c4-3.4,7.6-7.6,9.4-12.6c2.1-5.8,2.7-12,5-17.8c1.3-3.2,2.9-6,5.5-8.4C48,438.6,48.2,438.5,48.3,438.4z"/>
		<path class="st0" d="M33.7,442.7c-4.4,4.2-8.3,8.6-10,14.5c-1.8,6.3-2.1,13.6-7,18.4c0,0-0.1,0.1-0.1,0.1c0,0,0,0,0,0
			c0,0,0,0.1,0,0.1c-0.1,0.3,0,0.7,0.3,0.7c0.1,0,0.2,0,0.4,0c6.5-1.4,10.8-7.2,12.6-13.3c1.9-6.6,1.2-13.9,4.7-19.9
			C34.9,442.9,34.1,442.3,33.7,442.7z M27.6,451.2c1.3-2,2.9-3.8,4.6-5.5c-1.7,4.5-1.9,9.4-2.8,14.1c-1.2,6.3-4.5,12.9-10.8,15.2
			c3.1-3.9,4-8.8,5.1-13.7C24.6,457.8,25.6,454.2,27.6,451.2z"/>
		<path class="st0" d="M37.1,412.4c-7.1,4.3-13.9,9.4-15.9,17.9c-2,8.4-0.3,18.1-5.8,25.4c-0.3,0.4,0,0.8,0.3,0.9
			c-0.5,0.4,0.1,1.3,0.7,0.9c14.3-10.7,10.5-31.4,21.5-44.3C38.3,412.6,37.6,412,37.1,412.4z M27.1,421.4c2.4-2.6,5.2-4.6,8.1-6.5
			c-8.5,12.6-6.3,30.9-18.6,40.9c4.5-6.4,3.8-14.1,4.9-21.5C22.2,429.6,23.8,425,27.1,421.4z"/>
		<path class="st0" d="M20,409.2c-5.8,3.1-8.5,9.4-8.7,15.8c-0.1,3,0.4,5.9,0.9,8.9c0.5,3.2,1.3,6.8-0.3,9.8
			c-0.2,0.4,0.1,0.7,0.4,0.7c0,0,0,0.1-0.1,0.1c-0.4,0.6,0.4,1.3,0.9,0.7c7.7-10.4-0.7-25.1,7.5-35.2C21,409.6,20.5,408.9,20,409.2z
			 M18.2,411.7c-5.1,9.2,0.2,21.2-4.6,30.6c1.1-4.3-0.8-9.3-1.1-13.6C12,422.6,13.4,415.6,18.2,411.7z"/>
		<path class="st0" d="M9.2,406c-1.7,3.1-1,9.1-4.1,11.1c-0.4,0.2-0.3,0.7,0,0.9c-0.3,0.4,0.1,1,0.7,0.8c8.5-3.2,8.4-14.1,15.2-19.1
			c0.5-0.4,0-1.3-0.5-1C17,400.6,11.3,402.3,9.2,406z M17.7,401.4c-3.9,5.1-5.2,12.6-11,15.8c1.6-1.8,1.8-4.9,2.3-7.1
			c0.7-2.9,1.9-4.8,4.5-6.4C14.9,402.8,16.3,402.1,17.7,401.4z"/>
		<path class="st0" d="M23.1,388.6c-2.7,2.8-5.7,7.9-10,8.1c-0.1,0-0.1,0-0.2,0c-0.1,0-0.1,0-0.2,0c-0.7-0.1-0.9,1-0.2,1.1
			c4.1,0.5,7.9-0.3,10.9-3.4c3.5-3.5,5.8-7.8,10-10.6c0.5-0.4,0-1.2-0.5-1C29.2,384.2,25.8,385.7,23.1,388.6z M29.6,385.5
			c-1.7,1.7-3.2,3.7-4.8,5.6c-2.4,3-4.9,4.9-8.2,5.5c2-1.2,3.7-3.2,5.1-4.8C24.2,388.9,26.6,387,29.6,385.5z"/>
		<path class="st0" d="M-2.5,409.3c0.8,3.8,1.6,7.1,1.6,11c0,2.8,0,5.9,1.2,8.6c1.6,3.6,4.3,8.2,8.5,9c0.6,0.1,0.8-0.7,0.4-1
			c0-0.1,0-0.2-0.1-0.3c-3.7-5.1-3.5-10.9-4.6-16.9c-0.8-4.4-2.2-8.7-6.3-11C-2.1,408.5-2.6,408.9-2.5,409.3z M0.1,416.7
			c-0.2-2.2-0.7-4.1-1.2-6.2c4.1,3.2,4.6,9.2,5.2,14c0.6,4.4,1.2,8.2,3.5,11.8c-4.1-1.9-6.9-8-7.2-11.9
			C0.1,421.8,0.3,419.2,0.1,416.7z"/>
		<path class="st0" d="M12.3,380.5c-1.7,2.3-3.3,4.6-5.3,6.8c-1.5,1.7-3,3.5-3.6,5.7c-1.2,4.4,0.3,10.5,4,13.3
			c0.6,0.4,1.3-0.4,0.7-0.9c-0.1-0.1-0.2-0.1-0.2-0.2c0,0,0,0,0,0c0.8-4.8,0.9-9.2,3-13.7c1.6-3.5,3-6.8,2.4-10.7
			C13.2,380.3,12.6,380.1,12.3,380.5z M12.3,382.3c0.1,3.9-1.9,7.2-3.4,10.9c-1.5,3.6-1.5,7.3-2,11.1c-3-3.5-3.8-9.7-1.2-13.4
			C7.7,387.9,10.1,385.1,12.3,382.3z"/>
		<path class="st0" d="M25,372.8c-2.9,2-6.8,4-7.7,7.7c-0.3,1.3-0.2,2.6-0.1,3.9c0.1,1.4,0.8,4.7-0.5,5.7c-0.6,0.5,0.1,1.4,0.7,0.9
			c0.1-0.1,0.2-0.1,0.2-0.2c0.2,0,0.3,0,0.4-0.2c1.9-2.4,3.5-4.9,4.1-7.9c0.7-3.2,0.7-6.7,3.5-9C26.2,373.3,25.6,372.4,25,372.8z
			 M22.8,375.6c-0.6,1.2-1,2.6-1.2,4c-0.5,3.2-1.4,5.9-3.1,8.4c0.1-1.3-0.2-2.7-0.2-3.7c-0.1-2.3-0.1-4.4,1.6-6.3
			C20.8,377.1,21.8,376.4,22.8,375.6z"/>
		<path class="st0" d="M27,378.5c-1,1.4-0.6,4.7-2.4,5.3c-0.7,0.3-0.3,1.3,0.4,1c0.1,0,0.1,0,0.1-0.1c0.1,0.1,0.3,0.1,0.4,0
			c1.9-0.9,3.5-1.7,4.6-3.5c0.8-1.3,1.2-4.5,2.6-5.3c0.6-0.3,0-1.2-0.5-1C30.2,375.9,28.4,376.6,27,378.5z M30.9,376.8
			c-0.3,0.6-0.5,1.3-0.7,1.7c-0.8,2.1-1.9,3.4-3.6,4.4c0.1-0.4,0.2-0.8,0.3-1.1c0.4-1.5,0.7-3.1,2.1-4
			C29.7,377.4,30.3,377.1,30.9,376.8z"/>
		<path class="st0" d="M-1.4,445.6c-2.3,5.3-0.6,11.2,3.5,15c2,1.9,4,2.6,6.5,3.5c2.1,0.7,7.1,1.7,7.3,4.4c0,0.7,1.2,0.6,1.1-0.1
			c0-0.5-0.2-0.9-0.3-1.3c0-0.1,0-0.2,0-0.3C15.6,456.3,1,456-0.4,445.8C-0.4,445.2-1.2,445.1-1.4,445.6z M-1,447.9
			c2.7,8.1,14.3,9.3,16.4,17.7c-2.2-1.7-6.1-2.4-8.1-3.1C1.4,460.4-2.5,453.9-1,447.9z"/>
		<path class="st0" d="M-6,457.2c0.7,5.4,2,10.9,5.9,15c4.4,4.8,10.3,8.3,13.7,14c0,0,0.1,0.1,0.1,0.1c0,0.1,0,0.2-0.1,0.2
			c-0.2,0.7,0.9,0.8,1.1,0.2c1.5-5.6-0.7-12.5-4.5-16.8c-4.5-5.1-12.1-6.4-15.1-13C-5.2,456.3-6.1,456.5-6,457.2z M-4.5,459.8
			c2.8,3.7,7.2,5.6,11,8.4c4.9,3.6,8.2,10.3,7.4,16.6c-3-4.4-7.4-7.6-11.2-11.2C-1.4,469.6-3.5,465.1-4.5,459.8z"/>
		<path class="st0" d="M-10.6,427.6c0.7,6.6,2.8,13.7,9.5,16.6c4.8,2.1,15.3,2.1,15.1,9.1c0,0.7,1.1,0.8,1.1,0.1
			c0-1.7-0.5-3.1-1.3-4.2c0.2-0.1,0.3-0.4,0.1-0.6c-4.7-10.5-20.6-9.4-23.4-21.2C-9.6,426.7-10.7,426.9-10.6,427.6z M-8.7,432.1
			c1.8,2.8,4.5,4.8,7.8,6.5c4.9,2.5,10.2,4.5,13.1,9.1c-2.1-1.5-5.1-2.3-7.6-2.9c-3.8-1-7.7-2.2-10.1-5.5
			C-7.2,437.1-8.2,434.6-8.7,432.1z"/>
	</g>
</g>
<g>
	<g>
		<path class="st0" d="M439.2,572.6c10.3-0.7,20.5-4.9,28.2-11.8c9.1-8.1,11-20.3,12.9-31.7c1.6-9.7,3.9-18.5,8.8-27
			c4.1-7,9.7-15.1,18.1-17.1c0.7-0.2,0.8,0.9,0.1,1.1c-9.3,2.2-15.4,12.6-19.4,20.4c-4.9,9.7-6,20.3-8,30.8
			c-1.9,10.2-5.6,19.2-13.8,25.9c-7.5,6.1-17.3,9.8-26.9,10.4C438.6,573.8,438.5,572.7,439.2,572.6z"/>
		<path class="st0" d="M440.5,517.2C440.5,517.2,440.5,517.2,440.5,517.2c5.5-1.4,10.7-2,15.2-5.7c4.8-3.9,8.4-9,13.1-13
			c4.9-4.1,10.7-6.2,17-7.1c4.4-0.6,9.2-0.3,13.5-1.7c0.3-0.1,0.4-0.3,0.3-0.5c0.1,0,0.2,0,0.3,0.1c0.7,0.2,0.8-1,0.1-1.1
			c-11-2.4-24.3-1.3-33.6,5.5c-4.3,3.1-7.8,7.1-11.3,11.1c-4,4.5-8.8,10.1-15,11.4c0,0,0,0,0,0c0,0-0.1,0-0.1,0
			c-0.6,0.2-0.3,1.2,0.3,1.1C440.4,517.2,440.5,517.2,440.5,517.2z M446.5,514.7c7.1-4.5,12.1-13.1,18.2-18.2
			c9.2-7.6,21.9-9.6,33.4-7.6c-4.7,1.3-10,0.9-14.8,1.8c-5.2,1-10.3,2.8-14.4,6.3c-4.7,4-8.3,9.1-13.1,13c-2.7,2.2-5.5,3.8-8.9,4.6
			C446.7,514.6,446.6,514.6,446.5,514.7z"/>
		<path class="st0" d="M461.2,518.1c5.8-1.5,11.5-3.3,15.9-7.7c4.7-4.6,8.5-10.8,15.2-12.5c0.1,0,0.1,0,0.1-0.1c0,0,0,0,0,0
			c0,0,0.1,0,0.1-0.1c0.2-0.2,0.3-0.6,0.1-0.8c-0.1-0.1-0.2-0.2-0.3-0.1c-6.3-1.9-13,0.9-17.5,5.3c-4.9,4.8-7.9,11.5-13.9,15
			C460.3,517.4,460.7,518.2,461.2,518.1z M470.7,513.7c-2.2,1.1-4.4,1.8-6.7,2.5c3.7-3,6.3-7.3,9.3-10.9c4.1-4.9,10.3-9,16.9-7.9
			c-4.6,1.9-7.9,5.7-11.2,9.4C476.6,509.5,474,512.1,470.7,513.7z"/>
		<path class="st0" d="M443.3,542.8c8.3-0.3,16.8-1.3,22.7-7.7c5.9-6.4,9.2-15.6,17.6-19.2c0.4-0.2,0.4-0.7,0.1-0.9
			c0.7-0.1,0.5-1.2-0.2-1.1c-17.7,2.3-24.6,22.2-40.5,27.9C442.4,542,442.7,542.9,443.3,542.8z M456.5,539.9
			c-3.3,1.1-6.8,1.5-10.3,1.7c13.6-6.7,20.7-23.7,36.3-26.5c-7,3.4-10.3,10.4-14.9,16.3C464.7,535.2,461.2,538.4,456.5,539.9z"/>
		<path class="st0" d="M456.6,554.1c6.6,0.2,12-4,15.4-9.5c1.6-2.6,2.6-5.3,3.6-8.2c1.1-3,2.2-6.5,5.1-8.4c0.3-0.2,0.3-0.6,0-0.8
			c0,0,0.1,0,0.1,0c0.7-0.3,0.2-1.3-0.4-1c-11.8,5.3-11.7,22.2-23.9,26.9C456,553.2,456,554,456.6,554.1z M459.4,552.8
			c9-5.5,10.3-18.6,19-24.3c-3.1,3.2-3.9,8.4-5.7,12.4C470.2,546.4,465.6,551.7,459.4,552.8z"/>
		<path class="st0" d="M464.5,562.1c3-1.9,5.3-7.5,9.1-7.6c0.4,0,0.6-0.4,0.4-0.8c0.4-0.2,0.4-1-0.2-1.1c-9-1.4-14.3,8.1-22.6,9.2
			c-0.6,0.1-0.7,1.1,0,1.1C455.1,563,460.9,564.3,464.5,562.1z M454.8,562c5.9-2.5,10.7-8.4,17.3-8.3c-2.3,0.8-3.9,3.4-5.5,5
			c-2,2.2-4,3.2-7.1,3.4C458,562.1,456.4,562,454.8,562z"/>
		<path class="st0" d="M443.8,570.5c3.7-1.2,8.9-4.1,12.7-2.1c0.1,0,0.1,0,0.2,0.1c0.1,0,0.1,0.1,0.2,0.1c0.6,0.4,1.3-0.5,0.7-0.9
			c-3.3-2.5-7-3.6-11.1-2.5c-4.7,1.3-8.9,3.9-13.9,4.3c-0.6,0.1-0.6,1,0,1.1C436.3,571.2,440,571.7,443.8,570.5z M436.6,569.9
			c2.4-0.7,4.6-1.6,6.9-2.5c3.6-1.4,6.7-1.8,9.9-0.7c-2.3,0.1-4.8,1-6.8,1.7C443,569.6,439.9,570,436.6,569.9z"/>
		<path class="st0" d="M476.3,565c1.1-3.7,2.1-6.9,4-10.3c1.4-2.5,2.9-5.2,3.2-8.1c0.4-3.9,0.2-9.3-3-12.1c-0.5-0.4-1,0.2-0.8,0.6
			c0,0.1-0.1,0.2-0.1,0.3c0.7,6.3-2.3,11.2-4.3,16.9c-1.5,4.2-2.4,8.6,0,12.7C475.6,565.5,476.2,565.4,476.3,565z M477.6,557.3
			c-0.9,2-1.4,3.9-2,6c-2-4.8,0.5-10.2,2.4-14.7c1.7-4.1,3-7.7,2.7-12c2.6,3.6,2.1,10.3,0.4,13.9C480.2,552.8,478.7,555,477.6,557.3
			z"/>
		<path class="st0" d="M449.2,582.8c2.6-1.1,5.2-2.4,7.9-3.3c2.1-0.7,4.4-1.5,6-3.1c3.2-3.2,4.9-9.3,3.1-13.6
			c-0.3-0.7-1.3-0.2-1,0.4c0,0.1,0.1,0.2,0.1,0.3c0,0,0,0,0,0c-3.1,3.8-5.3,7.6-9.4,10.4c-3.1,2.2-6,4.4-7.4,8.1
			C448.3,582.5,448.7,583,449.2,582.8z M450.1,581.2c1.8-3.5,5.2-5.4,8.3-7.8c3.1-2.4,4.9-5.6,7.2-8.6c0.9,4.5-1.5,10.3-5.6,12.3
			C456.9,578.6,453.4,579.8,450.1,581.2z"/>
		<path class="st0" d="M434.4,583.2c3.5-0.3,7.8-0.1,10.5-3c0.9-1,1.4-2.2,2-3.3c0.6-1.3,1.6-4.4,3.2-4.7c0.7-0.1,0.6-1.2-0.1-1.1
			c-0.1,0-0.2,0.1-0.3,0.1c-0.1-0.1-0.3-0.1-0.5,0c-2.8,1.1-5.5,2.6-7.5,4.9c-2.2,2.5-3.9,5.5-7.4,6.1
			C433.5,582.2,433.7,583.3,434.4,583.2z M437.6,581.8c1.1-0.8,2.1-1.8,3-2.9c2-2.5,4.1-4.4,6.8-5.8c-0.7,1.1-1.2,2.4-1.7,3.3
			c-1,2.1-2.1,3.9-4.4,4.7C440.2,581.5,438.9,581.7,437.6,581.8z"/>
		<path class="st0" d="M435.4,577.3c1.5-0.7,2.9-3.7,4.7-3.5c0.7,0.1,0.9-1,0.1-1.1c-0.1,0-0.1,0-0.2,0c-0.1-0.1-0.2-0.2-0.4-0.2
			c-2-0.2-3.8-0.2-5.7,0.8c-1.4,0.7-3.3,3.3-4.9,3.3c-0.7,0-0.6,1,0,1.1C431.3,578,433.3,578.3,435.4,577.3z M431.2,576.8
			c0.6-0.4,1.1-0.9,1.4-1.2c1.8-1.4,3.3-2,5.3-2.1c-0.3,0.3-0.6,0.5-0.9,0.8c-1.1,1.1-2.1,2.3-3.8,2.5
			C432.5,576.9,431.8,576.9,431.2,576.8z"/>
		<path class="st0" d="M493.2,532.9c4.6-3.4,6-9.4,4.3-14.8c-0.8-2.6-2.2-4.3-4-6.2c-1.5-1.6-5.3-4.9-4.1-7.4c0.3-0.6-0.7-1.1-1-0.4
			c-0.2,0.4-0.3,0.8-0.3,1.3c-0.1,0.1-0.1,0.1-0.2,0.2c-4.2,9.8,8.4,17.2,4.5,26.8C492.2,532.8,492.8,533.2,493.2,532.9z M494,530.7
			c1.7-8.4-7.8-15.2-5.5-23.4c1.1,2.6,4.1,5.1,5.5,6.7C498.1,518.7,498.3,526.2,494,530.7z"/>
		<path class="st0" d="M502.9,525.1c2.1-5.1,3.6-10.5,2.3-16c-1.5-6.3-4.8-12.3-5.1-18.9c0-0.1,0-0.1,0-0.1c0.1-0.1,0.1-0.1,0.2-0.2
			c0.5-0.5-0.4-1.2-0.9-0.7c-4.1,4.1-5.5,11.2-4.4,16.8c1.4,6.7,7.4,11.5,6.8,18.8C501.8,525.4,502.6,525.7,502.9,525.1z
			 M502.9,522.1c-0.6-4.6-3.5-8.4-5.5-12.8c-2.5-5.6-2.1-13.1,1.7-18.1c0.4,5.3,2.7,10.3,4.2,15.3C505.1,512,504.6,517,502.9,522.1z
			"/>
		<path class="st0" d="M492.4,553.1c2.7-6.1,4.3-13.3-0.1-19.1c-3.2-4.2-12.3-9.4-8.6-15.4c0.4-0.6-0.6-1.3-1-0.6
			c-0.9,1.5-1.1,2.9-0.9,4.3c-0.2,0-0.4,0.2-0.4,0.5c-1,11.4,13.3,18.3,10,30C491.1,553.4,492.1,553.7,492.4,553.1z M492.9,548.3
			c-0.2-3.3-1.6-6.4-3.6-9.4c-3-4.5-6.7-8.9-6.9-14.4c1.1,2.4,3.3,4.5,5.2,6.3c2.9,2.7,5.6,5.7,6.1,9.7
			C494.1,543.2,493.7,545.8,492.9,548.3z"/>
	</g>
	<g>
		<path class="st0" d="M488.9,384.2c8.6,5.7,15.4,14.4,18.7,24.2c3.9,11.6-0.4,23.1-4.4,34c-3.4,9.2-5.8,18-5.6,27.9
			c0.1,8.1,1,17.9,7.3,23.8c0.5,0.5,1.2-0.4,0.7-0.9c-7-6.5-7.2-18.5-6.8-27.3c0.5-10.9,4.8-20.6,8.3-30.7
			c3.4-9.8,4.6-19.5,0.8-29.3c-3.5-9-10.2-17-18.3-22.3C488.9,382.9,488.3,383.8,488.9,384.2z"/>
		<path class="st0" d="M462.6,433c-0.5-0.4-1.2,0.4-0.8,0.8c0,0,0.1,0.1,0.1,0.1c0,0,0,0,0,0c4.8,4.2,6.1,11.4,7.4,17.3
			c1.1,5.2,2.2,10.4,4.4,15.2c4.8,10.5,15.8,18,26.6,21.3c0.7,0.2,1.1-0.8,0.4-1c-0.1,0-0.2-0.1-0.3-0.1c0.1-0.2,0.1-0.4,0-0.6
			c-3-3.3-7.4-5.5-10.9-8.1c-5.1-3.8-9.1-8.5-11.3-14.5c-2.1-5.8-2.8-12-5-17.8c-2.1-5.4-6.4-8.5-10.4-12.5c0,0,0,0,0,0
			C462.6,433,462.6,433,462.6,433z M466.9,438.5c2.6,2.4,4.2,5.1,5.5,8.4c2.2,5.7,2.9,12,5,17.8c1.8,5,5.4,9.2,9.4,12.6
			c3.7,3.2,8.6,5.4,12,8.9c-11.1-3.9-21.1-11.9-25.4-23.1c-2.8-7.5-2.9-17.5-6.9-24.8C466.7,438.3,466.8,438.4,466.9,438.5z"/>
		<path class="st0" d="M480.3,443.1c3.6,6,2.8,13.4,4.7,19.9c1.8,6.1,6.2,11.8,12.6,13.3c0.1,0.1,0.3,0.1,0.4,0
			c0.3-0.1,0.5-0.4,0.3-0.7c0,0,0-0.1,0-0.1c0,0,0,0,0,0c0,0,0-0.1-0.1-0.1c-5-4.8-5.2-12.1-7-18.4c-1.7-5.9-5.7-10.3-10-14.5
			C480.7,442.1,480,442.7,480.3,443.1z M491.1,461c1.1,4.8,2,9.8,5.1,13.7c-6.3-2.3-9.6-8.9-10.8-15.2c-0.9-4.7-1-9.6-2.8-14.1
			c1.7,1.7,3.3,3.5,4.6,5.5C489.3,454,490.3,457.5,491.1,461z"/>
		<path class="st0" d="M477,412.9c11,12.9,7.2,33.6,21.5,44.3c0.6,0.4,1.2-0.4,0.7-0.9c0.3-0.1,0.6-0.5,0.3-0.9
			c-5.5-7.3-3.8-17-5.8-25.4c-2-8.5-8.9-13.6-15.9-17.9C477.2,411.8,476.6,412.4,477,412.9z M493.4,434.1c1.1,7.4,0.4,15.1,4.9,21.5
			c-12.2-10.1-10.1-28.4-18.6-40.9c2.9,1.9,5.7,3.9,8.1,6.5C491.1,424.8,492.6,429.3,493.4,434.1z"/>
		<path class="st0" d="M494.2,409.8c8.2,10.1-0.2,24.7,7.5,35.2c0.4,0.6,1.3-0.1,0.9-0.7c0,0,0-0.1-0.1-0.1c0.3-0.1,0.6-0.4,0.4-0.7
			c-1.5-3-0.8-6.6-0.3-9.8c0.5-3,1-5.9,0.9-8.9c-0.2-6.4-2.9-12.7-8.7-15.8C494.4,408.6,493.9,409.4,494.2,409.8z M502.4,428.4
			c-0.4,4.3-2.3,9.2-1.1,13.6c-4.7-9.3,0.6-21.3-4.6-30.6C501.5,415.4,502.9,422.3,502.4,428.4z"/>
		<path class="st0" d="M494.5,398.5c-0.6-0.3-1,0.6-0.5,1c6.7,5,6.7,16,15.2,19.1c0.6,0.2,0.9-0.5,0.7-0.8c0.3-0.2,0.4-0.6,0-0.9
			c-3.2-1.9-2.4-8-4.1-11.1C503.6,402.1,497.9,400.4,494.5,398.5z M501.4,403.4c2.6,1.6,3.8,3.5,4.5,6.4c0.5,2.2,0.7,5.3,2.3,7.1
			c-5.8-3.1-7-10.7-11-15.8C498.6,401.9,500,402.6,501.4,403.4z"/>
		<path class="st0" d="M482,382.6c-0.6-0.2-1.1,0.6-0.5,1c4.1,2.8,6.5,7.2,10,10.6c3,3,6.8,3.9,10.9,3.4c0.7-0.1,0.6-1.2-0.2-1.1
			c-0.1,0-0.1,0-0.2,0c-0.1,0-0.1,0-0.2,0c-4.3-0.2-7.4-5.2-10-8.1C489.1,385.4,485.6,384,482,382.6z M493.2,391.5
			c1.4,1.6,3.1,3.6,5.1,4.8c-3.3-0.6-5.8-2.5-8.2-5.5c-1.6-1.9-3.1-3.9-4.8-5.6C488.2,386.8,490.7,388.7,493.2,391.5z"/>
		<path class="st0" d="M516.6,408.5c-4.1,2.3-5.5,6.6-6.3,11c-1.1,6-0.9,11.7-4.6,16.9c-0.1,0.1-0.1,0.2-0.1,0.3
			c-0.4,0.3-0.2,1.1,0.4,1c4.2-0.8,6.9-5.4,8.5-9c1.2-2.7,1.2-5.7,1.2-8.6c0-3.9,0.8-7.2,1.6-11C517.5,408.7,517,408.3,516.6,408.5z
			 M514.5,424.2c-0.4,4-3.2,10-7.2,11.9c2.3-3.7,3-7.4,3.5-11.8c0.6-4.8,1.1-10.8,5.2-14c-0.5,2.1-1.1,4-1.2,6.2
			C514.6,419,514.8,421.6,514.5,424.2z"/>
		<path class="st0" d="M501.6,380.5c-0.6,3.9,0.8,7.2,2.4,10.7c2.1,4.5,2.3,8.9,3,13.7c0,0,0,0,0,0c-0.1,0.1-0.2,0.1-0.2,0.2
			c-0.6,0.4,0.1,1.3,0.7,0.9c3.7-2.8,5.2-9,4-13.3c-0.6-2.2-2.2-4-3.6-5.7c-1.9-2.2-3.5-4.5-5.3-6.8
			C502.3,379.9,501.7,380.1,501.6,380.5z M509.2,390.6c2.6,3.7,1.8,9.9-1.2,13.4c-0.5-3.8-0.5-7.5-2-11.1c-1.5-3.6-3.5-6.9-3.4-10.9
			C504.8,384.9,507.2,387.6,509.2,390.6z"/>
		<path class="st0" d="M489.2,373.5c2.7,2.3,2.8,5.8,3.5,9c0.6,3,2.2,5.6,4.1,7.9c0.1,0.2,0.3,0.2,0.4,0.2c0.1,0.1,0.1,0.2,0.2,0.2
			c0.6,0.5,1.2-0.4,0.7-0.9c-1.3-1-0.6-4.3-0.5-5.7c0.1-1.3,0.2-2.6-0.1-3.9c-0.9-3.8-4.7-5.7-7.7-7.7
			C489.3,372.2,488.7,373,489.2,373.5z M495,377.9c1.7,1.8,1.7,4,1.6,6.3c-0.1,1-0.3,2.4-0.2,3.7c-1.6-2.6-2.5-5.2-3.1-8.4
			c-0.2-1.5-0.6-2.8-1.2-4C493.1,376.1,494.1,376.9,495,377.9z"/>
		<path class="st0" d="M482.6,374.8c-0.6-0.2-1.1,0.6-0.5,1c1.4,0.8,1.8,4,2.6,5.3c1.1,1.8,2.7,2.6,4.6,3.5c0.2,0.1,0.3,0.1,0.4,0
			c0.1,0,0.1,0.1,0.1,0.1c0.7,0.3,1.1-0.8,0.4-1c-1.7-0.7-1.4-3.9-2.4-5.3C486.5,376.4,484.7,375.6,482.6,374.8z M485.7,377.5
			c1.4,0.9,1.7,2.5,2.1,4c0.1,0.4,0.2,0.8,0.3,1.1c-1.7-1-2.7-2.3-3.6-4.4c-0.2-0.5-0.4-1.1-0.7-1.7
			C484.5,376.8,485.1,377.1,485.7,377.5z"/>
		<path class="st0" d="M515.2,445.5c-1.3,10.3-16,10.5-17.1,21.1c0,0.1,0,0.2,0,0.3c-0.2,0.4-0.3,0.8-0.3,1.3c0,0.7,1.1,0.9,1.1,0.1
			c0.2-2.8,5.1-3.7,7.3-4.4c2.6-0.8,4.6-1.6,6.5-3.5c4.1-3.9,5.9-9.8,3.5-15C516.1,444.9,515.3,445,515.2,445.5z M507.6,462.2
			c-2,0.7-5.9,1.4-8.1,3.1c2.1-8.3,13.7-9.6,16.4-17.7C517.4,453.7,513.5,460.1,507.6,462.2z"/>
		<path class="st0" d="M519.8,456.7c-3,6.6-10.6,7.9-15.1,13c-3.8,4.3-6,11.2-4.5,16.8c0.2,0.7,1.3,0.5,1.1-0.2c0-0.1,0-0.2-0.1-0.2
			c0,0,0.1-0.1,0.1-0.1c3.4-5.6,9.3-9.2,13.7-14c3.8-4.1,5.2-9.6,5.9-15C520.9,456.3,520,456.1,519.8,456.7z M512.1,473.3
			c-3.8,3.6-8.3,6.8-11.2,11.2c-0.9-6.2,2.5-12.9,7.4-16.6c3.8-2.8,8.2-4.7,11-8.4C518.3,464.8,516.3,469.4,512.1,473.3z"/>
		<path class="st0" d="M524.4,427.2c-2.8,11.8-18.7,10.7-23.4,21.2c-0.1,0.3,0,0.5,0.1,0.6c-0.8,1.1-1.4,2.5-1.3,4.2
			c0,0.7,1.2,0.6,1.1-0.1c-0.2-7,10.3-7.1,15.1-9.1c6.7-2.8,8.8-9.9,9.5-16.6C525.6,426.7,524.5,426.5,524.4,427.2z M520.5,439
			c-2.4,3.3-6.2,4.5-10.1,5.5c-2.6,0.6-5.5,1.4-7.6,2.9c2.9-4.7,8.3-6.7,13.1-9.1c3.2-1.6,5.9-3.7,7.8-6.5
			C523,434.4,522.1,436.8,520.5,439z"/>
	</g>
</g>
</svg>
