<?xml version="1.0" encoding="utf-8"?>
<!-- Generator: Adobe Illustrator 25.0.0, SVG Export Plug-In . SVG Version: 6.00 Build 0)  -->
<svg version="1.1" id="Layer_1" xmlns="http://www.w3.org/2000/svg" xmlns:xlink="http://www.w3.org/1999/xlink" x="0px" y="0px"
	 viewBox="0 0 512 512" style="enable-background:new 0 0 512 512;" xml:space="preserve">
<style type="text/css">
	.st0{fill:#606060;}
</style>
<g>
	<g>
		<path class="st0" d="M85,488.1c-4.6,1-9,5.5-12.8,8.2c-4.9,3.6-10.1,6.6-16,8.4c-11.9,3.8-23.7,7.7-36,9.5
			c-12.4,1.8-25.2,1.2-37.6-0.8c-12.2-2-23.3-7-34.7-11.5c-0.8-0.3-1.2,1-0.4,1.3c11.8,4.8,23.2,9.7,35.8,11.7
			c11.8,1.9,23.9,2.2,35.8,0.8c12.4-1.5,24.3-5.5,36.2-9.3c5.3-1.7,10.1-4,14.8-7.1c2.4-1.6,4.8-3.4,7.2-5.1c2.4-1.7,5.1-4.2,8-4.8
			C86.2,489.2,85.8,487.9,85,488.1z"/>
		<path class="st0" d="M5.6,486.8c-0.1-0.9-1.5-0.9-1.4,0c0.6,5.8-3,11.6-6.4,16.1c-3.4,4.6-8.9,10.3-15,10.6
			c-0.9,0.1-0.9,1.4,0,1.4c6.4-0.4,11.8-5.8,15.6-10.5C2.2,499.6,6.3,493,5.6,486.8z"/>
		<path class="st0" d="M34.3,479.1C34.3,479.1,34.3,479,34.3,479.1C34.3,479,34.3,479,34.3,479.1c-0.1-0.1-0.1-0.1-0.1-0.2
			c-0.5-0.7-1.4,0.2-1.1,0.8L34,482c0.2,0.4,0.5,0.4,0.8,0.3c5.2,8.9,5.6,22-2.4,29.3c-0.7,0.6,0.3,1.6,1,1
			C42.6,504,41.4,488.5,34.3,479.1z"/>
		<path class="st0" d="M66.7,531.8c-6.1-13-19.3-23.4-34.2-20c-0.9,0.2-0.5,1.5,0.3,1.3c14.3-3.2,26.9,7,32.7,19.4
			C65.8,533.3,67,532.6,66.7,531.8z"/>
		<path class="st0" d="M70.6,472.5c-0.4-0.6-1.5-0.3-1.3,0.5c0.2,0.5,0.3,1,0.3,1.5c0.1,0.4,0.4,0.5,0.7,0.5
			c4.2,9.1-0.4,19.7-7,26.7c-0.6,0.7,0.3,1.6,1,1C71.7,494.7,76.6,482.5,70.6,472.5z"/>
		<path class="st0" d="M92.3,508.6c-4.7-8.6-19.1-9.4-27.6-7.7c-0.9,0.2-0.5,1.5,0.3,1.3c7.9-1.6,21.7-0.9,26,7.1
			C91.5,510,92.7,509.3,92.3,508.6z"/>
		<g>
			<path class="st0" d="M18,483.6c-2.8-4.3-9.6-1.4-12.5,1.4c-0.1-0.1-0.3-0.1-0.4-0.1c-0.1,0-0.3,0-0.4,0.1
				C2,482-4.8,479-7.7,483.3c-0.9,1.4,0.2,3.3,1.5,3.9c1.4,0.6,2.9,0.7,4.4,0.4c-0.2,0.4-0.1,0.8,0.4,1.1c1.7,1.1,3-0.1,4.3-1.1
				c0.9,1.3,1.7,0,2.2-1.3c0.4,1.3,1.2,2.6,2.2,1.4c1.3,1,2.6,2.2,4.3,1.2c0.5-0.3,0.6-0.7,0.4-1.1c1.5,0.3,3,0.2,4.4-0.3
				C17.7,486.8,18.9,484.9,18,483.6z"/>
			<path class="st0" d="M7.8,476.3c-1.4-1.8-3.7-2.1-5.6-0.9c-4,2.5-1.8,8.4,1.6,10.1c0.5,0.2,0.8-0.6,0.3-0.8
				c-2.9-1.4-4.5-5.7-1.9-8.2c1.9-1.8,4.1-0.7,5.4,1.1c1.3,1.8,0.8,4.1,0.6,6.1c-0.1,0.6,0.8,0.7,0.9,0.1
				C9.5,481.1,9.7,478.6,7.8,476.3z"/>
			<path class="st0" d="M1.3,482c-2-0.8-4.2-1.5-5.6-3.1c-1.5-1.7-0.1-3.7,1.9-3.5c1.4,0.1,2.2,1.6,3,2.6c0.4,0.4,1-0.1,0.7-0.5
				c-1-1.3-1.8-2.5-3.5-2.9c-1.4-0.3-3.1,0.5-3.4,2c-0.9,3.7,4.1,5.3,6.7,6.3C1.5,483.1,1.8,482.3,1.3,482z"/>
			<path class="st0" d="M0.8,467.8c-1.6,0.3-2.4,2.6-2.5,4c0,2.1,1,4.3,2.3,5.8c0.4,0.4,1.1-0.1,0.7-0.5c-1-1.2-1.7-2.6-2-4.1
				c-0.3-1.4,0.1-4,1.8-4.3c1.2-0.2,2.2,1.8,2.6,2.7c0.5,1.2,0.7,2.5,0.7,3.8c0,0.6,0.9,0.4,0.9-0.1C5.3,472.7,4.1,467.2,0.8,467.8z
				"/>
			<path class="st0" d="M9.2,467.1c-3.4-1.6-4.8,5.8-4.5,7.8c0.1,0.6,0.9,0.4,0.9-0.1c-0.2-1.7,0.8-7.6,3.4-6.9
				c2.8,0.8-0.4,7.1-1.4,8.4c-0.3,0.4,0.3,1,0.7,0.5C9.7,474.8,12.6,468.7,9.2,467.1z"/>
			<path class="st0" d="M14.6,470.7c-1.3-0.6-2.9,0.8-3.8,1.6c-1.3,1.1-3.1,2.6-3.3,4.5c-0.1,0.5,0.7,0.7,0.8,0.1
				c0.1-1.4,1.5-2.6,2.4-3.4c0.9-0.8,1.8-1.8,3-2c1.7-0.3,0.9,2,0.5,2.7c-0.4,0.7-1.1,1.4-1.7,2c-1.2,1.1-2.6,1.8-3.9,2.8
				c-0.4,0.3,0.1,1,0.5,0.7c2-1.6,4.2-2.7,5.7-4.9C15.7,473.6,16.1,471.4,14.6,470.7z"/>
			<path class="st0" d="M16.3,477.6c-0.5-3.6-6.4,0.5-7.6,1.5c-0.4,0.4,0.1,1,0.5,0.7c1-0.8,2-1.5,3.1-2c0.6-0.3,1.3-0.6,2-0.7
				c1.1-0.2,1.3,0.9,0.8,1.7c-1.5,2.2-4.8,2.9-7,4.2c-0.3,0.2-0.2,0.8,0.2,0.8l0.1,0c0.1,0,0.2,0,0.3-0.1c1.5-0.9,3.3-1.5,4.8-2.4
				C14.8,480.4,16.5,479.2,16.3,477.6z"/>
		</g>
		<g>
			<path class="st0" d="M43,474.1c-3.3-2.5-7.8,1.6-9.2,4.6c-0.1,0-0.3,0-0.4,0c-0.1,0-0.2,0.1-0.3,0.2c-2.9-1.4-8.9-1.8-10,2.3
				c-0.3,1.3,1.1,2.4,2.2,2.5c1.2,0.1,2.4-0.3,3.5-0.9c0,0.3,0.1,0.6,0.6,0.7c1.6,0.3,2.2-0.9,3-2c1,0.7,1.3-0.5,1.3-1.6
				c0.7,0.9,1.7,1.7,2,0.4c1.3,0.4,2.6,0.9,3.6-0.3c0.3-0.4,0.2-0.7,0-0.9c1.2-0.2,2.4-0.7,3.3-1.5C43.7,476.7,44,474.9,43,474.1z"
				/>
			<path class="st0" d="M33.1,471.5c-1.6-0.9-3.4-0.5-4.5,0.9c-2.3,3,1,6.9,4.1,7.2c0.5,0,0.5-0.7,0-0.7c-2.6-0.2-5-3.1-3.8-5.7
				c0.9-1.9,3-1.7,4.4-0.7c1.5,1,1.8,2.9,2.2,4.5c0.1,0.4,0.8,0.3,0.7-0.2C35.7,474.7,35.2,472.8,33.1,471.5z"/>
			<path class="st0" d="M29.7,477.7c-1.7,0-3.6,0.1-5.2-0.8c-1.6-0.9-1.1-2.8,0.5-3.2c1.1-0.3,2.1,0.6,3,1.1
				c0.4,0.2,0.8-0.4,0.4-0.6c-1.2-0.7-2.1-1.4-3.5-1.2c-1.1,0.2-2.2,1.3-2.1,2.5c0.4,3.1,4.6,2.8,6.9,2.9
				C30.2,478.4,30.2,477.7,29.7,477.7z"/>
			<path class="st0" d="M25.3,467c-1.2,0.7-1.2,2.6-0.8,3.8c0.5,1.6,1.9,3,3.4,3.8c0.4,0.2,0.8-0.4,0.4-0.6c-1.1-0.6-2-1.5-2.7-2.6
				c-0.6-1-1.1-3,0.2-3.8c0.9-0.5,2.2,0.8,2.7,1.3c0.7,0.7,1.2,1.7,1.6,2.7c0.2,0.4,0.8,0.1,0.6-0.3C30.1,469.4,27.7,465.6,25.3,467
				z"/>
			<path class="st0" d="M31.5,464.1c-3-0.2-2.1,5.8-1.3,7.2c0.2,0.4,0.8,0.1,0.6-0.3c-0.7-1.2-1.6-6,0.6-6.2
				c2.4-0.2,1.7,5.5,1.3,6.8c-0.1,0.4,0.5,0.6,0.7,0.2C34.1,469.8,34.6,464.4,31.5,464.1z"/>
			<path class="st0" d="M36.7,465.3c-1.2-0.1-2,1.4-2.5,2.3c-0.7,1.2-1.6,2.9-1.2,4.4c0.1,0.4,0.8,0.3,0.6-0.1
				c-0.3-1.1,0.4-2.4,0.9-3.3c0.4-0.9,0.9-1.9,1.7-2.4c1.2-0.7,1.3,1.3,1.2,1.9c-0.1,0.7-0.5,1.4-0.8,2c-0.6,1.2-1.5,2.1-2.2,3.2
				c-0.2,0.4,0.3,0.8,0.6,0.4c1.1-1.8,2.5-3.2,3-5.3C38.3,467.2,38.1,465.4,36.7,465.3z"/>
			<path class="st0" d="M39.9,470.1c-1.4-2.6-4.7,2.2-5.4,3.3c-0.2,0.4,0.4,0.8,0.6,0.4c0.5-0.9,1.1-1.7,1.8-2.4
				c0.4-0.4,0.8-0.8,1.3-1.1c0.8-0.4,1.3,0.3,1.1,1.1c-0.5,2.1-2.9,3.6-4.2,5.2c-0.2,0.2,0.1,0.6,0.4,0.5l0.1,0
				c0.1,0,0.2-0.1,0.2-0.2c0.9-1.1,2.1-2.1,3-3.2C39.6,472.7,40.6,471.3,39.9,470.1z"/>
		</g>
		<g>
			<path class="st0" d="M82.5,514.6c3.3,2.6,7.8-1.5,9.2-4.4c0.1,0,0.3,0,0.4,0c0.1,0,0.2-0.1,0.3-0.2c2.9,1.5,8.9,2,10-2.1
				c0.4-1.3-1-2.5-2.2-2.6c-1.2-0.1-2.4,0.2-3.5,0.8c0-0.3-0.1-0.6-0.6-0.7c-1.6-0.4-2.3,0.9-3.1,2c-1-0.8-1.3,0.5-1.4,1.6
				c-0.7-0.9-1.7-1.7-2-0.5c-1.3-0.4-2.6-1-3.6,0.3c-0.3,0.4-0.2,0.7,0,0.9c-1.2,0.2-2.4,0.6-3.3,1.5
				C81.8,512,81.4,513.8,82.5,514.6z"/>
			<path class="st0" d="M92.3,517.4c1.6,1,3.4,0.6,4.5-0.8c2.4-3-0.9-7-4-7.3c-0.5-0.1-0.5,0.7,0,0.7c2.6,0.3,5,3.2,3.7,5.8
				c-1,1.9-3,1.7-4.4,0.6c-1.5-1.1-1.7-2.9-2.1-4.6c-0.1-0.4-0.8-0.3-0.7,0.1C89.7,514.2,90.2,516.1,92.3,517.4z"/>
			<path class="st0" d="M95.8,511.3c1.7,0.1,3.6,0,5.2,0.8c1.6,0.9,1.1,2.8-0.5,3.2c-1.1,0.3-2.1-0.7-3-1.2
				c-0.4-0.2-0.8,0.4-0.4,0.6c1.1,0.7,2.1,1.5,3.5,1.3c1.1-0.1,2.2-1.3,2.1-2.5c-0.3-3.1-4.6-2.9-6.8-3
				C95.3,510.5,95.3,511.2,95.8,511.3z"/>
			<path class="st0" d="M100,522c1.2-0.7,1.2-2.6,0.8-3.7c-0.5-1.6-1.9-3-3.3-3.8c-0.4-0.2-0.8,0.4-0.4,0.6c1.1,0.6,2,1.6,2.6,2.6
				c0.6,1,1,3.1-0.2,3.8c-0.9,0.5-2.2-0.8-2.7-1.3c-0.7-0.8-1.2-1.7-1.6-2.7c-0.2-0.4-0.8-0.1-0.6,0.3
				C95.2,519.5,97.6,523.4,100,522z"/>
			<path class="st0" d="M93.7,524.8c3,0.3,2.2-5.7,1.4-7.2c-0.2-0.4-0.8-0.1-0.6,0.3c0.6,1.2,1.5,6-0.7,6.2
				c-2.4,0.2-1.6-5.5-1.2-6.8c0.2-0.4-0.5-0.7-0.7-0.2C91.2,519.1,90.7,524.5,93.7,524.8z"/>
			<path class="st0" d="M88.6,523.5c1.2,0.1,2-1.4,2.5-2.2c0.7-1.2,1.7-2.9,1.3-4.3c-0.1-0.4-0.7-0.3-0.6,0.1
				c0.3,1.1-0.4,2.4-0.9,3.3c-0.4,0.9-1,1.8-1.8,2.3c-1.2,0.7-1.3-1.3-1.1-2c0.1-0.7,0.5-1.3,0.8-2c0.6-1.2,1.5-2.1,2.2-3.2
				c0.2-0.4-0.3-0.8-0.6-0.4c-1.1,1.8-2.5,3.2-3.1,5.3C87,521.6,87.2,523.4,88.6,523.5z"/>
			<path class="st0" d="M85.4,518.7c1.4,2.6,4.8-2.1,5.4-3.2c0.2-0.4-0.3-0.8-0.6-0.4c-0.5,0.9-1.1,1.7-1.8,2.4
				c-0.4,0.4-0.8,0.8-1.4,1.1c-0.8,0.4-1.3-0.4-1.1-1.1c0.5-2.1,2.9-3.5,4.3-5.1c0.2-0.2-0.1-0.6-0.4-0.5l-0.1,0
				c-0.1,0-0.2,0.1-0.2,0.2c-0.9,1.1-2.1,2-3,3.2C85.8,516.1,84.8,517.5,85.4,518.7z"/>
		</g>
		<g>
			<path class="st0" d="M56.6,538c3.3,2.6,7.8-1.5,9.2-4.4c0.1,0,0.3,0,0.4,0c0.1,0,0.2-0.1,0.3-0.2c2.9,1.5,8.9,2,10-2.1
				c0.4-1.3-1-2.5-2.2-2.6c-1.2-0.1-2.4,0.2-3.5,0.8c0-0.3-0.1-0.6-0.6-0.7c-1.6-0.4-2.3,0.9-3,2c-1-0.8-1.3,0.5-1.4,1.6
				c-0.7-0.9-1.7-1.7-2-0.5c-1.3-0.4-2.6-1-3.6,0.3c-0.3,0.4-0.2,0.7,0,0.9c-1.2,0.2-2.4,0.6-3.3,1.5C56,535.4,55.6,537.2,56.6,538z
				"/>
			<path class="st0" d="M66.4,540.8c1.6,1,3.4,0.6,4.5-0.8c2.4-3-0.9-7-4-7.3c-0.5-0.1-0.5,0.7,0,0.7c2.6,0.3,5,3.2,3.7,5.8
				c-1,1.9-3,1.7-4.4,0.6c-1.5-1.1-1.7-2.9-2.1-4.5c-0.1-0.4-0.8-0.3-0.7,0.1C63.9,537.6,64.4,539.5,66.4,540.8z"/>
			<path class="st0" d="M69.9,534.7c1.7,0.1,3.6,0,5.2,0.9c1.6,0.9,1.1,2.8-0.5,3.2c-1.1,0.3-2.1-0.7-3-1.2
				c-0.4-0.2-0.8,0.4-0.4,0.6c1.1,0.7,2.1,1.4,3.5,1.3c1.1-0.1,2.2-1.3,2.1-2.5c-0.3-3.1-4.6-2.9-6.8-3
				C69.5,533.9,69.4,534.7,69.9,534.7z"/>
			<path class="st0" d="M74.1,545.5c1.2-0.7,1.2-2.6,0.8-3.7c-0.5-1.6-1.9-3-3.3-3.8c-0.4-0.2-0.8,0.4-0.4,0.6
				c1.1,0.6,2,1.6,2.6,2.6c0.6,1,1,3.1-0.2,3.8c-0.9,0.5-2.2-0.8-2.7-1.3c-0.7-0.8-1.2-1.7-1.6-2.7c-0.2-0.4-0.8-0.1-0.6,0.3
				C69.4,542.9,71.7,546.8,74.1,545.5z"/>
			<path class="st0" d="M67.9,548.2c3,0.3,2.2-5.7,1.4-7.2c-0.2-0.4-0.8-0.1-0.6,0.3c0.6,1.2,1.5,6-0.7,6.2
				c-2.4,0.1-1.6-5.5-1.2-6.8c0.1-0.4-0.5-0.7-0.7-0.2C65.4,542.5,64.8,547.9,67.9,548.2z"/>
			<path class="st0" d="M62.7,546.9c1.2,0.1,2-1.4,2.5-2.2c0.7-1.2,1.7-2.9,1.3-4.3c-0.1-0.4-0.7-0.3-0.6,0.1
				c0.3,1.1-0.4,2.4-0.9,3.3c-0.5,0.9-1,1.8-1.8,2.3c-1.2,0.7-1.3-1.3-1.1-2c0.1-0.7,0.5-1.3,0.8-2c0.6-1.2,1.5-2.1,2.2-3.2
				c0.2-0.4-0.3-0.8-0.6-0.4c-1.1,1.8-2.5,3.2-3.1,5.3C61.1,545,61.3,546.8,62.7,546.9z"/>
			<path class="st0" d="M59.6,542.1c1.4,2.6,4.8-2.1,5.4-3.2c0.2-0.4-0.3-0.8-0.6-0.4c-0.5,0.9-1.1,1.7-1.8,2.4
				c-0.4,0.4-0.8,0.8-1.3,1.1c-0.8,0.4-1.3-0.4-1.1-1.1c0.5-2.1,2.9-3.5,4.3-5.1c0.2-0.2-0.1-0.6-0.4-0.5l-0.1,0
				c-0.1,0-0.2,0.1-0.2,0.2c-0.9,1.1-2.1,2-3,3.2C59.9,539.5,58.9,540.9,59.6,542.1z"/>
		</g>
		<g>
			<path class="st0" d="M79.4,468.3c-3.3-2.5-7.8,1.6-9.2,4.6c-0.1,0-0.3,0-0.4,0c-0.1,0-0.2,0.1-0.3,0.2c-2.9-1.4-8.9-1.8-10,2.3
				c-0.3,1.3,1.1,2.4,2.2,2.5c1.2,0.1,2.4-0.3,3.5-0.9c0,0.3,0.1,0.6,0.6,0.7c1.6,0.3,2.2-0.9,3-2c1,0.7,1.3-0.5,1.3-1.6
				c0.7,0.9,1.7,1.7,2,0.4c1.3,0.4,2.6,0.9,3.6-0.3c0.3-0.4,0.2-0.7,0-0.9c1.2-0.2,2.4-0.7,3.3-1.5C80,470.9,80.4,469.1,79.4,468.3z
				"/>
			<path class="st0" d="M69.5,465.7c-1.6-0.9-3.4-0.5-4.5,0.9c-2.3,3,1,6.9,4.1,7.2c0.5,0,0.5-0.7,0-0.7c-2.6-0.2-5-3.1-3.8-5.7
				c0.9-1.9,3-1.7,4.4-0.7c1.5,1,1.8,2.9,2.2,4.5c0.1,0.4,0.8,0.3,0.7-0.2C72.1,468.8,71.6,466.9,69.5,465.7z"/>
			<path class="st0" d="M66.1,471.9c-1.7,0-3.6,0.1-5.2-0.8c-1.6-0.9-1.1-2.8,0.5-3.2c1.1-0.3,2.1,0.6,3,1.1
				c0.4,0.2,0.8-0.4,0.4-0.6c-1.2-0.7-2.1-1.4-3.5-1.2c-1.1,0.2-2.2,1.3-2.1,2.5c0.4,3.1,4.6,2.8,6.9,2.9
				C66.6,472.6,66.6,471.9,66.1,471.9z"/>
			<path class="st0" d="M61.7,461.2c-1.2,0.7-1.2,2.6-0.8,3.7c0.5,1.6,1.9,3,3.4,3.8c0.4,0.2,0.8-0.4,0.4-0.6
				c-1.1-0.6-2-1.5-2.7-2.6c-0.6-1-1.1-3.1,0.2-3.8c0.9-0.5,2.2,0.8,2.8,1.3c0.7,0.7,1.2,1.7,1.6,2.7c0.2,0.4,0.8,0.1,0.6-0.3
				C66.5,463.6,64.1,459.8,61.7,461.2z"/>
			<path class="st0" d="M67.9,458.3c-3-0.2-2.1,5.8-1.3,7.2c0.2,0.4,0.8,0.1,0.6-0.3c-0.7-1.2-1.6-6,0.6-6.2
				c2.4-0.2,1.7,5.5,1.3,6.8c-0.1,0.4,0.5,0.6,0.7,0.2C70.5,464,71,458.5,67.9,458.3z"/>
			<path class="st0" d="M73.1,459.5c-1.2-0.1-2,1.4-2.5,2.3c-0.7,1.2-1.6,2.9-1.2,4.4c0.1,0.4,0.8,0.3,0.6-0.1
				c-0.3-1.1,0.4-2.4,0.9-3.3c0.4-0.9,0.9-1.9,1.7-2.4c1.2-0.7,1.3,1.3,1.2,1.9c-0.1,0.7-0.5,1.4-0.8,2c-0.6,1.2-1.5,2.1-2.2,3.2
				c-0.2,0.4,0.3,0.8,0.6,0.4c1.1-1.8,2.5-3.2,3-5.3C74.7,461.4,74.5,459.6,73.1,459.5z"/>
			<path class="st0" d="M76.3,464.2c-1.4-2.6-4.7,2.2-5.4,3.3c-0.2,0.4,0.4,0.8,0.6,0.4c0.5-0.9,1.1-1.7,1.8-2.4
				c0.4-0.4,0.8-0.8,1.3-1.1c0.8-0.4,1.3,0.3,1.1,1.1c-0.5,2.1-2.9,3.6-4.2,5.2c-0.2,0.2,0.1,0.6,0.4,0.5l0.1,0
				c0.1,0,0.2-0.1,0.2-0.2c0.9-1.1,2.1-2.1,3-3.2C76,466.8,77,465.4,76.3,464.2z"/>
		</g>
		<g>
			<path class="st0" d="M93.2,495.3c1.4-4-3.8-6.9-7-7.3c0-0.1-0.1-0.2-0.1-0.3c0-0.1-0.1-0.2-0.3-0.2c0.5-3.2-0.9-9.1-5.1-8.8
				c-1.3,0.1-2,1.8-1.7,2.9c0.3,1.2,1,2.2,1.9,3.1c-0.3,0.1-0.6,0.3-0.5,0.8c0.1,1.6,1.5,1.9,2.8,2.2c-0.4,1.2,0.9,1.1,1.9,0.8
				c-0.6,0.9-1.1,2.1,0.2,2.1c0,1.4-0.1,2.8,1.4,3.3c0.4,0.2,0.7,0,0.9-0.3c0.5,1.1,1.3,2.1,2.4,2.7
				C90.9,496.8,92.7,496.6,93.2,495.3z"/>
			<path class="st0" d="M92.7,485.1c0.4-1.8-0.5-3.4-2.2-4c-3.5-1.3-6.3,3.1-5.7,6.1c0.1,0.4,0.8,0.3,0.7-0.2
				c-0.6-2.6,1.5-5.8,4.3-5.4c2.1,0.3,2.5,2.3,1.9,4c-0.6,1.7-2.2,2.6-3.7,3.5c-0.4,0.2,0,0.8,0.3,0.6
				C90.5,488.6,92.2,487.5,92.7,485.1z"/>
			<path class="st0" d="M85.9,483.8c-0.5-1.7-1.1-3.4-0.8-5.2c0.3-1.8,2.3-1.9,3.2-0.5c0.6,0.9,0,2.2-0.2,3.2
				c-0.1,0.4,0.6,0.6,0.7,0.2c0.3-1.3,0.7-2.5,0.1-3.8c-0.5-1-1.9-1.7-3-1.2c-2.8,1.3-1.3,5.3-0.7,7.5
				C85.3,484.4,86,484.2,85.9,483.8z"/>
			<path class="st0" d="M94.8,476.3c-1-0.9-2.9-0.3-3.8,0.4c-1.3,1-2.3,2.8-2.6,4.4c-0.1,0.4,0.6,0.6,0.7,0.2
				c0.2-1.2,0.9-2.4,1.7-3.4c0.8-0.9,2.6-2,3.7-1c0.8,0.7-0.1,2.4-0.4,3c-0.5,0.9-1.2,1.7-2.1,2.4c-0.4,0.3,0.1,0.8,0.5,0.5
				C93.9,481.6,96.8,478.1,94.8,476.3z"/>
			<path class="st0" d="M99.3,481.3c-0.7-3-6.1-0.2-7.2,1c-0.3,0.3,0.2,0.8,0.5,0.5c1-1,5.2-3.3,6.1-1.3c0.9,2.2-4.7,3.3-6.1,3.3
				c-0.5,0-0.5,0.7,0,0.7C94.7,485.5,100,484.3,99.3,481.3z"/>
			<path class="st0" d="M99.7,486.6c-0.3-1.2-1.9-1.4-2.9-1.7c-1.3-0.3-3.2-0.7-4.5,0.2c-0.4,0.2-0.1,0.8,0.3,0.6
				c1-0.6,2.4-0.4,3.4-0.2c1,0.1,2,0.3,2.8,0.9c1.1,0.9-0.8,1.6-1.5,1.7c-0.7,0.1-1.4,0-2.1-0.1c-1.3-0.2-2.4-0.8-3.7-1.1
				c-0.4-0.1-0.6,0.6-0.2,0.7c2.1,0.5,3.8,1.3,6,1.2C98.4,488.8,100,488,99.7,486.6z"/>
			<path class="st0" d="M96.2,491.2c2.1-2.1-3.5-3.8-4.7-4.1c-0.4-0.1-0.6,0.6-0.2,0.7c1,0.2,1.9,0.5,2.8,1c0.5,0.2,1,0.5,1.4,0.9
				c0.7,0.6,0.1,1.3-0.7,1.4c-2.2,0.2-4.3-1.6-6.2-2.4c-0.3-0.1-0.6,0.3-0.4,0.5l0,0c0.1,0.1,0.2,0.1,0.2,0.1
				c1.4,0.5,2.6,1.3,3.9,1.9C93.6,491.7,95.2,492.2,96.2,491.2z"/>
		</g>
		<path class="st0" d="M-6.5,495c-2.2-2.8-4.8-0.7-5.8,1.8c-0.8,1.8-1.3,3.6-1.7,5.5c-0.5,2.2-1.1,4.2-1.8,6.1
			c-0.2-2-0.9-4.1-1.5-5.8c-0.8-2.2-2.9-6.5-5.9-6c-9.3,1.4,4.2,14.8,5.1,17.6c0.2,0.8,1.5,0.5,1.3-0.3c0.2,0.1,0.4,0.1,0.6-0.1
			C-11,510.5-1.1,501.7-6.5,495z M-24.6,498.8c3.7-4.4,8.4,9.6,7,13.6C-20,508.5-27.2,502-24.6,498.8z M-15.7,511.9
			c1.3-3,2.3-6,3-9.2c0.4-1.6,1.7-8.9,4.4-7.5c4.5,2.4,0.6,8.5-1.4,11C-11.4,508.4-13.5,510.3-15.7,511.9z"/>
		<path class="st0" d="M-14.3,527.3c1.4-4.7,0.7-10.1-2.6-13.9c0-0.1-0.1-0.1-0.1-0.1c0-0.3,0-0.6-0.2-0.9c-0.2-0.4-0.9-0.5-1.2,0
			c-0.1,0.1-0.1,0.4-0.2,0.4c-0.3,0.3-0.2,0.7,0,1c-0.4,1.1-1.7,3.2-1.9,3.6c-0.7,1.6-1.4,3.2-2.1,4.8c-1.1,2.6-2.2,5.4-2.6,8.2
			c-0.2,1.8-0.6,7,2.6,6.6C-18.2,536.4-15.4,531-14.3,527.3z M-23.8,534c-0.8-3.3,1-7.3,2.1-10.3c1-2.7,2.3-5.3,3.5-8
			c0.2-0.3,0.4-0.7,0.6-1c2.7,3.4,3,7.9,2,12.1c-0.5,2.2-1.7,4.2-3.1,6C-19.8,534.1-23.1,537.3-23.8,534z"/>
		<path class="st0" d="M-17.3,514.2c0.1,0,0.1,0,0.2,0c0.9,0,0.9-1.3,0-1.4c-2.7-0.1-5.6,1.7-7.8,3.1c-1.6,1.1-4.7,3-4.7,5.3
			c0.1,2.3,3.5,1.7,4.8,1.1C-21.6,521-18.8,517.3-17.3,514.2z M-22.8,519.3c-1.1,1-2.4,2.2-4,2.4c-1.2,0.1-1.6-0.4-0.9-1.3
			c1.5-2.3,5.5-5,8.7-5.8C-20,516.2-21.3,517.8-22.8,519.3z"/>
		<path class="st0" d="M31.8,512.6c1.8-3.9,2.8-8.3,1.2-12.5c-1.4-3.9-6.2-6.4-10.2-6.1c-2.8,0.3-1.8,3.3-1,4.9c0.8,1.6,1.9,3,3,4.4
			c2.2,2.9,3.7,6,4.8,9.5c0.2,0.7,1.2,0.6,1.3,0C31.2,513.1,31.6,513,31.8,512.6z M26.4,503.2c-1.5-2-3.3-4.1-4-6.5
			c-0.7-2.3,3.7-0.8,4.5-0.6c2.4,0.8,4.2,2.6,5.1,5c1.3,3.4,0.2,7.5-1.3,10.7C29.6,508.7,28.3,505.8,26.4,503.2z"/>
		<path class="st0" d="M29.9,512.5c-0.3-0.6-0.7-1.2-1.2-1.7c-4.4-5.7-16.1-16.6-21.3-10.1c-2.2,2.8,3.9,4.7,5.5,5.2
			c3,1.1,6.1,1.9,9,3c1.8,0.6,4.5,1.5,5.9,3c0.3,0.4,0.6,0.8,0.8,1.2c0.2,0.4,0.6,0.4,0.9,0.2C29.9,513.3,30.1,512.9,29.9,512.5z
			 M21.7,507.4c-4-1.5-9.5-2.2-12.9-4.9c-2-1.6,2.9-2.3,3.8-2.1c2.3,0.5,4.5,1.9,6.4,3.3c2,1.4,4,3,5.9,4.9
			C23.8,508.1,22.6,507.7,21.7,507.4z"/>
		<path class="st0" d="M48.5,528.2c3.8-9.1-11.4-16.6-18.4-15.6c-0.4,0.1-0.6,0.4-0.5,0.8c0,0-0.1,0-0.1,0.1l-0.1,0.2
			c-0.2,0.2-0.3,0.5-0.1,0.8C30.9,517.2,45.2,536.4,48.5,528.2z M39.7,524.8c-1.4-1.5-2.9-3-4.3-4.5c-0.6-0.7-4.9-5.7-4.8-5.8
			c0.1-0.2,0.2-0.4,0.2-0.5c6.4-0.8,16.4,4.7,16.8,11.6C47.8,532.1,41.6,526.7,39.7,524.8z"/>
		<path class="st0" d="M32.3,527.8c1.2-4.2,1.3-11-1.9-14.5c0-0.6-0.2-1.1-0.5-1.6c-0.4-0.8-1.6-0.1-1.2,0.7
			c0.1,0.2,0.2,0.4,0.2,0.5c-0.2,0.2-0.3,0.6,0,0.9c0,0,0,0.1,0.1,0.1c-0.1,1.4-0.8,3-1.2,4c-1,2.5-2.1,4.9-3.2,7.3
			c-0.9,2.2-3.5,7.3-0.5,8.9C28.4,536.3,31.5,530.9,32.3,527.8z M26.1,533c-2.2,0.2-2-1.8-1.6-3.4c0.9-3.6,2.8-7,4.3-10.3
			c0.5-1.1,1.1-2.6,1.5-4c2.1,3.6,1.6,9.2,0.6,12.8C30.1,530.5,28.7,532.8,26.1,533z"/>
		<path class="st0" d="M29.3,513.7c0-0.3-0.1-0.5-0.3-0.6c0.5-0.6-0.4-1.5-1-0.9c-4.5,4.7-10.3,7.6-15.2,11.8
			c-1.8,1.6-5.6,5.8-1.7,7.4c4.3,1.8,8.4-2.6,11-5.5C25,522.7,28.8,518.2,29.3,513.7z M12.6,530.5c-5.1-0.9,2.9-6.9,4.3-8
			c3.7-2.7,7.5-5,10.8-8.1c-0.7,3.4-3.5,6.8-5.5,9.3C20.2,526.2,16.3,531.1,12.6,530.5z"/>
		<path class="st0" d="M64.9,502.6c0-0.3-0.1-0.6-0.2-0.9c1.3-3.3,1.8-7.4,0.4-10.7c-1.3-3-4.9-6.2-8.5-5.2
			c-2.7,0.8-1.5,3.5-0.5,5.2c2.1,3.6,6.2,6.5,7.2,10.6c0,0,0,0,0,0.1c-0.1,0.3,0,0.5,0.2,0.7c0,0.1,0,0.2,0,0.3
			C63.7,503.4,65,503.5,64.9,502.6z M57,489.8c-0.3-0.5-0.5-1.1-0.7-1.7c-0.5-1.8,2.8-0.9,3-0.8c2,0.4,3.5,1.9,4.4,3.7
			c1.3,2.5,1.2,5.7,0.4,8.6C62.4,495.9,59,493.2,57,489.8z"/>
		<path class="st0" d="M81.5,512.9c1.4-3.3-1.9-6.7-4.4-8.3c-3.8-2.4-8.9-3.2-13.4-3.3c-0.2-0.1-0.3-0.1-0.5,0c0,0-0.1,0-0.1,0
			c-0.9,0-0.9,1.4,0,1.4c0,0,0,0,0.1,0C65.5,505.1,79.1,518.8,81.5,512.9z M72.5,509.2c-2.5-2-5-4.1-7.2-6.4
			c6,0.3,14.7,2.2,15.2,8.9C80.7,514.8,73.1,509.7,72.5,509.2z"/>
		<path class="st0" d="M64.3,502.1c-0.2-0.3-0.4-0.7-0.6-1c0.2,0,0.3,0,0.5,0c0.9,0.1,0.9-1.3,0-1.4c-0.5,0-1-0.1-1.6-0.1
			c-3.3-4.1-9.5-9.2-13.7-5.5c-1.8,1.6,1.2,3.8,2.3,4.6c3.2,2.1,6.9,2.2,10.6,2.3c0.5,0.7,0.9,1.3,1.2,1.8
			C63.6,503.6,64.8,502.9,64.3,502.1z M54.5,498.8c-0.8-0.3-6.4-3.1-3.6-4.2c3.1-1.2,7.2,2,9.9,5C58.7,499.6,56.5,499.5,54.5,498.8z
			"/>
		<path class="st0" d="M64.7,502.3c0.1-0.4-0.1-0.7-0.4-0.8c-0.2-0.3-0.3-0.5-0.5-0.8c-0.5-0.7-1.5,0.3-1,1c0.1,0.2,0.3,0.4,0.4,0.6
			c-1.5,3.7-3.8,7.3-4.3,11.3c-0.3,2,0.2,5.2,3,4.3C67.1,516.1,66.9,507,64.7,502.3z M62.7,515.7c-3.3,3.2-2.4-3.1-1.9-4.7
			c0.8-2.5,2-4.8,3.1-7.1C65.3,507.7,65.2,513.3,62.7,515.7z"/>
		<path class="st0" d="M78.4,477.5c-0.2-1.2-2-1-2.8-0.6c-1.5,0.8-2.3,2.6-3.1,4.1c0,0.1,0,0.1,0,0.1c-0.5,0.3-0.4,1.3,0.3,1.3
			c1.5-0.1,2.9-0.8,4-1.8C77.6,479.9,78.7,478.7,78.4,477.5z M74.3,480.6c0.3-0.6,0.7-1.2,1.1-1.7c0.4-0.5,0.8-0.8,1.4-0.9
			c0.1,0,0.3,0,0.4,0C76.8,479.1,75.5,480.1,74.3,480.6z"/>
		<path class="st0" d="M72.7,481.9c0-0.2-0.1-0.4-0.3-0.6c-1.8-1.4-4.2-2.5-6.5-2.2c-0.9,0.1-2.9,1.2-1.8,2.3c0.9,0.9,2.8,1.1,4,1.3
			c1.4,0.2,2.8,0.3,4.1,0.5C73.1,483.4,73.5,482.1,72.7,481.9z M66.5,481c-0.3-0.1-0.6-0.2-0.9-0.3c0.1-0.1,0.3-0.1,0.4-0.2
			c1.3-0.5,2.9,0.2,4.3,1C69,481.4,67.7,481.3,66.5,481z"/>
		<path class="st0" d="M44.9,482.8c0.1-0.3-0.1-0.8-0.5-0.9c-3.1-0.8-5.7,2.3-6.4,5c-0.1,0-0.1,0-0.2,0c-0.9,0.2-0.5,1.5,0.3,1.3
			C41.4,487.7,43.8,485.8,44.9,482.8z M39.7,486.5c0.6-1.6,1.9-3.2,3.6-3.3C42.5,484.7,41.2,485.8,39.7,486.5z"/>
		<path class="st0" d="M40,487.5c-0.4-0.1-0.7-0.1-1.1,0c0,0,0-0.1-0.1-0.1c-1.5-1.1-3.4-1.5-5.2-1.2c-0.9,0.2-3.5,0.9-2.8,2.4
			c0.6,1.2,2.5,1.3,3.7,1.3c1.8,0.1,3.3-1.4,5.1-1.1C40.5,489,40.8,487.6,40,487.5z M33.2,488.4c-0.3-0.1-0.6-0.1-0.9-0.3
			c0,0,0.1-0.1,0.2-0.1c0.4-0.2,1-0.3,1.5-0.5c1-0.2,2.1,0,3.1,0.4c-0.1,0-0.1,0-0.2,0.1C35.6,488.5,34.6,488.6,33.2,488.4z"/>
		<path class="st0" d="M47.1,490.7c-1-3.1-4.9-3-7.6-2.8c-0.3,0-0.5,0.2-0.6,0.4c-0.3-0.2-0.6-0.4-0.9-0.5c-0.8-0.4-1.5,0.7-0.7,1.2
			c2.8,1.6,5.9,3.7,9.3,2.7C46.9,491.4,47.2,491,47.1,490.7z M40.7,489.1c1.7-0.1,3.8,0,4.7,1.2C43.8,490.5,42.2,489.9,40.7,489.1z"
			/>
		<path class="st0" d="M95.2,498.9c-3.1-2.3-7.6,0.4-9.3,3.3c-0.2,0.3-0.1,0.6,0.1,0.8c0,0.4,0.3,0.8,0.8,0.6c3-0.8,6.5-1.2,8.5-3.8
			C95.7,499.5,95.5,499.1,95.2,498.9z M87.7,502.1c1.4-1.7,4-3.2,6-2.4C92.3,501.1,89.8,501.6,87.7,502.1z"/>
		<path class="st0" d="M86.7,502.6c1.1-3.3-1.7-8.1-5.5-6.7c-0.3,0.1-0.6,0.5-0.5,0.8c0.8,2.7,3.1,4.2,4.8,6.1
			c0.2,0.3,0.5,0.3,0.8,0.1C86.5,503,86.7,502.8,86.7,502.6z M85.6,500.9c-1.2-1.2-2.6-2.3-3.3-3.9C84.2,497,85.5,499,85.6,500.9z"
			/>
		<path class="st0" d="M73.4,525.1c-2.5-3.5-7.2-0.5-9.8,1.3c-0.1,0-0.3-0.1-0.4-0.1c-0.9-0.2-1.3,1.1-0.4,1.3
			c3.6,0.8,7.8,1.4,10.5-1.7C73.5,525.7,73.6,525.4,73.4,525.1z M65.5,526.8c1.9-1.3,4.8-2.8,6.4-1.4
			C70.1,527,67.8,527.1,65.5,526.8z"/>
		<path class="st0" d="M64.2,527.5c0-0.1,0-0.2,0-0.3c0.1,0,0.1-0.1,0.2-0.1c1.5-1.5,3.5-3.6,3-5.9c-0.2-1-1.2-3.3-2.6-2.3
			c-1.1,0.7-1.3,2.7-1.5,3.9c-0.3,1.5-0.5,3.1-0.5,4.6C62.9,528.3,64.2,528.3,64.2,527.5z M65.5,520.2
			C65.5,520.2,65.5,520.2,65.5,520.2c0.2,0.3,0.4,0.7,0.5,1.1c0.5,1.4-0.6,2.8-1.7,3.9c0.1-1.4,0.4-2.8,0.8-4.1
			C65.2,520.8,65.3,520.5,65.5,520.2z"/>
		<path class="st0" d="M63.8,527.1c0.5-0.5-0.1-1.4-0.8-1.1c-0.2,0.1-0.3,0.2-0.5,0.2c-2-0.8-4.6-0.8-6.5-0.4
			c-1.2,0.3-3.9,2.1-2.6,3.7c1,1.1,3.9,0,5-0.3c1.4-0.4,2.8-0.9,4.2-1.4c0.1,0.1,0.3,0.2,0.4,0.3C63.5,528.5,64.1,527.7,63.8,527.1z
			 M54.9,528.6c-0.1,0-0.3,0-0.4,0c0,0,0,0,0-0.1c0.5-0.9,1.4-1.2,2.4-1.4c1-0.2,2.4-0.2,3.6,0.1C58.7,527.9,56.7,528.5,54.9,528.6z
			"/>
		<path class="st0" d="M13.3,491.7c0-0.4-0.3-0.7-0.7-0.7c-3.4-0.4-6.5,1.2-9.1,3.3c-0.1,0.1-0.2,0.2-0.2,0.4c0,0,0,0,0,0
			c-0.9,0-0.9,1.4,0,1.4C6.8,496,12.8,496.5,13.3,491.7z M5.2,494.7c2-1.4,4.2-2.4,6.6-2.4C11,494.6,7.8,494.7,5.2,494.7z"/>
		<path class="st0" d="M4.7,516.6c-1.4-1.1-3.4,0.8-2,1.9C4.1,519.7,6.1,517.8,4.7,516.6z"/>
		<path class="st0" d="M15.6,513c-0.5-0.5-1.5-0.6-1.9,0l-0.1,0.2c-0.5,0.6-0.6,1.4,0,2c0.5,0.5,1.5,0.6,1.9,0l0.1-0.2
			C16,514.4,16.1,513.6,15.6,513z"/>
		<path class="st0" d="M50.4,508c-1.4-1.1-3.4,0.8-2,1.9C49.8,511,51.8,509.1,50.4,508z"/>
		<path class="st0" d="M57.7,502.9l-0.2-0.1c-0.6-0.5-1.4-0.6-1.9,0c-0.5,0.5-0.6,1.5,0,1.9l0.2,0.1c0.6,0.5,1.4,0.6,1.9,0
			C58.2,504.4,58.3,503.4,57.7,502.9z"/>
		<path class="st0" d="M78.9,493.4l-0.2-0.1c-0.6-0.5-1.4-0.6-1.9,0c-0.5,0.5-0.6,1.5,0,1.9l0.2,0.1c0.6,0.5,1.4,0.6,1.9,0
			C79.3,494.9,79.5,493.9,78.9,493.4z"/>
		<path class="st0" d="M71.9,485.8c-0.3-0.4-0.9-0.5-1.3-0.4c-0.7,0.1-1.4,0.6-1.4,1.4c0,0.5,0.4,1.1,0.9,1.3c0.4,0.2,0.8,0.3,1.3,0
			c0.2-0.1,0.3-0.2,0.5-0.3C72.5,487.1,72.4,486.4,71.9,485.8z"/>
		<path class="st0" d="M54.9,518.7l-0.2-0.2c-0.6-0.5-1.4-0.6-1.9,0c-0.5,0.5-0.6,1.5,0,1.9l0.2,0.2c0.6,0.5,1.4,0.6,1.9,0
			C55.4,520.2,55.5,519.2,54.9,518.7z"/>
		<path class="st0" d="M1.5,501.3c-1.4-1.1-3.4,0.8-2,1.9C0.9,504.4,2.9,502.4,1.5,501.3z"/>
		<path class="st0" d="M-3.9,508.8c-1.4-1.1-3.4,0.8-2,1.9C-4.5,511.8-2.6,509.9-3.9,508.8z"/>
		<path class="st0" d="M4,489.5c-0.5-0.5-1.5-0.6-1.9,0l-0.1,0.2c-0.5,0.6-0.6,1.4,0,1.9c0.5,0.5,1.5,0.6,1.9,0l0.1-0.2
			C4.5,490.8,4.6,490.1,4,489.5z"/>
		<path class="st0" d="M-25.4,509.5c-1.4-1.1-3.4,0.8-2,1.9C-26,512.6-24,510.6-25.4,509.5z"/>
		<path class="st0" d="M41.8,496c-0.5-0.4-1.3-0.6-1.9-0.2c-0.5,0.3-0.9,0.9-0.7,1.5c0.1,0.3,0.2,0.6,0.5,0.8
			c0.3,0.3,0.7,0.4,1.1,0.4C42.1,498.8,43.1,496.8,41.8,496z"/>
		<path class="st0" d="M39,492l-0.2-0.1c-0.6-0.5-1.4-0.6-1.9,0c-0.5,0.5-0.6,1.5,0,1.9l0.2,0.1c0.6,0.5,1.4,0.6,1.9,0
			C39.4,493.4,39.6,492.4,39,492z"/>
	</g>
	<g>
		<path class="st0" d="M-84.7,388.1c1.4,4.5-0.5,10.6-1,15.2c-0.7,6-0.8,12.1,0.4,18c2.4,12.2,4.7,24.5,9.2,36.1
			c4.5,11.7,11.2,22.6,18.9,32.4c7.6,9.7,17.4,17,26.9,24.7c0.7,0.6-0.3,1.5-1,1c-9.9-8-19.7-15.6-27.6-25.7
			c-7.4-9.4-13.5-19.8-18.1-30.9c-4.7-11.6-7-23.9-9.4-36.1c-1.1-5.5-1.4-10.8-1-16.4c0.2-2.9,0.6-5.8,1-8.8
			c0.4-2.9,1.2-6.5,0.4-9.3C-86.3,387.6-85,387.2-84.7,388.1z"/>
		<path class="st0" d="M-45.1,456.8c0.8-0.3,1.5,0.9,0.7,1.2c-5.4,2.3-8.7,8.3-11,13.4c-2.4,5.2-4.7,12.8-2,18.3
			c0.4,0.8-0.8,1.5-1.2,0.7c-2.8-5.8-0.6-13.1,1.6-18.7C-54.8,466.1-51,459.3-45.1,456.8z"/>
		<path class="st0" d="M-52.3,428C-52.3,428-52.3,428-52.3,428C-52.3,428-52.3,428-52.3,428c0.1,0,0.1,0,0.2,0
			c0.8,0.1,0.5,1.3-0.2,1.4l-2.4,0.3c-0.4,0.1-0.6-0.2-0.6-0.5c-10.3-0.3-21.9,5.7-24.5,16.3c-0.2,0.9-1.5,0.5-1.3-0.4
			C-78.2,432.8-64,426.4-52.3,428z"/>
		<path class="st0" d="M-114.1,425.3c14.3-1,29.8,5.5,34.1,20.2c0.3,0.9-1.1,1.2-1.3,0.4c-4.1-14.1-19.1-20.1-32.8-19.2
			C-115,426.7-115,425.3-114.1,425.3z"/>
		<path class="st0" d="M-64.1,393.1c0.8,0,1,1.2,0.2,1.4c-0.5,0.1-1,0.2-1.4,0.4c-0.4,0.2-0.7-0.1-0.8-0.4c-10,0.8-17,9.9-19.9,19
			c-0.3,0.9-1.6,0.5-1.3-0.4C-84.1,402.9-75.8,392.7-64.1,393.1z"/>
		<path class="st0" d="M-106.2,391.6c9.8-0.1,17.5,12.2,20.1,20.4c0.3,0.8-1.1,1.2-1.3,0.3c-2.4-7.6-9.7-19.5-18.8-19.4
			C-107.1,392.9-107.1,391.6-106.2,391.6z"/>
		<g>
			<path class="st0" d="M-48.4,444.4c5.1,0.3,5.9,7.7,4.8,11.6c0.1,0.1,0.3,0.2,0.3,0.3c0.1,0.1,0.2,0.3,0.1,0.4
				c3.8,1,9.7,5.4,7.5,10.1c-0.7,1.5-3,1.4-4.1,0.6c-1.2-0.9-2-2.2-2.5-3.6c-0.2,0.3-0.6,0.5-1.1,0.2c-1.7-0.9-1.3-2.6-1.2-4.3
				c-1.6-0.1-0.8-1.5,0.1-2.6c-1.3,0.2-2.9,0.2-2.2-1.2c-1.5-0.7-3.2-1.2-3.1-3.2c0-0.6,0.3-0.8,0.7-0.9c-1-1.1-1.7-2.5-1.8-4
				C-51.1,446.3-50,444.3-48.4,444.4z"/>
			<path class="st0" d="M-37.1,449.9c2.3,0.4,3.6,2.2,3.5,4.4c-0.2,4.7-6.5,5.7-9.6,3.5c-0.5-0.3,0.1-1,0.5-0.7
				c2.6,1.9,7.2,1.1,8.1-2.3c0.7-2.5-1.4-3.9-3.6-4.2c-2.2-0.2-4,1.3-5.6,2.5c-0.5,0.3-1-0.4-0.5-0.7
				C-42.1,450.7-40,449.4-37.1,449.9z"/>
			<path class="st0" d="M-38.9,458.3c1.6,1.3,3.3,3,5.4,3.4c2.2,0.5,3.3-1.7,2.2-3.4c-0.8-1.1-2.5-1.1-3.7-1.4
				c-0.5-0.1-0.4-1,0.1-0.9c1.6,0.3,3.1,0.4,4.3,1.7c0.9,1.1,1,3-0.1,4c-2.8,2.6-6.6-1-8.7-2.8C-39.9,458.7-39.4,458-38.9,458.3z"/>
			<path class="st0" d="M-26.2,451.9c0.5,1.6-1.1,3.4-2.3,4.1c-1.8,1-4.2,1.2-6.2,0.8c-0.5-0.1-0.4-1,0.1-0.9
				c1.5,0.3,3.1,0.2,4.6-0.3c1.4-0.4,3.5-2,2.9-3.7c-0.4-1.2-2.7-1.1-3.6-1c-1.3,0.1-2.5,0.6-3.6,1.2c-0.5,0.3-0.8-0.5-0.3-0.8
				C-32.6,450.3-27.3,448.7-26.2,451.9z"/>
			<path class="st0" d="M-29.7,444.2c3,2.2-2.7,7-4.6,7.7c-0.5,0.2-0.8-0.6-0.3-0.8c1.6-0.6,6.3-4.3,4.4-6.3c-2-2.1-6,3.8-6.7,5.3
				c-0.2,0.5-1,0.2-0.8-0.3C-36.7,447.5-32.7,442-29.7,444.2z"/>
			<path class="st0" d="M-35.5,441.2c1.2,0.9,0.7,2.9,0.5,4.1c-0.3,1.7-0.8,4-2.4,5c-0.5,0.3-0.9-0.3-0.5-0.6
				c1.2-0.8,1.5-2.5,1.8-3.7c0.3-1.2,0.6-2.5,0.3-3.6c-0.5-1.6-2.2,0.1-2.6,0.9c-0.4,0.7-0.7,1.6-0.9,2.5c-0.4,1.6-0.3,3.1-0.6,4.7
				c-0.1,0.5-0.9,0.4-0.8-0.1c0.5-2.6,0.3-4.9,1.5-7.4C-38.5,441.7-36.8,440.2-35.5,441.2z"/>
			<path class="st0" d="M-42.3,443.1c3.4-1.3,2.6,5.8,2.3,7.3c-0.1,0.5-1,0.4-0.9-0.1c0.2-1.2,0.3-2.4,0.3-3.7
				c0-0.7-0.1-1.4-0.4-2.1c-0.4-1.1-1.5-0.7-1.9,0.1c-1.2,2.4-0.2,5.6-0.3,8.2c0,0.4-0.6,0.5-0.8,0.2l0-0.1c-0.1-0.1-0.1-0.2,0-0.3
				c0.1-1.8-0.2-3.6-0.2-5.4C-44.1,445.7-43.8,443.7-42.3,443.1z"/>
		</g>
		<g>
			<path class="st0" d="M-52.2,418.1c3.8,1.7,2.3,7.6,0.4,10.2c0.1,0.1,0.1,0.2,0.1,0.3c0,0.1,0,0.2,0,0.4c2.6,1.9,5.9,6.9,2.9,9.8
				c-1,0.9-2.7,0.3-3.3-0.7c-0.7-1-0.9-2.3-0.9-3.5c-0.3,0.2-0.6,0.2-0.9-0.2c-1.1-1.2-0.3-2.4,0.3-3.6c-1.1-0.5-0.2-1.4,0.8-2
				c-1.1-0.2-2.3-0.7-1.4-1.6c-1-1-2.1-1.8-1.5-3.3c0.2-0.5,0.5-0.5,0.8-0.5c-0.4-1.2-0.6-2.4-0.3-3.6
				C-54.8,418.7-53.4,417.5-52.2,418.1z"/>
			<path class="st0" d="M-45.1,425.4c1.6,1,2.1,2.7,1.4,4.4c-1.5,3.5-6.5,2.5-8.3-0.1c-0.3-0.4,0.3-0.7,0.6-0.4
				c1.5,2.2,5.2,2.9,6.8,0.5c1.2-1.7,0.1-3.4-1.6-4.2c-1.6-0.8-3.4-0.2-5,0.3c-0.4,0.1-0.6-0.6-0.2-0.7
				C-49.2,424.7-47.2,424.2-45.1,425.4z"/>
			<path class="st0" d="M-48.9,431.4c0.9,1.5,1.7,3.2,3.2,4.2c1.5,1,3-0.3,2.6-2c-0.3-1.1-1.6-1.6-2.4-2.1c-0.4-0.2-0.1-0.9,0.3-0.6
				c1.2,0.7,2.3,1.2,2.8,2.5c0.4,1.1-0.1,2.6-1.2,3c-2.9,1.2-4.7-2.7-5.9-4.6C-49.8,431.3-49.1,431-48.9,431.4z"/>
			<path class="st0" d="M-37.4,430c0,1.4-1.8,2.3-2.9,2.5c-1.6,0.3-3.6-0.3-4.9-1.1c-0.4-0.2,0-0.9,0.3-0.6c1.1,0.7,2.3,1,3.6,1.1
				c1.2,0.1,3.2-0.5,3.2-2c0-1-1.7-1.6-2.5-1.8c-1-0.3-2.1-0.3-3.1-0.1c-0.5,0.1-0.5-0.6,0-0.7C-41.9,427-37.3,427.3-37.4,430z"/>
			<path class="st0" d="M-37.9,423.2c1.7,2.5-4,4.6-5.7,4.6c-0.5,0-0.5-0.7,0-0.7c1.4,0,6-1.5,5.1-3.6c-1-2.2-5.6,1.2-6.6,2.2
				c-0.3,0.3-0.8-0.2-0.5-0.5C-44.1,423.7-39.6,420.6-37.9,423.2z"/>
			<path class="st0" d="M-41.5,419.3c0.7,1-0.3,2.4-0.8,3.3c-0.7,1.2-1.7,2.8-3.2,3.2c-0.4,0.1-0.6-0.5-0.2-0.6
				c1.1-0.3,1.9-1.5,2.5-2.3c0.5-0.8,1.2-1.7,1.2-2.7c0.1-1.4-1.7-0.5-2.3-0.1c-0.5,0.5-1,1.1-1.4,1.6c-0.7,1.1-1.1,2.3-1.8,3.5
				c-0.2,0.4-0.8,0.1-0.6-0.3c1.1-1.8,1.6-3.7,3.2-5.2C-43.9,418.7-42.2,418.1-41.5,419.3z"/>
			<path class="st0" d="M-47.2,418.7c3,0,0.3,5.2-0.3,6.3c-0.2,0.4-0.8,0.1-0.6-0.3c0.5-0.9,0.9-1.8,1.3-2.7
				c0.2-0.5,0.3-1.1,0.3-1.7c0-0.9-0.9-1-1.5-0.5c-1.6,1.5-1.7,4.2-2.5,6.2c-0.1,0.3-0.6,0.2-0.6-0.1l0-0.1c0-0.1,0-0.2,0.1-0.3
				c0.5-1.4,0.8-2.8,1.4-4.2C-49.3,420.3-48.5,418.7-47.2,418.7z"/>
		</g>
		<g>
			<path class="st0" d="M-106.7,403.1c-3.8-1.6-2.5-7.5-0.6-10.2c-0.1-0.1-0.1-0.2-0.1-0.3c0-0.1-0.1-0.2,0-0.4
				c-2.7-1.8-6-6.8-3-9.8c1-0.9,2.7-0.3,3.3,0.7c0.7,1,1,2.3,1,3.5c0.3-0.2,0.6-0.2,0.9,0.1c1.1,1.2,0.3,2.4-0.3,3.6
				c1.2,0.5,0.2,1.4-0.7,2c1.1,0.2,2.3,0.6,1.4,1.6c1,0.9,2.1,1.8,1.5,3.3c-0.2,0.5-0.5,0.5-0.8,0.5c0.4,1.1,0.6,2.4,0.3,3.6
				C-104.1,402.4-105.5,403.6-106.7,403.1z"/>
			<path class="st0" d="M-113.9,395.9c-1.6-0.9-2.2-2.7-1.5-4.4c1.4-3.5,6.5-2.6,8.3-0.1c0.3,0.4-0.3,0.7-0.6,0.4
				c-1.5-2.2-5.2-2.8-6.9-0.4c-1.2,1.8,0,3.4,1.6,4.2c1.6,0.8,3.4,0.1,5-0.4c0.4-0.1,0.6,0.5,0.2,0.7
				C-109.9,396.6-111.8,397.1-113.9,395.9z"/>
			<path class="st0" d="M-110.2,389.9c-0.9-1.5-1.7-3.2-3.2-4.1c-1.6-1-3,0.4-2.6,2c0.3,1.1,1.6,1.5,2.5,2c0.4,0.2,0.1,0.8-0.3,0.6
				c-1.2-0.7-2.3-1.1-2.8-2.4c-0.4-1.1,0-2.6,1.1-3c2.9-1.2,4.8,2.6,6,4.5C-109.4,389.9-110,390.2-110.2,389.9z"/>
			<path class="st0" d="M-121.7,391.4c0-1.4,1.7-2.3,2.9-2.5c1.6-0.3,3.6,0.2,5,1c0.4,0.2,0.1,0.9-0.3,0.6c-1.1-0.7-2.3-1-3.6-1
				c-1.2-0.1-3.2,0.6-3.2,2.1c0,1,1.8,1.5,2.5,1.7c1,0.3,2.1,0.2,3.1,0.1c0.5-0.1,0.5,0.6,0,0.7
				C-117.2,394.3-121.8,394.1-121.7,391.4z"/>
			<path class="st0" d="M-121.1,398.2c-1.7-2.5,4-4.7,5.6-4.7c0.5,0,0.5,0.7,0,0.7c-1.4,0-6,1.6-5,3.6c1,2.1,5.6-1.3,6.5-2.3
				c0.3-0.3,0.8,0.1,0.5,0.5C-114.9,397.6-119.4,400.7-121.1,398.2z"/>
			<path class="st0" d="M-117.5,402.1c-0.7-1,0.2-2.4,0.7-3.3c0.7-1.2,1.7-2.8,3.2-3.2c0.4-0.1,0.6,0.5,0.2,0.6
				c-1.1,0.3-1.8,1.5-2.4,2.4c-0.5,0.8-1.2,1.7-1.2,2.7c0,1.4,1.7,0.5,2.3,0c0.5-0.5,0.9-1.1,1.3-1.7c0.7-1.1,1-2.3,1.7-3.5
				c0.2-0.4,0.8-0.1,0.6,0.3c-1,1.8-1.6,3.7-3.1,5.3C-115.1,402.6-116.7,403.2-117.5,402.1z"/>
			<path class="st0" d="M-111.8,402.5c-3,0.1-0.4-5.2,0.2-6.3c0.2-0.4,0.8-0.1,0.6,0.3c-0.5,0.9-0.9,1.8-1.2,2.8
				c-0.2,0.6-0.3,1.1-0.3,1.7c0,0.9,0.9,0.9,1.5,0.4c1.6-1.5,1.7-4.3,2.4-6.2c0.1-0.3,0.6-0.2,0.6,0.1l0,0.1c0,0.1,0,0.2-0.1,0.3
				c-0.5,1.4-0.8,2.8-1.3,4.2C-109.7,400.9-110.4,402.5-111.8,402.5z"/>
		</g>
		<g>
			<path class="st0" d="M-114.7,437.1c-3.8-1.6-2.5-7.5-0.6-10.2c-0.1-0.1-0.1-0.2-0.1-0.3c0-0.1,0-0.2,0-0.4c-2.7-1.8-6-6.8-3-9.8
				c1-0.9,2.7-0.3,3.3,0.7c0.7,1,1,2.3,1,3.5c0.3-0.2,0.6-0.2,0.9,0.1c1.1,1.2,0.3,2.4-0.3,3.6c1.2,0.5,0.2,1.4-0.7,2
				c1.1,0.2,2.3,0.6,1.4,1.6c1,0.9,2.1,1.8,1.5,3.3c-0.2,0.4-0.5,0.5-0.8,0.5c0.4,1.1,0.6,2.4,0.3,3.6
				C-112.1,436.4-113.5,437.6-114.7,437.1z"/>
			<path class="st0" d="M-121.9,429.8c-1.6-0.9-2.2-2.7-1.5-4.4c1.4-3.5,6.5-2.6,8.3-0.1c0.3,0.4-0.3,0.7-0.6,0.4
				c-1.5-2.2-5.2-2.8-6.9-0.4c-1.2,1.8,0,3.4,1.6,4.2c1.6,0.8,3.4,0.1,5-0.4c0.4-0.1,0.6,0.5,0.2,0.7
				C-117.8,430.5-119.8,431-121.9,429.8z"/>
			<path class="st0" d="M-118.2,423.8c-0.9-1.5-1.7-3.2-3.2-4.1c-1.6-1-3,0.4-2.6,2c0.3,1.1,1.6,1.5,2.5,2c0.4,0.2,0.1,0.9-0.3,0.6
				c-1.2-0.7-2.3-1.1-2.8-2.5c-0.4-1.1,0-2.6,1.1-3c2.9-1.2,4.8,2.6,6,4.5C-117.4,423.8-118,424.2-118.2,423.8z"/>
			<path class="st0" d="M-129.7,425.4c0-1.4,1.7-2.3,2.9-2.5c1.6-0.3,3.6,0.2,5,1c0.4,0.2,0.1,0.9-0.3,0.6c-1.1-0.7-2.3-1-3.6-1
				c-1.2-0.1-3.2,0.6-3.2,2.1c0,1,1.8,1.5,2.5,1.7c1,0.3,2.1,0.2,3.1,0.1c0.5-0.1,0.5,0.6,0,0.7
				C-125.2,428.3-129.7,428.1-129.7,425.4z"/>
			<path class="st0" d="M-129.1,432.2c-1.7-2.5,3.9-4.7,5.6-4.7c0.5,0,0.5,0.7,0,0.7c-1.4,0-6,1.6-5,3.6c1,2.1,5.6-1.3,6.5-2.3
				c0.3-0.3,0.8,0.1,0.5,0.5C-122.8,431.6-127.3,434.7-129.1,432.2z"/>
			<path class="st0" d="M-125.4,436.1c-0.7-1,0.2-2.4,0.7-3.3c0.7-1.2,1.7-2.8,3.2-3.2c0.4-0.1,0.6,0.5,0.2,0.6
				c-1.1,0.3-1.9,1.5-2.4,2.4c-0.5,0.8-1.2,1.7-1.2,2.7c0,1.4,1.7,0.5,2.3,0c0.5-0.5,0.9-1.1,1.3-1.7c0.7-1.1,1.1-2.3,1.7-3.5
				c0.2-0.4,0.8-0.1,0.6,0.3c-1,1.9-1.6,3.7-3.1,5.3C-123,436.5-124.7,437.2-125.4,436.1z"/>
			<path class="st0" d="M-119.7,436.5c-3,0.1-0.4-5.2,0.2-6.3c0.2-0.4,0.8-0.1,0.6,0.3c-0.5,0.9-0.9,1.8-1.2,2.8
				c-0.2,0.5-0.3,1.1-0.3,1.7c0,0.9,0.9,0.9,1.5,0.4c1.6-1.5,1.7-4.3,2.4-6.2c0.1-0.3,0.6-0.2,0.6,0.1l0,0.1c0,0.1,0,0.2-0.1,0.3
				c-0.5,1.4-0.8,2.8-1.3,4.2C-117.6,434.9-118.4,436.4-119.7,436.5z"/>
		</g>
		<g>
			<path class="st0" d="M-64.7,383.4c3.8,1.7,2.3,7.6,0.4,10.2c0.1,0.1,0.1,0.2,0.1,0.3c0,0.1,0,0.3,0,0.4c2.6,1.9,5.9,6.9,2.9,9.8
				c-1,0.9-2.7,0.3-3.3-0.7c-0.7-1-0.9-2.3-0.9-3.5c-0.3,0.2-0.6,0.2-0.9-0.2c-1.1-1.2-0.3-2.4,0.3-3.6c-1.1-0.5-0.2-1.4,0.8-2
				c-1.1-0.2-2.3-0.7-1.4-1.6c-1-1-2.1-1.8-1.5-3.3c0.2-0.4,0.5-0.5,0.8-0.5c-0.4-1.2-0.6-2.4-0.3-3.6
				C-67.3,384-65.9,382.9-64.7,383.4z"/>
			<path class="st0" d="M-57.7,390.8c1.6,0.9,2.1,2.7,1.4,4.4c-1.5,3.5-6.5,2.5-8.3-0.1c-0.3-0.4,0.3-0.7,0.6-0.4
				c1.5,2.2,5.2,2.9,6.8,0.5c1.2-1.7,0.1-3.4-1.6-4.2c-1.6-0.8-3.4-0.2-5,0.3c-0.4,0.1-0.6-0.5-0.2-0.7
				C-61.7,390-59.7,389.5-57.7,390.8z"/>
			<path class="st0" d="M-61.4,396.7c0.9,1.5,1.7,3.2,3.2,4.2c1.5,1,3-0.3,2.6-2c-0.3-1.1-1.6-1.6-2.4-2.1c-0.4-0.2-0.1-0.9,0.3-0.6
				c1.2,0.7,2.3,1.2,2.8,2.5c0.4,1.1-0.1,2.6-1.2,3c-2.9,1.2-4.7-2.7-5.9-4.6C-62.3,396.7-61.7,396.3-61.4,396.7z"/>
			<path class="st0" d="M-49.9,395.4c0,1.4-1.8,2.3-2.9,2.5c-1.6,0.3-3.6-0.3-4.9-1.1c-0.4-0.2,0-0.9,0.3-0.6c1.1,0.7,2.3,1,3.6,1.1
				c1.2,0.1,3.2-0.5,3.2-2c0-1-1.7-1.6-2.5-1.8c-1-0.3-2.1-0.3-3.1-0.1c-0.5,0.1-0.5-0.6,0-0.7C-54.4,392.4-49.8,392.6-49.9,395.4z"
				/>
			<path class="st0" d="M-50.4,388.5c1.7,2.5-4,4.6-5.7,4.6c-0.5,0-0.5-0.7,0-0.7c1.4,0,6-1.5,5.1-3.6c-1-2.2-5.6,1.2-6.6,2.2
				c-0.3,0.3-0.8-0.2-0.5-0.5C-56.7,389-52.1,386-50.4,388.5z"/>
			<path class="st0" d="M-54,384.6c0.7,1-0.3,2.4-0.8,3.3c-0.7,1.2-1.7,2.8-3.2,3.2c-0.4,0.1-0.6-0.5-0.2-0.6
				c1.1-0.3,1.9-1.5,2.5-2.3c0.6-0.8,1.2-1.7,1.2-2.7c0.1-1.4-1.7-0.5-2.3-0.1c-0.5,0.5-1,1.1-1.4,1.6c-0.7,1.1-1.1,2.3-1.8,3.4
				c-0.2,0.4-0.8,0.1-0.6-0.3c1.1-1.8,1.6-3.7,3.2-5.2C-56.4,384.1-54.8,383.4-54,384.6z"/>
			<path class="st0" d="M-59.7,384.1c3,0,0.3,5.2-0.3,6.3c-0.2,0.4-0.8,0.1-0.6-0.3c0.5-0.9,0.9-1.8,1.3-2.7
				c0.2-0.5,0.3-1.1,0.3-1.7c0-0.9-0.9-1-1.5-0.5c-1.6,1.5-1.7,4.2-2.5,6.2c-0.1,0.3-0.6,0.2-0.6-0.1l0-0.1c0-0.1,0-0.2,0.1-0.3
				c0.5-1.4,0.8-2.8,1.4-4.2C-61.8,385.6-61.1,384.1-59.7,384.1z"/>
		</g>
		<g>
			<path class="st0" d="M-95.1,384.4c2.8-3.1,7.9,0,9.8,2.6c0.1-0.1,0.2-0.1,0.4,0c0.1,0,0.3,0,0.3,0.1c2.6-2,8.4-3.6,10.2,0.2
				c0.6,1.2-0.6,2.6-1.7,2.9c-1.2,0.3-2.4,0.2-3.6-0.2c0.1,0.3,0,0.6-0.4,0.8c-1.5,0.7-2.4-0.4-3.3-1.4c-0.9,0.9-1.4-0.2-1.6-1.3
				c-0.5,1-1.3,2-1.9,0.8c-1.2,0.6-2.4,1.4-3.6,0.4c-0.4-0.3-0.4-0.6-0.2-0.9c-1.2,0.1-2.4-0.2-3.5-0.8
				C-95.2,387.1-95.9,385.4-95.1,384.4z"/>
			<path class="st0" d="M-85.9,379.8c1.4-1.3,3.2-1.2,4.6,0c2.9,2.5,0.4,7-2.6,7.9c-0.4,0.1-0.6-0.6-0.2-0.7
				c2.5-0.8,4.3-4.1,2.6-6.4c-1.3-1.7-3.2-1.1-4.5,0.3c-1.2,1.3-1.2,3.2-1.3,4.9c0,0.5-0.7,0.4-0.7,0
				C-87.9,383.4-87.7,381.4-85.9,379.8z"/>
			<path class="st0" d="M-81.4,385.2c1.7-0.4,3.6-0.7,4.9-1.8c1.4-1.2,0.6-3-1.1-3.1c-1.1-0.1-2,1.1-2.7,1.7
				c-0.3,0.3-0.8-0.2-0.5-0.5c1-0.9,1.8-1.8,3.2-1.9c1.2-0.1,2.4,0.8,2.5,2c0.2,3.1-4,3.7-6.2,4.3C-81.7,386-81.9,385.3-81.4,385.2z
				"/>
			<path class="st0" d="M-79.1,373.8c1.3,0.4,1.6,2.4,1.5,3.5c-0.2,1.7-1.3,3.3-2.6,4.4c-0.3,0.3-0.8-0.2-0.5-0.5
				c1-0.8,1.7-1.9,2.1-3.1c0.4-1.1,0.5-3.2-0.9-3.7c-1-0.3-2,1.2-2.4,1.8c-0.6,0.9-0.9,1.9-1.1,2.9c-0.1,0.5-0.8,0.3-0.7-0.2
				C-83.4,377.2-81.7,372.9-79.1,373.8z"/>
			<path class="st0" d="M-85.8,372.2c2.9-0.9,3.1,5.2,2.6,6.8c-0.1,0.4-0.8,0.2-0.7-0.2c0.4-1.3,0.4-6.2-1.8-5.9
				c-2.3,0.3-0.6,5.8,0,7c0.2,0.4-0.4,0.7-0.6,0.3C-87.2,378.4-88.7,373.1-85.8,372.2z"/>
			<path class="st0" d="M-90.6,374.5c1.1-0.3,2.2,1,2.8,1.7c0.9,1,2.1,2.5,2,4c0,0.4-0.7,0.4-0.7,0c0.1-1.1-0.8-2.2-1.5-3.1
				c-0.6-0.8-1.3-1.6-2.2-2c-1.3-0.5-1,1.5-0.8,2.1c0.3,0.7,0.7,1.2,1.1,1.8c0.8,1,1.9,1.7,2.7,2.7c0.3,0.3-0.2,0.8-0.5,0.5
				c-1.4-1.6-3-2.6-4-4.6C-91.9,376.6-91.9,374.9-90.6,374.5z"/>
			<path class="st0" d="M-92.9,379.8c0.9-2.9,5.1,1.2,5.9,2.1c0.3,0.3-0.2,0.8-0.5,0.5c-0.7-0.7-1.4-1.4-2.2-2
				c-0.5-0.3-1-0.6-1.5-0.8c-0.9-0.3-1.2,0.6-0.9,1.3c0.9,2,3.5,2.9,5.1,4.2c0.2,0.2,0,0.6-0.3,0.6l-0.1,0c-0.1,0-0.2-0.1-0.2-0.1
				c-1.1-0.9-2.4-1.6-3.5-2.6C-92.1,382.3-93.3,381.1-92.9,379.8z"/>
		</g>
		<path class="st0" d="M-58.3,489.2c0,0.2,0.1,0.4,0.2,0.5c-0.8,0.3-0.4,1.5,0.4,1.3c2.9-0.6,21.2,4.7,17.9-4.1
			c-1.1-2.9-5.8-2.6-8.1-2.3c-1.8,0.3-3.9,0.7-5.8,1.5c1.4-1.6,2.8-3.1,4.5-4.5c1.4-1.3,2.8-2.6,4-4.1c1.7-2.2,2.2-5.4-1.2-6
			C-55,470-57.9,482.9-58.3,489.2z M-56.4,489.6c2.9-3.1,17.4-5.8,15.3-0.5C-42.6,493-51.7,489.8-56.4,489.6z M-54.8,479.7
			c1.2-3,4.7-9.4,9-6.6c2.5,1.7-3.1,6.4-4.4,7.5c-2.5,2.2-4.6,4.5-6.6,7.1C-56.5,485-55.8,482.2-54.8,479.7z"/>
		<path class="st0" d="M-75.4,505.8c1.2,3.1,5.5,0.2,7-0.9c2.3-1.7,4.2-4,5.9-6.2c1.1-1.4,2.2-2.8,3.2-4.2c0.3-0.4,1.5-2.5,2.2-3.4
			c0.3,0.1,0.7-0.1,0.8-0.4c0-0.1,0.2-0.2,0.3-0.3c0.3-0.4-0.1-1-0.6-1c-0.4,0-0.6,0.1-0.9,0.3c0,0-0.1-0.1-0.2-0.1
			c-4.8-1-9.9,0.9-13.4,4.5C-73.6,496.6-77,501.7-75.4,505.8z M-73.7,500.5c0.8-2.1,2-4.1,3.7-5.6c3.2-2.9,7.2-4.9,11.6-4.2
			c-0.2,0.3-0.4,0.7-0.6,1c-1.7,2.4-3.4,4.7-5.2,6.9c-2.1,2.5-4.7,5.9-8,6.9C-75.5,506.4-74.3,502.1-73.7,500.5z"/>
		<path class="st0" d="M-61.6,500.6c0.1,1.4,1.3,4.7,3.3,3.6c2-1.1,2.3-4.7,2.4-6.6c0.2-2.6,0.4-6-1-8.3c-0.5-0.8-1.7-0.1-1.2,0.7
			c0,0,0.1,0.1,0.1,0.2C-60,493-61.9,497.2-61.6,500.6z M-57.5,491.8c0.9,3.2,0.4,8-0.9,10.5c-0.5,1-1.1,0.9-1.6-0.2
			c-0.6-1.4-0.3-3.2,0.1-4.6C-59.3,495.5-58.5,493.5-57.5,491.8z"/>
		<path class="st0" d="M-80.3,447.4c-0.4,0.4-0.1,1.3,0.7,1.2c3.6-0.7,7-0.9,10.6-0.4c1.7,0.2,3.5,0.5,5.3,0.5
			c1.8-0.1,5-0.7,3.9-3.2c-1.6-3.7-6.2-6.6-10.3-6c-4.4,0.7-7.8,3.7-10.3,7.1C-80.7,446.8-80.6,447.2-80.3,447.4z M-79.2,447.1
			c2.1-2.8,5.1-5.7,8.7-6.3c2.5-0.4,5,0.3,6.8,2c0.6,0.6,4,3.7,1.7,4.2c-2.5,0.5-5.2,0-7.6-0.3C-72.8,446.2-76,446.5-79.2,447.1z"/>
		<path class="st0" d="M-80.1,448.8c0,0.4,0.2,0.7,0.6,0.6c0.5,0,0.9,0.1,1.4,0.1c2.1,0.5,4.1,2.5,5.5,3.7c2.4,2.1,4.6,4.3,7,6.4
			c1.3,1.1,5.9,5.6,7.3,2.3c3.2-7.7-12.1-12.6-19.2-13.7c-0.7-0.2-1.4-0.3-2.1-0.2C-79.9,448-80.1,448.4-80.1,448.8z M-73.5,450.5
			c2.5,0.7,4.9,1.7,7.1,2.8c2.1,1,4.4,2.2,6,4c0.6,0.7,2.4,5.3,0.1,4.4c-4.1-1.7-7.3-6.1-10.6-8.9
			C-71.7,452.1-72.6,451.3-73.5,450.5z"/>
		<path class="st0" d="M-80.9,449.6c0.3,0,0.6-0.2,0.7-0.5l0.1-0.2c0,0,0-0.1,0-0.1c0.3-0.1,0.6-0.4,0.5-0.8
			c-2.5-6.7-16.4-16.2-22.5-8.5C-107.7,446.3-84,449.5-80.9,449.6z M-99.4,439c6.2-3,15.8,3.1,18.2,9.1c-0.2,0.1-0.3,0.2-0.4,0.4
			c0,0-6.5-1.2-7.4-1.4c-2-0.5-4-1.1-6-1.6C-97.5,444.7-105.2,441.9-99.4,439z"/>
		<path class="st0" d="M-95.6,463.5c2.9,1.9,6.1-2.9,7.6-4.7c1.6-2.1,3.1-4.3,4.9-6.3c0.7-0.9,1.8-2.3,2.9-3c0,0,0.1,0,0.1,0
			c0.4,0.1,0.7-0.1,0.8-0.4c0.2,0,0.4-0.1,0.6-0.1c0.9,0,0.9-1.4,0-1.4c-0.6,0-1.1,0.1-1.6,0.4c-4.6-1.1-10.5,2.3-13.6,5.4
			C-96.2,455.6-99.5,460.9-95.6,463.5z M-93.5,454.8c2.7-2.6,7.3-5.8,11.4-5.7c-1.1,1-2.1,2.3-2.8,3.2c-2.3,2.9-4.3,6.2-7,8.7
			c-1.2,1.1-2.8,2.3-3.7,0.2C-96.6,458.9-95.3,456.6-93.5,454.8z"/>
		<path class="st0" d="M-87.4,461.3c-1.3,3.7-3.2,9.4,0.5,12.3c3.3,2.6,5.1-2.7,5.6-5c1.4-6.3,1.1-12.8,3-19c0.3-0.8-1-1.2-1.3-0.4
			c-0.2-0.1-0.4-0.1-0.6,0C-83.8,451.8-86,457.3-87.4,461.3z M-85.6,460.3c1.2-3,2.9-7.2,5.5-9.4c-1.1,4.4-1.3,8.9-1.9,13.4
			c-0.2,1.8-1.6,11.7-4.9,7.7C-89.1,469-86.7,463.2-85.6,460.3z"/>
		<path class="st0" d="M-87,413.8c0.1,0,0.2-0.1,0.3-0.1c0.2,0.1,0.5,0.1,0.7-0.2c0,0,0,0,0-0.1c4.1-1.1,8.6,1.1,12.8,1.2
			c2,0,5-0.2,4.4-3c-0.9-3.7-5.5-5.3-8.7-4.9c-3.6,0.4-7,2.8-9.2,5.5c-0.3,0.1-0.6,0.2-0.9,0.3C-88.5,413-87.8,414.1-87,413.8z
			 M-84.6,411.9c2.1-2.1,4.8-3.8,7.7-3.8c2,0,4,0.5,5.3,2c0.1,0.2,2.5,2.6,0.7,3c-0.6,0.1-1.2,0.2-1.8,0.2
			C-76.6,413.2-80.7,411.6-84.6,411.9z"/>
		<path class="st0" d="M-87,414.1C-87,414.2-87,414.2-87,414.1c0.5,0.8,1.7,0.1,1.2-0.6c0,0,0-0.1-0.1-0.1c0-0.2-0.1-0.3-0.2-0.4
			c-2.2-3.9-5.4-7.9-9.3-10.1c-2.6-1.4-7.1-2.6-9.3,0.2C-108.7,408.1-90.1,413.4-87,414.1z M-103.2,403.5c6.1-2.8,11.9,3.9,15.1,9
			c-3.1-0.9-6.1-2-9.2-3.2C-97.9,408.9-106.1,404.8-103.2,403.5z"/>
		<path class="st0" d="M-87,414.3c0.6,0,1.3,0.1,2.2,0.2c1.9,3.2,3.7,6.4,7.2,8.2c1.2,0.6,4.6,2.2,5.1-0.2c1.2-5.4-6.2-8.4-11.5-9.3
			c-0.3-0.5-0.6-0.9-0.8-1.3c-0.5-0.7-1.7,0-1.2,0.7c0.1,0.1,0.2,0.3,0.3,0.4c-0.4,0-0.8-0.1-1.2-0.1
			C-87.9,412.9-87.9,414.3-87,414.3z M-83.1,414.8c4,0.9,8.8,2.9,9.2,6.2c0.4,3-4.8-0.5-5.4-1.1C-80.9,418.5-82,416.6-83.1,414.8z"
			/>
		<path class="st0" d="M-99.6,422.7c0.5,2.9,3.5,1.7,5.2,0.5c3.3-2.4,5.3-6.1,7.8-9.3c0.3,0,0.5,0,0.7,0.1c0.9,0.1,1.2-1.2,0.4-1.3
			c-0.3,0-0.6-0.1-0.9-0.1c-0.2-0.2-0.6-0.3-0.9,0C-92.5,413-100.6,417.2-99.6,422.7z M-88.5,414.1c-1.5,2.1-2.9,4.3-4.7,6.2
			c-1.1,1.2-6.2,5-5,0.6C-97.2,417.6-92.4,414.8-88.5,414.1z"/>
		<path class="st0" d="M-74.2,391.6c-0.3,1.5-0.3,3,0.3,4.4c0.3,0.7,1.2,0.3,1.3-0.3c0,0,0.1-0.1,0.1-0.1c0.9-1.4,2.1-3,2.1-4.7
			c0-0.9-0.8-2.5-1.9-2.2C-73.5,389-74,390.5-74.2,391.6z M-72.1,390.1c0.1,0.1,0.1,0.2,0.2,0.3c0.2,0.6,0.1,1.1-0.2,1.6
			c-0.3,0.6-0.6,1.2-1,1.7C-73.2,392.5-72.9,390.8-72.1,390.1z"/>
		<path class="st0" d="M-74.3,396.8c0.9,1.1,1.6,2.3,2.5,3.3c0.8,1,1.8,2.5,3,2.9c1.5,0.4,1.4-1.9,1.1-2.7c-0.9-2.2-3-3.7-5.1-4.6
			c-0.2-0.1-0.4-0.1-0.6,0C-74,395.2-74.9,396.2-74.3,396.8z M-71.9,397.8c1.3,0.8,2.7,1.9,2.9,3.2c0,0.1,0,0.3,0.1,0.4
			c-0.2-0.2-0.5-0.4-0.7-0.7C-70.4,399.8-71.2,398.8-71.9,397.8z"/>
		<path class="st0" d="M-62.4,429c0.3,0.8,1.6,0.5,1.3-0.3c0-0.1,0-0.1,0-0.2c2.1-1.9,3.6-5.7,1.3-8c-0.3-0.3-0.7-0.3-1,0
			C-62.8,422.9-63.3,426-62.4,429z M-60.2,422.2c0.7,1.5-0.1,3.4-1.1,4.7C-61.6,425.2-61.2,423.6-60.2,422.2z"/>
		<path class="st0" d="M-63.4,428.1c1.1,1.4,0.5,3.5,1.5,5c0.6,0.9,1.6,2.6,2.9,2.6c1.6-0.1,1.1-2.7,0.7-3.6c-0.6-1.8-1.9-3.2-3.6-4
			c0,0-0.1,0-0.1,0c-0.1-0.3-0.3-0.6-0.6-0.9C-63,426.4-63.9,427.4-63.4,428.1z M-61.4,430.1c0-0.1,0-0.1,0-0.2
			c0.9,0.6,1.6,1.5,1.8,2.5c0.1,0.5,0.3,1,0.3,1.5c0,0.1,0,0.2,0,0.2c-0.3-0.2-0.5-0.4-0.7-0.7C-60.8,432.4-61.2,431.5-61.4,430.1z"
			/>
		<path class="st0" d="M-69.1,423.3c0.8,3.4,4.1,5.2,6.9,6.8c0.8,0.5,1.4-0.7,0.7-1.2c-0.3-0.2-0.6-0.4-0.9-0.5
			c0.1-0.2,0.2-0.4,0-0.7c-1.2-2.4-2.9-5.9-6.2-5.2C-69,422.5-69.2,423-69.1,423.3z M-67.5,423.8c1.5,0.2,2.6,2.1,3.3,3.5
			C-65.6,426.4-66.9,425.3-67.5,423.8z"/>
		<path class="st0" d="M-100.1,384.6c-1.3,3,0.1,6.3,0.8,9.3c0.1,0.5,0.6,0.6,1,0.4c0.3,0.1,0.6,0,0.8-0.3c1.7-2.9,1.8-8.1-1.6-9.7
			C-99.5,384.2-100,384.2-100.1,384.6z M-99.2,386c1.7,1.4,1.7,4.4,0.8,6.4C-98.9,390.4-99.7,388-99.2,386z"/>
		<path class="st0" d="M-98.5,394.1c0,0.3,0.1,0.5,0.5,0.6c2.6,0.6,5,1.9,7.7,1.3c0.4-0.1,0.6-0.5,0.5-0.8c-0.6-4-6.2-4.1-8.5-1.6
			C-98.5,393.7-98.5,393.9-98.5,394.1z M-91.3,394.8c-1.7,0.2-3.3-0.5-4.9-1C-94.6,392.9-92.1,393-91.3,394.8z"/>
		<path class="st0" d="M-112.2,416.6c-1.4,3.8,1.1,7.2,3.5,10c0.6,0.7,1.5-0.3,1-1c-0.1-0.1-0.2-0.2-0.2-0.3
			c0.4-3.2,0.7-8.8-3.6-9.2C-111.8,416.1-112.1,416.4-112.2,416.6z M-111,417.6c2,0.7,2.1,3.9,1.9,6.2
			C-110.5,422-111.6,419.9-111,417.6z"/>
		<path class="st0" d="M-108.5,426.5c1.3-0.8,2.6-1.7,3.8-2.7c0.9-0.8,2.6-1.9,2.7-3.2c0.1-1.7-2.3-1.4-3.3-1.1
			c-2.2,0.7-3.1,3.5-3.7,5.5c0,0.1,0,0.1,0,0.2c-0.1,0-0.1,0.1-0.2,0.1C-109.9,425.7-109.2,426.9-108.5,426.5z M-104,421.4
			c-1,1-2.1,1.8-3.2,2.6c0.5-1.4,1.2-3.1,2.6-3.4c0.4-0.1,0.8-0.1,1.1-0.1c0,0,0,0,0,0C-103.6,420.9-103.8,421.2-104,421.4z"/>
		<path class="st0" d="M-109,426.8c0.1,0.1,0.3,0.2,0.4,0.3c0.1,1.5,0.4,2.9,0.7,4.3c0.2,1.1,0.7,4.2,2.2,4.5c2,0.4,2.3-2.9,1.9-4.1
			c-0.5-1.9-1.8-4.2-3.5-5.5c0-0.2,0-0.4,0-0.5c0-0.8-1.2-0.9-1.3-0.2C-109.3,425.5-109.7,426.4-109,426.8z M-107.1,428.3
			c0.8,1,1.5,2.2,1.8,3.2c0.3,0.9,0.5,1.9-0.1,2.8c0,0,0,0,0,0.1c-0.1-0.1-0.2-0.2-0.2-0.4C-106.4,432.4-106.9,430.3-107.1,428.3z"
			/>
		<path class="st0" d="M-52,463.4c0.4,0.8,1.6,0.1,1.2-0.7c0,0,0,0,0,0c0.1-0.1,0.2-0.2,0.2-0.4c0.5-3.3,0.4-6.8-1.6-9.6
			c-0.2-0.3-0.6-0.5-0.9-0.3C-57.2,455.3-53.8,460.3-52,463.4z M-53,454.1c1.2,2.1,1.4,4.5,1.1,6.9C-53.2,458.8-54.6,455.9-53,454.1
			z"/>
		<path class="st0" d="M-70.8,472.1c1.6,0.7,0.9,3.3-0.7,2.7C-73.2,474.1-72.5,471.5-70.8,472.1z"/>
		<path class="st0" d="M-72.9,460.8c0.7,0.2,1.2,1,1,1.7l-0.1,0.2c-0.3,0.7-0.9,1.2-1.7,1c-0.7-0.2-1.2-1-1-1.7l0.1-0.2
			C-74.3,461.1-73.7,460.6-72.9,460.8z"/>
		<path class="st0" d="M-85.4,427.9c1.6,0.7,0.9,3.3-0.7,2.7C-87.8,429.9-87,427.3-85.4,427.9z"/>
		<path class="st0" d="M-84.5,419.1l0.2,0.1c0.7,0.3,1.2,0.9,1,1.7c-0.2,0.7-1,1.3-1.7,1l-0.2-0.1c-0.7-0.3-1.2-0.9-1-1.7
			C-86,419.4-85.2,418.8-84.5,419.1z"/>
		<path class="st0" d="M-86.4,396l0.2,0.1c0.7,0.3,1.2,0.9,1,1.7c-0.2,0.7-1,1.3-1.7,1l-0.2-0.1c-0.7-0.3-1.2-0.9-1-1.7
			C-88,396.3-87.1,395.7-86.4,396z"/>
		<path class="st0" d="M-76.4,398.3c0.5,0.1,0.8,0.5,1,0.9c0.3,0.7,0.2,1.5-0.5,1.9c-0.5,0.3-1.2,0.2-1.6-0.2
			c-0.4-0.2-0.7-0.6-0.7-1.1c0-0.2,0-0.4,0.1-0.6C-77.8,398.5-77.2,398.2-76.4,398.3z"/>
		<path class="st0" d="M-97,429.2l0.3,0.1c0.7,0.3,1.2,0.9,1,1.7c-0.2,0.7-1,1.3-1.7,1l-0.3-0.1c-0.7-0.3-1.2-0.9-1-1.7
			C-98.5,429.5-97.7,428.9-97,429.2z"/>
		<path class="st0" d="M-55.9,467.5c1.6,0.7,0.9,3.3-0.7,2.7C-58.2,469.5-57.5,466.8-55.9,467.5z"/>
		<path class="st0" d="M-59.8,475.9c1.6,0.7,0.9,3.3-0.7,2.7C-62.1,477.9-61.4,475.2-59.8,475.9z"/>
		<path class="st0" d="M-46.7,459.6c0.7,0.2,1.2,1,1,1.7l-0.1,0.2c-0.3,0.7-0.9,1.2-1.7,1c-0.7-0.2-1.2-1-1-1.7l0.1-0.2
			C-48.1,459.8-47.5,459.3-46.7,459.6z"/>
		<path class="st0" d="M-50.1,495c1.6,0.7,0.9,3.3-0.7,2.7C-52.4,497-51.7,494.3-50.1,495z"/>
		<path class="st0" d="M-70.7,429.7c0.6,0.3,1.1,0.8,1.1,1.5c-0.1,0.6-0.4,1.2-1,1.3c-0.3,0.1-0.6,0.1-1,0c-0.4-0.1-0.7-0.4-0.9-0.8
			C-73.3,430.8-72.1,429-70.7,429.7z"/>
		<path class="st0" d="M-65.9,430.2l0.2,0.1c0.7,0.3,1.2,0.9,1,1.7c-0.2,0.7-1,1.3-1.7,1l-0.2-0.1c-0.7-0.3-1.2-0.9-1-1.7
			C-67.4,430.5-66.5,429.9-65.9,430.2z"/>
	</g>
</g>
<g>
	<g>
		<path class="st0" d="M427.8,485.7c4.6,1,9,5.5,12.8,8.2c4.9,3.6,10.1,6.6,16,8.4c11.9,3.8,23.7,7.7,36,9.5
			c12.4,1.8,25.2,1.2,37.6-0.8c12.2-2,23.3-7,34.7-11.5c0.8-0.3,1.2,1,0.4,1.3c-11.8,4.8-23.2,9.7-35.8,11.7
			c-11.8,1.9-23.9,2.2-35.8,0.8c-12.4-1.5-24.3-5.5-36.2-9.3c-5.3-1.7-10.1-4-14.8-7.1c-2.4-1.6-4.8-3.4-7.2-5.1
			c-2.4-1.7-5.1-4.2-8-4.8C426.6,486.8,427,485.5,427.8,485.7z"/>
		<path class="st0" d="M507.2,484.4c0.1-0.9,1.5-0.9,1.4,0c-0.6,5.8,3,11.6,6.4,16.1c3.4,4.6,8.9,10.3,15,10.6
			c0.9,0.1,0.9,1.4,0,1.4c-6.4-0.4-11.8-5.8-15.6-10.5C510.6,497.2,506.5,490.6,507.2,484.4z"/>
		<path class="st0" d="M478.5,476.7C478.5,476.7,478.5,476.6,478.5,476.7C478.5,476.6,478.5,476.6,478.5,476.7
			c0.1-0.1,0.1-0.1,0.1-0.2c0.5-0.7,1.4,0.2,1.1,0.8l-0.9,2.2c-0.2,0.4-0.5,0.4-0.8,0.3c-5.2,8.9-5.6,22,2.4,29.3
			c0.7,0.6-0.3,1.6-1,1C470.2,501.6,471.4,486.1,478.5,476.7z"/>
		<path class="st0" d="M446.1,529.4c6.1-13,19.3-23.4,34.2-20c0.9,0.2,0.5,1.5-0.3,1.3c-14.3-3.2-26.9,7-32.7,19.4
			C447,530.9,445.8,530.2,446.1,529.4z"/>
		<path class="st0" d="M442.2,470.1c0.4-0.6,1.5-0.3,1.3,0.5c-0.2,0.5-0.3,1-0.3,1.5c-0.1,0.4-0.4,0.5-0.7,0.5
			c-4.2,9.1,0.4,19.7,7,26.7c0.6,0.7-0.3,1.6-1,1C441.1,492.3,436.2,480.1,442.2,470.1z"/>
		<path class="st0" d="M420.5,506.2c4.7-8.6,19.1-9.4,27.6-7.7c0.9,0.2,0.5,1.5-0.3,1.3c-7.9-1.6-21.7-0.9-26,7.1
			C421.3,507.6,420.1,506.9,420.5,506.2z"/>
		<g>
			<path class="st0" d="M494.8,481.2c2.8-4.3,9.6-1.4,12.5,1.4c0.1-0.1,0.3-0.1,0.4-0.1c0.1,0,0.3,0,0.4,0.1
				c2.7-2.9,9.5-5.9,12.4-1.6c0.9,1.4-0.2,3.3-1.5,3.9c-1.4,0.6-2.9,0.7-4.4,0.4c0.2,0.4,0.1,0.8-0.4,1.1c-1.7,1.1-3-0.1-4.3-1.1
				c-0.9,1.3-1.7,0-2.2-1.3c-0.4,1.3-1.2,2.6-2.2,1.4c-1.3,1-2.6,2.2-4.3,1.2c-0.5-0.3-0.6-0.7-0.4-1.1c-1.5,0.3-3,0.2-4.4-0.3
				C495.1,484.4,493.9,482.5,494.8,481.2z"/>
			<path class="st0" d="M505,473.9c1.4-1.8,3.7-2.1,5.6-0.9c4,2.5,1.8,8.4-1.6,10.1c-0.5,0.2-0.8-0.6-0.3-0.8
				c2.9-1.4,4.5-5.7,1.9-8.2c-1.9-1.8-4.1-0.7-5.4,1.1c-1.3,1.8-0.8,4.1-0.6,6.1c0.1,0.6-0.8,0.7-0.9,0.1
				C503.3,478.7,503.1,476.2,505,473.9z"/>
			<path class="st0" d="M511.5,479.6c2-0.8,4.2-1.5,5.6-3.1c1.5-1.7,0.1-3.7-1.9-3.5c-1.4,0.1-2.2,1.6-3,2.6c-0.4,0.4-1-0.1-0.7-0.5
				c1-1.3,1.8-2.5,3.5-2.9c1.4-0.3,3.1,0.5,3.4,2c0.9,3.7-4.1,5.3-6.7,6.3C511.3,480.7,511,479.8,511.5,479.6z"/>
			<path class="st0" d="M512,465.4c1.6,0.3,2.4,2.6,2.5,4c0,2.1-1,4.3-2.3,5.8c-0.4,0.4-1.1-0.1-0.7-0.5c1-1.2,1.7-2.6,2-4.1
				c0.3-1.4-0.1-4-1.8-4.3c-1.2-0.2-2.2,1.8-2.6,2.7c-0.5,1.2-0.7,2.5-0.7,3.8c0,0.6-0.9,0.4-0.9-0.1
				C507.5,470.2,508.7,464.8,512,465.4z"/>
			<path class="st0" d="M503.6,464.7c3.4-1.6,4.8,5.8,4.5,7.8c-0.1,0.6-0.9,0.4-0.9-0.1c0.2-1.7-0.8-7.6-3.4-6.9
				c-2.8,0.8,0.4,7.1,1.4,8.4c0.3,0.4-0.3,1-0.7,0.5C503.1,472.4,500.2,466.3,503.6,464.7z"/>
			<path class="st0" d="M498.2,468.3c1.3-0.6,2.9,0.8,3.8,1.6c1.3,1.1,3.1,2.6,3.3,4.5c0.1,0.5-0.7,0.7-0.8,0.1
				c-0.1-1.4-1.5-2.6-2.4-3.4c-0.9-0.8-1.8-1.8-3-2c-1.7-0.3-0.9,2-0.5,2.7c0.4,0.7,1.1,1.4,1.7,2c1.2,1.1,2.6,1.8,3.9,2.8
				c0.4,0.3-0.1,1-0.5,0.7c-2-1.6-4.2-2.7-5.7-4.9C497.1,471.2,496.7,469,498.2,468.3z"/>
			<path class="st0" d="M496.5,475.2c0.5-3.6,6.4,0.5,7.6,1.5c0.4,0.4-0.1,1-0.5,0.7c-1-0.8-2-1.5-3.1-2c-0.6-0.3-1.3-0.6-2-0.7
				c-1.1-0.2-1.3,0.9-0.8,1.7c1.5,2.2,4.8,2.9,7,4.2c0.3,0.2,0.2,0.8-0.2,0.8l-0.1,0c-0.1,0-0.2,0-0.3-0.1c-1.5-0.9-3.3-1.5-4.8-2.4
				C498,478,496.3,476.8,496.5,475.2z"/>
		</g>
		<g>
			<path class="st0" d="M469.8,471.7c3.3-2.5,7.8,1.6,9.2,4.6c0.1,0,0.3,0,0.4,0c0.1,0,0.2,0.1,0.3,0.2c2.9-1.4,8.9-1.8,10,2.3
				c0.3,1.3-1.1,2.4-2.2,2.5c-1.2,0.1-2.4-0.3-3.5-0.9c0,0.3-0.1,0.6-0.6,0.7c-1.6,0.3-2.2-0.9-3-2c-1,0.7-1.3-0.5-1.3-1.6
				c-0.7,0.9-1.7,1.7-2,0.4c-1.3,0.4-2.6,0.9-3.6-0.3c-0.3-0.4-0.2-0.7,0-0.9c-1.2-0.2-2.4-0.7-3.3-1.5
				C469.1,474.3,468.8,472.5,469.8,471.7z"/>
			<path class="st0" d="M479.7,469.1c1.6-0.9,3.4-0.5,4.5,0.9c2.3,3-1,6.9-4.1,7.2c-0.5,0-0.5-0.7,0-0.7c2.6-0.2,5-3.1,3.8-5.7
				c-0.9-1.9-3-1.7-4.4-0.7c-1.5,1-1.8,2.9-2.2,4.5c-0.1,0.4-0.8,0.3-0.7-0.2C477.1,472.3,477.6,470.4,479.7,469.1z"/>
			<path class="st0" d="M483.1,475.3c1.7,0,3.6,0.1,5.2-0.8c1.6-0.9,1.1-2.8-0.5-3.2c-1.1-0.3-2.1,0.6-3,1.1
				c-0.4,0.2-0.8-0.4-0.4-0.6c1.2-0.7,2.1-1.4,3.5-1.2c1.1,0.2,2.2,1.3,2.1,2.5c-0.4,3.1-4.6,2.8-6.9,2.9
				C482.6,476,482.6,475.3,483.1,475.3z"/>
			<path class="st0" d="M487.5,464.6c1.2,0.7,1.2,2.6,0.8,3.8c-0.5,1.6-1.9,3-3.4,3.8c-0.4,0.2-0.8-0.4-0.4-0.6
				c1.1-0.6,2-1.5,2.7-2.6c0.6-1,1.1-3-0.2-3.8c-0.9-0.5-2.2,0.8-2.7,1.3c-0.7,0.7-1.2,1.7-1.6,2.7c-0.2,0.4-0.8,0.1-0.6-0.3
				C482.7,467,485.1,463.2,487.5,464.6z"/>
			<path class="st0" d="M481.3,461.7c3-0.2,2.1,5.8,1.3,7.2c-0.2,0.4-0.8,0.1-0.6-0.3c0.7-1.2,1.6-6-0.6-6.2
				c-2.4-0.2-1.7,5.5-1.3,6.8c0.1,0.4-0.5,0.6-0.7,0.2C478.7,467.4,478.2,462,481.3,461.7z"/>
			<path class="st0" d="M476.1,462.9c1.2-0.1,2,1.4,2.5,2.3c0.7,1.2,1.6,2.9,1.2,4.4c-0.1,0.4-0.8,0.3-0.6-0.1
				c0.3-1.1-0.4-2.4-0.9-3.3c-0.4-0.9-0.9-1.9-1.7-2.4c-1.2-0.7-1.3,1.3-1.2,1.9c0.1,0.7,0.5,1.4,0.8,2c0.6,1.2,1.5,2.1,2.2,3.2
				c0.2,0.4-0.3,0.8-0.6,0.4c-1.1-1.8-2.5-3.2-3-5.3C474.5,464.8,474.7,463,476.1,462.9z"/>
			<path class="st0" d="M472.9,467.7c1.4-2.6,4.7,2.2,5.4,3.3c0.2,0.4-0.4,0.8-0.6,0.4c-0.5-0.9-1.1-1.7-1.8-2.4
				c-0.4-0.4-0.8-0.8-1.3-1.1c-0.8-0.4-1.3,0.3-1.1,1.1c0.5,2.1,2.9,3.6,4.2,5.2c0.2,0.2-0.1,0.6-0.4,0.5l-0.1,0
				c-0.1,0-0.2-0.1-0.2-0.2c-0.9-1.1-2.1-2.1-3-3.2C473.2,470.3,472.2,468.9,472.9,467.7z"/>
		</g>
		<g>
			<path class="st0" d="M430.3,512.2c-3.3,2.6-7.8-1.5-9.2-4.4c-0.1,0-0.3,0-0.4,0c-0.1,0-0.2-0.1-0.3-0.2c-2.9,1.5-8.9,2-10-2.1
				c-0.4-1.3,1-2.5,2.2-2.6c1.2-0.1,2.4,0.2,3.5,0.8c0-0.3,0.1-0.6,0.6-0.7c1.6-0.4,2.3,0.9,3.1,2c1-0.8,1.3,0.5,1.4,1.6
				c0.7-0.9,1.7-1.7,2-0.5c1.3-0.4,2.6-1,3.6,0.3c0.3,0.4,0.2,0.7,0,0.9c1.2,0.2,2.4,0.6,3.3,1.5C431,509.6,431.4,511.4,430.3,512.2
				z"/>
			<path class="st0" d="M420.5,515c-1.6,1-3.4,0.6-4.5-0.8c-2.4-3,0.9-7,4-7.3c0.5-0.1,0.5,0.7,0,0.7c-2.6,0.3-5,3.2-3.7,5.8
				c1,1.9,3,1.7,4.4,0.6c1.5-1.1,1.7-2.9,2.1-4.6c0.1-0.4,0.8-0.3,0.7,0.1C423.1,511.8,422.6,513.7,420.5,515z"/>
			<path class="st0" d="M417.1,508.8c-1.7,0.1-3.6,0-5.2,0.8c-1.6,0.9-1.1,2.8,0.5,3.2c1.1,0.3,2.1-0.7,3-1.2
				c0.4-0.2,0.8,0.4,0.4,0.6c-1.1,0.7-2.1,1.5-3.5,1.3c-1.1-0.1-2.2-1.3-2.1-2.5c0.3-3.1,4.6-2.9,6.8-3
				C417.5,508.1,417.5,508.8,417.1,508.8z"/>
			<path class="st0" d="M412.8,519.6c-1.2-0.7-1.2-2.6-0.8-3.7c0.5-1.6,1.9-3,3.3-3.8c0.4-0.2,0.8,0.4,0.4,0.6
				c-1.1,0.6-2,1.6-2.6,2.6c-0.6,1-1,3.1,0.2,3.8c0.9,0.5,2.2-0.8,2.7-1.3c0.7-0.8,1.2-1.7,1.6-2.7c0.2-0.4,0.8-0.1,0.6,0.3
				C417.6,517.1,415.2,521,412.8,519.6z"/>
			<path class="st0" d="M419.1,522.4c-3,0.3-2.2-5.7-1.4-7.2c0.2-0.4,0.8-0.1,0.6,0.3c-0.6,1.2-1.5,6,0.7,6.2
				c2.4,0.2,1.6-5.5,1.2-6.8c-0.2-0.4,0.5-0.7,0.7-0.2C421.6,516.7,422.1,522.1,419.1,522.4z"/>
			<path class="st0" d="M424.2,521.1c-1.2,0.1-2-1.4-2.5-2.2c-0.7-1.2-1.7-2.9-1.3-4.3c0.1-0.4,0.7-0.3,0.6,0.1
				c-0.3,1.1,0.4,2.4,0.9,3.3c0.4,0.9,1,1.8,1.8,2.3c1.2,0.7,1.3-1.3,1.1-2c-0.1-0.7-0.5-1.3-0.8-2c-0.6-1.2-1.5-2.1-2.2-3.2
				c-0.2-0.4,0.3-0.8,0.6-0.4c1.1,1.8,2.5,3.2,3.1,5.3C425.8,519.2,425.6,521,424.2,521.1z"/>
			<path class="st0" d="M427.4,516.3c-1.4,2.6-4.8-2.1-5.4-3.2c-0.2-0.4,0.3-0.8,0.6-0.4c0.5,0.9,1.1,1.7,1.8,2.4
				c0.4,0.4,0.8,0.8,1.4,1.1c0.8,0.4,1.3-0.4,1.1-1.1c-0.5-2.1-2.9-3.5-4.3-5.1c-0.2-0.2,0.1-0.6,0.4-0.5l0.1,0
				c0.1,0,0.2,0.1,0.2,0.2c0.9,1.1,2.1,2,3,3.2C427,513.7,428,515.1,427.4,516.3z"/>
		</g>
		<g>
			<path class="st0" d="M456.2,535.6c-3.3,2.6-7.8-1.5-9.2-4.4c-0.1,0-0.3,0-0.4,0c-0.1,0-0.2-0.1-0.3-0.2c-2.9,1.5-8.9,2-10-2.1
				c-0.4-1.3,1-2.5,2.2-2.6c1.2-0.1,2.4,0.2,3.5,0.8c0-0.3,0.1-0.6,0.6-0.7c1.6-0.4,2.3,0.9,3,2c1-0.8,1.3,0.5,1.4,1.6
				c0.7-0.9,1.7-1.7,2-0.5c1.3-0.4,2.6-1,3.6,0.3c0.3,0.4,0.2,0.7,0,0.9c1.2,0.2,2.4,0.6,3.3,1.5C456.8,533,457.2,534.8,456.2,535.6
				z"/>
			<path class="st0" d="M446.4,538.4c-1.6,1-3.4,0.6-4.5-0.8c-2.4-3,0.9-7,4-7.3c0.5-0.1,0.5,0.7,0,0.7c-2.6,0.3-5,3.2-3.7,5.8
				c1,1.9,3,1.7,4.4,0.6c1.5-1.1,1.7-2.9,2.1-4.5c0.1-0.4,0.8-0.3,0.7,0.1C448.9,535.2,448.4,537.1,446.4,538.4z"/>
			<path class="st0" d="M442.9,532.3c-1.7,0.1-3.6,0-5.2,0.9c-1.6,0.9-1.1,2.8,0.5,3.2c1.1,0.3,2.1-0.7,3-1.2
				c0.4-0.2,0.8,0.4,0.4,0.6c-1.1,0.7-2.1,1.4-3.5,1.3c-1.1-0.1-2.2-1.3-2.1-2.5c0.3-3.1,4.6-2.9,6.8-3
				C443.3,531.5,443.4,532.2,442.9,532.3z"/>
			<path class="st0" d="M438.7,543.1c-1.2-0.7-1.2-2.6-0.8-3.7c0.5-1.6,1.9-3,3.3-3.8c0.4-0.2,0.8,0.4,0.4,0.6
				c-1.1,0.6-2,1.6-2.6,2.6c-0.6,1-1,3.1,0.2,3.8c0.9,0.5,2.2-0.8,2.7-1.3c0.7-0.8,1.2-1.7,1.6-2.7c0.2-0.4,0.8-0.1,0.6,0.3
				C443.4,540.5,441.1,544.4,438.7,543.1z"/>
			<path class="st0" d="M444.9,545.8c-3,0.3-2.2-5.7-1.4-7.2c0.2-0.4,0.8-0.1,0.6,0.3c-0.6,1.2-1.5,6,0.7,6.2
				c2.4,0.1,1.6-5.5,1.2-6.8c-0.1-0.4,0.5-0.7,0.7-0.2C447.4,540.1,448,545.5,444.9,545.8z"/>
			<path class="st0" d="M450.1,544.5c-1.2,0.1-2-1.4-2.5-2.2c-0.7-1.2-1.7-2.9-1.3-4.3c0.1-0.4,0.7-0.3,0.6,0.1
				c-0.3,1.1,0.4,2.4,0.9,3.3c0.5,0.9,1,1.8,1.8,2.3c1.2,0.7,1.3-1.3,1.1-2c-0.1-0.7-0.5-1.3-0.8-2c-0.6-1.2-1.5-2.1-2.2-3.2
				c-0.2-0.4,0.3-0.8,0.6-0.4c1.1,1.8,2.5,3.2,3.1,5.3C451.7,542.6,451.5,544.4,450.1,544.5z"/>
			<path class="st0" d="M453.2,539.7c-1.4,2.6-4.8-2.1-5.4-3.2c-0.2-0.4,0.3-0.8,0.6-0.4c0.5,0.9,1.1,1.7,1.8,2.4
				c0.4,0.4,0.8,0.8,1.3,1.1c0.8,0.4,1.3-0.4,1.1-1.1c-0.5-2.1-2.9-3.5-4.3-5.1c-0.2-0.2,0.1-0.6,0.4-0.5l0.1,0
				c0.1,0,0.2,0.1,0.2,0.2c0.9,1.1,2.1,2,3,3.2C452.9,537.1,453.9,538.5,453.2,539.7z"/>
		</g>
		<g>
			<path class="st0" d="M433.5,465.9c3.3-2.5,7.8,1.6,9.2,4.6c0.1,0,0.3,0,0.4,0c0.1,0,0.2,0.1,0.3,0.2c2.9-1.4,8.9-1.8,10,2.3
				c0.3,1.3-1.1,2.4-2.2,2.5c-1.2,0.1-2.4-0.3-3.5-0.9c0,0.3-0.1,0.6-0.6,0.7c-1.6,0.3-2.2-0.9-3-2c-1,0.7-1.3-0.5-1.3-1.6
				c-0.7,0.9-1.7,1.7-2,0.4c-1.3,0.4-2.6,0.9-3.6-0.3c-0.3-0.4-0.2-0.7,0-0.9c-1.2-0.2-2.4-0.7-3.3-1.5
				C432.8,468.5,432.4,466.7,433.5,465.9z"/>
			<path class="st0" d="M443.3,463.3c1.6-0.9,3.4-0.5,4.5,0.9c2.3,3-1,6.9-4.1,7.2c-0.5,0-0.5-0.7,0-0.7c2.6-0.2,5-3.1,3.8-5.7
				c-0.9-1.9-3-1.7-4.4-0.7c-1.5,1-1.8,2.9-2.2,4.5c-0.1,0.4-0.8,0.3-0.7-0.2C440.7,466.4,441.2,464.5,443.3,463.3z"/>
			<path class="st0" d="M446.7,469.5c1.7,0,3.6,0.1,5.2-0.8c1.6-0.9,1.1-2.8-0.5-3.2c-1.1-0.3-2.1,0.6-3,1.1
				c-0.4,0.2-0.8-0.4-0.4-0.6c1.2-0.7,2.1-1.4,3.5-1.2c1.1,0.2,2.2,1.3,2.1,2.5c-0.4,3.1-4.6,2.8-6.9,2.9
				C446.3,470.2,446.2,469.5,446.7,469.5z"/>
			<path class="st0" d="M451.1,458.8c1.2,0.7,1.2,2.6,0.8,3.7c-0.5,1.6-1.9,3-3.4,3.8c-0.4,0.2-0.8-0.4-0.4-0.6
				c1.1-0.6,2-1.5,2.7-2.6c0.6-1,1.1-3.1-0.2-3.8c-0.9-0.5-2.2,0.8-2.8,1.3c-0.7,0.7-1.2,1.7-1.6,2.7c-0.2,0.4-0.8,0.1-0.6-0.3
				C446.3,461.2,448.7,457.4,451.1,458.8z"/>
			<path class="st0" d="M444.9,455.9c3-0.2,2.1,5.8,1.3,7.2c-0.2,0.4-0.8,0.1-0.6-0.3c0.7-1.2,1.6-6-0.6-6.2
				c-2.4-0.2-1.7,5.5-1.3,6.8c0.1,0.4-0.5,0.6-0.7,0.2C442.3,461.6,441.8,456.1,444.9,455.9z"/>
			<path class="st0" d="M439.7,457.1c1.2-0.1,2,1.4,2.5,2.3c0.7,1.2,1.6,2.9,1.2,4.4c-0.1,0.4-0.8,0.3-0.6-0.1
				c0.3-1.1-0.4-2.4-0.9-3.3c-0.4-0.9-0.9-1.9-1.7-2.4c-1.2-0.7-1.3,1.3-1.2,1.9c0.1,0.7,0.5,1.4,0.8,2c0.6,1.2,1.5,2.1,2.2,3.2
				c0.2,0.4-0.3,0.8-0.6,0.4c-1.1-1.8-2.5-3.2-3-5.3C438.1,459,438.3,457.2,439.7,457.1z"/>
			<path class="st0" d="M436.5,461.8c1.4-2.6,4.7,2.2,5.4,3.3c0.2,0.4-0.4,0.8-0.6,0.4c-0.5-0.9-1.1-1.7-1.8-2.4
				c-0.4-0.4-0.8-0.8-1.3-1.1c-0.8-0.4-1.3,0.3-1.1,1.1c0.5,2.1,2.9,3.6,4.2,5.2c0.2,0.2-0.1,0.6-0.4,0.5l-0.1,0
				c-0.1,0-0.2-0.1-0.2-0.2c-0.9-1.1-2.1-2.1-3-3.2C436.8,464.4,435.8,463,436.5,461.8z"/>
		</g>
		<g>
			<path class="st0" d="M419.6,492.9c-1.4-4,3.8-6.9,7-7.3c0-0.1,0.1-0.2,0.1-0.3c0-0.1,0.1-0.2,0.3-0.2c-0.5-3.2,0.9-9.1,5.1-8.8
				c1.3,0.1,2,1.8,1.7,2.9c-0.3,1.2-1,2.2-1.9,3.1c0.3,0.1,0.6,0.3,0.5,0.8c-0.1,1.6-1.5,1.9-2.8,2.2c0.4,1.2-0.9,1.1-1.9,0.8
				c0.6,0.9,1.1,2.1-0.2,2.1c0,1.4,0.1,2.8-1.4,3.3c-0.4,0.2-0.7,0-0.9-0.3c-0.5,1.1-1.3,2.1-2.4,2.7
				C421.9,494.4,420.1,494.2,419.6,492.9z"/>
			<path class="st0" d="M420.1,482.7c-0.4-1.8,0.5-3.4,2.2-4c3.5-1.3,6.3,3.1,5.7,6.1c-0.1,0.4-0.8,0.3-0.7-0.2
				c0.6-2.6-1.5-5.8-4.3-5.4c-2.1,0.3-2.5,2.3-1.9,4c0.6,1.7,2.2,2.6,3.7,3.5c0.4,0.2,0,0.8-0.3,0.6
				C422.3,486.2,420.6,485.1,420.1,482.7z"/>
			<path class="st0" d="M426.9,481.4c0.5-1.7,1.1-3.4,0.8-5.2c-0.3-1.8-2.3-1.9-3.2-0.5c-0.6,0.9,0,2.2,0.2,3.2
				c0.1,0.4-0.6,0.6-0.7,0.2c-0.3-1.3-0.7-2.5-0.1-3.8c0.5-1,1.9-1.7,3-1.2c2.8,1.3,1.3,5.3,0.7,7.5
				C427.5,482,426.8,481.8,426.9,481.4z"/>
			<path class="st0" d="M418,473.9c1-0.9,2.9-0.3,3.8,0.4c1.3,1,2.3,2.8,2.6,4.4c0.1,0.4-0.6,0.6-0.7,0.2c-0.2-1.2-0.9-2.4-1.7-3.4
				c-0.8-0.9-2.6-2-3.7-1c-0.8,0.7,0.1,2.4,0.4,3c0.5,0.9,1.2,1.7,2.1,2.4c0.4,0.3-0.1,0.8-0.5,0.5C419,479.2,416,475.7,418,473.9z"
				/>
			<path class="st0" d="M413.5,478.9c0.7-3,6.1-0.2,7.2,1c0.3,0.3-0.2,0.8-0.5,0.5c-1-1-5.2-3.3-6.1-1.3c-0.9,2.2,4.7,3.3,6.1,3.3
				c0.5,0,0.5,0.7,0,0.7C418.1,483.1,412.8,481.9,413.5,478.9z"/>
			<path class="st0" d="M413.1,484.2c0.3-1.2,1.9-1.4,2.9-1.7c1.3-0.3,3.2-0.7,4.5,0.2c0.4,0.2,0.1,0.8-0.3,0.6
				c-1-0.6-2.4-0.4-3.4-0.2c-1,0.1-2,0.3-2.8,0.9c-1.1,0.9,0.8,1.6,1.5,1.7c0.7,0.1,1.4,0,2.1-0.1c1.3-0.2,2.4-0.8,3.7-1.1
				c0.4-0.1,0.6,0.6,0.2,0.7c-2.1,0.5-3.8,1.3-6,1.2C414.4,486.4,412.8,485.6,413.1,484.2z"/>
			<path class="st0" d="M416.6,488.8c-2.1-2.1,3.5-3.8,4.7-4.1c0.4-0.1,0.6,0.6,0.2,0.7c-1,0.2-1.9,0.5-2.8,1
				c-0.5,0.2-1,0.5-1.4,0.9c-0.7,0.6-0.1,1.3,0.7,1.4c2.2,0.2,4.3-1.6,6.2-2.4c0.3-0.1,0.6,0.3,0.4,0.5l0,0
				c-0.1,0.1-0.2,0.1-0.2,0.1c-1.4,0.5-2.6,1.3-3.9,1.9C419.2,489.3,417.6,489.8,416.6,488.8z"/>
		</g>
		<path class="st0" d="M529.1,511.5c0.2,0.1,0.4,0.1,0.6,0.1c-0.1,0.8,1.1,1.1,1.3,0.3c0.9-2.9,14.4-16.3,5.1-17.6
			c-3-0.4-5.1,3.8-5.9,6c-0.6,1.7-1.3,3.7-1.5,5.8c-0.7-2-1.3-4-1.8-6.1c-0.4-1.9-0.9-3.7-1.7-5.5c-1.1-2.5-3.6-4.6-5.8-1.8
			C513.9,499.3,523.8,508.1,529.1,511.5z M530.3,510.1c-1.3-4.1,3.3-18,7-13.6C540,499.6,532.8,506.1,530.3,510.1z M522.5,503.8
			c-2-2.5-5.9-8.6-1.4-11c2.7-1.4,4.1,5.8,4.4,7.5c0.7,3.3,1.7,6.2,3,9.2C526.3,507.9,524.2,505.9,522.5,503.8z"/>
		<path class="st0" d="M535.3,534.5c3.2,0.5,2.9-4.7,2.6-6.6c-0.4-2.8-1.5-5.6-2.6-8.2c-0.7-1.6-1.4-3.2-2.1-4.8
			c-0.2-0.4-1.4-2.5-1.9-3.6c0.2-0.3,0.3-0.6,0-1c-0.1-0.1-0.1-0.3-0.2-0.4c-0.3-0.4-0.9-0.4-1.2,0c-0.2,0.3-0.2,0.6-0.2,0.9
			c0,0-0.1,0.1-0.1,0.1c-3.2,3.7-4,9.1-2.6,13.9C528.2,528.6,531,533.9,535.3,534.5z M531.6,530.5c-1.5-1.7-2.6-3.8-3.1-6
			c-1-4.2-0.8-8.7,2-12.1c0.2,0.3,0.4,0.7,0.6,1c1.3,2.6,2.5,5.2,3.5,8c1.2,3,2.9,7,2.1,10.3C535.9,534.9,532.6,531.7,531.6,530.5z"
			/>
		<path class="st0" d="M537.5,520c1.2,0.6,4.7,1.2,4.8-1.1c0.1-2.3-3-4.2-4.7-5.3c-2.2-1.4-5-3.2-7.8-3.1c-0.9,0-0.9,1.4,0,1.4
			c0.1,0,0.1,0,0.2,0C531.6,514.9,534.4,518.6,537.5,520z M531.8,512.1c3.2,0.8,7.2,3.5,8.7,5.8c0.6,0.9,0.2,1.4-0.9,1.3
			c-1.5-0.1-2.9-1.3-4-2.4C534.1,515.4,532.8,513.8,531.8,512.1z"/>
		<path class="st0" d="M481.9,510.5c0.1,0.6,1.1,0.7,1.3,0c1.1-3.5,2.6-6.5,4.8-9.5c1.1-1.4,2.2-2.8,3-4.4c0.8-1.6,1.8-4.7-1-4.9
			c-4-0.4-8.8,2.2-10.2,6.1c-1.5,4.1-0.5,8.6,1.2,12.5C481.2,510.6,481.6,510.6,481.9,510.5z M482.1,509.4
			c-1.4-3.2-2.5-7.3-1.3-10.7c0.9-2.4,2.7-4.2,5.1-5c0.8-0.3,5.2-1.7,4.5,0.6c-0.7,2.4-2.5,4.5-4,6.5
			C484.5,503.4,483.2,506.3,482.1,509.4z"/>
		<path class="st0" d="M483.2,511c0.3,0.2,0.7,0.2,0.9-0.2c0.2-0.4,0.5-0.8,0.8-1.2c1.5-1.6,4.2-2.4,5.9-3c3-1.1,6.1-2,9-3
			c1.6-0.6,7.8-2.4,5.5-5.2c-5.2-6.5-16.9,4.5-21.3,10.1c-0.5,0.5-0.9,1-1.2,1.7C482.7,510.5,482.9,510.8,483.2,511z M487.9,506.1
			c1.8-1.8,3.9-3.5,5.9-4.9c1.9-1.4,4.1-2.8,6.4-3.3c1-0.2,5.8,0.5,3.8,2.1c-3.4,2.7-8.9,3.5-12.9,4.9
			C490.2,505.3,489,505.7,487.9,506.1z"/>
		<path class="st0" d="M483.5,512.1c0.2-0.3,0.1-0.6-0.1-0.8l-0.1-0.2c0,0-0.1,0-0.1-0.1c0.1-0.3,0-0.7-0.5-0.8
			c-7-1.1-22.1,6.4-18.4,15.6C467.6,534,481.9,514.8,483.5,512.1z M465.3,523.2c0.4-6.9,10.3-12.4,16.8-11.6c0,0.2,0,0.4,0.2,0.5
			c0,0-4.2,5.1-4.8,5.8c-1.4,1.5-2.9,3-4.3,4.5C471.2,524.3,465,529.7,465.3,523.2z"/>
		<path class="st0" d="M488.6,531.7c3.1-1.6,0.5-6.8-0.5-8.9c-1.1-2.4-2.2-4.8-3.2-7.3c-0.4-1.1-1.1-2.6-1.2-4c0,0,0-0.1,0.1-0.1
			c0.3-0.3,0.2-0.6,0-0.9c0.1-0.2,0.1-0.4,0.2-0.5c0.4-0.8-0.8-1.4-1.2-0.7c-0.3,0.5-0.4,1-0.5,1.6c-3.2,3.5-3.1,10.3-1.9,14.5
			C481.3,528.4,484.4,533.9,488.6,531.7z M482,525.7c-1-3.6-1.6-9.2,0.6-12.8c0.3,1.5,1,2.9,1.5,4c1.4,3.4,3.4,6.8,4.3,10.3
			c0.4,1.5,0.6,3.6-1.6,3.4C484.1,530.4,482.7,528.1,482,525.7z"/>
		<path class="st0" d="M490.6,523.5c2.6,2.9,6.7,7.3,11,5.5c3.9-1.6,0.1-5.8-1.7-7.4c-4.8-4.3-10.7-7.1-15.2-11.8
			c-0.6-0.6-1.5,0.3-1,0.9c-0.2,0.1-0.3,0.3-0.3,0.6C484,515.8,487.8,520.3,490.6,523.5z M490.6,521.4c-2-2.5-4.9-6-5.5-9.3
			c3.3,3.1,7.1,5.4,10.8,8.1c1.5,1.1,9.5,7.1,4.3,8C496.5,528.7,492.6,523.8,490.6,521.4z"/>
		<path class="st0" d="M449.2,500.2c0-0.1,0-0.2,0-0.3c0.2-0.1,0.3-0.4,0.2-0.7c0,0,0,0,0-0.1c1-4.1,5.2-7,7.2-10.6
			c1-1.7,2.2-4.5-0.5-5.2c-3.6-1-7.3,2.2-8.5,5.2c-1.4,3.3-0.9,7.4,0.4,10.7c-0.1,0.3-0.1,0.6-0.2,0.9
			C447.8,501,449.1,501,449.2,500.2z M448.7,497.1c-0.8-2.8-1-6,0.4-8.6c0.9-1.8,2.3-3.3,4.4-3.7c0.2,0,3.5-1,3,0.8
			c-0.2,0.6-0.4,1.1-0.7,1.7C453.8,490.8,450.4,493.5,448.7,497.1z"/>
		<path class="st0" d="M449.5,500.3C449.6,500.3,449.6,500.3,449.5,500.3c1,0,0.9-1.4,0-1.4c0,0-0.1,0-0.1,0c-0.1-0.1-0.3-0.1-0.5,0
			c-4.5,0.1-9.6,0.9-13.4,3.3c-2.5,1.6-5.8,4.9-4.4,8.3C433.7,516.4,447.3,502.6,449.5,500.3z M432.4,509.3
			c0.5-6.7,9.2-8.6,15.2-8.9c-2.3,2.3-4.7,4.4-7.2,6.4C439.7,507.3,432.1,512.4,432.4,509.3z"/>
		<path class="st0" d="M449.7,500.4c0.3-0.5,0.7-1.1,1.2-1.8c3.7-0.2,7.4-0.2,10.6-2.3c1.1-0.7,4.1-3,2.3-4.6
			c-4.1-3.6-10.3,1.4-13.7,5.5c-0.5,0-1.1,0-1.6,0.1c-0.9,0.1-0.9,1.5,0,1.4c0.2,0,0.3,0,0.5,0c-0.2,0.4-0.5,0.7-0.6,1
			C448,500.5,449.2,501.2,449.7,500.4z M452,497.2c2.7-3.1,6.8-6.3,9.9-5c2.8,1.1-2.8,3.9-3.6,4.2
			C456.3,497.1,454.1,497.1,452,497.2z"/>
		<path class="st0" d="M450.9,515.5c2.8,1,3.2-2.2,3-4.3c-0.5-4.1-2.8-7.6-4.3-11.3c0.1-0.2,0.3-0.4,0.4-0.6c0.5-0.7-0.5-1.7-1-1
			c-0.2,0.2-0.3,0.5-0.5,0.8c-0.3,0.1-0.6,0.4-0.4,0.8C445.9,504.6,445.7,513.6,450.9,515.5z M448.8,501.6c1.1,2.4,2.3,4.6,3.1,7.1
			c0.5,1.6,1.4,7.9-1.9,4.7C447.6,510.9,447.5,505.3,448.8,501.6z"/>
		<path class="st0" d="M436,478.2c1.1,1,2.5,1.7,4,1.8c0.7,0,0.8-0.9,0.3-1.3c0,0,0-0.1,0-0.1c-0.8-1.4-1.6-3.3-3.1-4.1
			c-0.8-0.4-2.6-0.6-2.8,0.6C434.1,476.3,435.2,477.5,436,478.2z M435.7,475.6c0.1,0,0.3,0,0.4,0c0.6,0.1,1,0.4,1.4,0.9
			c0.4,0.5,0.7,1.1,1.1,1.7C437.3,477.7,436,476.7,435.7,475.6z"/>
		<path class="st0" d="M440.6,480.8c1.4-0.3,2.8-0.3,4.1-0.5c1.2-0.2,3.1-0.3,4-1.3c1.1-1.1-0.9-2.2-1.8-2.3
			c-2.3-0.3-4.7,0.8-6.5,2.2c-0.2,0.2-0.3,0.4-0.3,0.6C439.3,479.7,439.7,481,440.6,480.8z M442.6,479.1c1.3-0.8,3-1.5,4.3-1
			c0.1,0,0.3,0.1,0.4,0.2c-0.3,0.1-0.6,0.2-0.9,0.3C445.1,478.8,443.8,479,442.6,479.1z"/>
		<path class="st0" d="M474.5,485.9c0.9,0.2,1.2-1.2,0.3-1.3c-0.1,0-0.1,0-0.2,0c-0.6-2.8-3.3-5.9-6.4-5c-0.3,0.1-0.6,0.5-0.5,0.9
			C469,483.4,471.4,485.3,474.5,485.9z M469.5,480.8c1.6,0.1,2.9,1.7,3.6,3.3C471.6,483.4,470.3,482.3,469.5,480.8z"/>
		<path class="st0" d="M473.2,486.4c1.8-0.3,3.3,1.2,5.1,1.1c1.1-0.1,3.1-0.1,3.7-1.3c0.7-1.5-1.8-2.2-2.8-2.4
			c-1.8-0.3-3.7,0.1-5.2,1.2c0,0,0,0-0.1,0.1c-0.4,0-0.7,0-1.1,0C472,485.2,472.4,486.5,473.2,486.4z M475.9,485.6
			c-0.1,0-0.1,0-0.2-0.1c1-0.4,2.1-0.7,3.1-0.4c0.5,0.1,1,0.2,1.5,0.5c0.1,0.1,0.2,0.1,0.2,0.1c-0.3,0.2-0.6,0.2-0.9,0.3
			C478.2,486.2,477.2,486.1,475.9,485.6z"/>
		<path class="st0" d="M466.2,489.1c3.3,1,6.5-1.1,9.3-2.7c0.8-0.4,0-1.6-0.7-1.2c-0.3,0.2-0.6,0.4-0.9,0.5
			c-0.1-0.2-0.3-0.3-0.6-0.4c-2.7-0.1-6.6-0.3-7.6,2.8C465.6,488.6,465.9,489,466.2,489.1z M467.4,487.9c0.9-1.2,3-1.3,4.7-1.2
			C470.6,487.5,469,488.1,467.4,487.9z"/>
		<path class="st0" d="M417.3,497.4c2,2.6,5.6,3,8.5,3.8c0.5,0.1,0.8-0.3,0.8-0.6c0.2-0.2,0.3-0.5,0.1-0.8c-1.7-2.9-6.2-5.5-9.3-3.3
			C417.3,496.7,417.1,497.1,417.3,497.4z M419,497.3c2.1-0.8,4.6,0.6,6,2.4C423,499.2,420.6,498.7,419,497.3z"/>
		<path class="st0" d="M426.5,500.6c0.2,0.1,0.5,0.1,0.8-0.1c1.8-2,4.1-3.5,4.8-6.1c0.1-0.4-0.2-0.7-0.5-0.8
			c-3.8-1.4-6.6,3.4-5.5,6.7C426.1,500.4,426.3,500.6,426.5,500.6z M430.5,494.7c-0.7,1.6-2,2.7-3.3,3.9
			C427.3,496.6,428.6,494.6,430.5,494.7z"/>
		<path class="st0" d="M439.5,523.5c2.7,3.1,6.9,2.5,10.5,1.7c0.9-0.2,0.5-1.5-0.4-1.3c-0.1,0-0.3,0.1-0.4,0.1
			c-2.6-1.9-7.3-4.8-9.8-1.3C439.2,523,439.3,523.3,439.5,523.5z M441,523c1.6-1.4,4.4,0.1,6.4,1.4C445,524.7,442.7,524.6,441,523z"
			/>
		<path class="st0" d="M449.9,525c0-1.5-0.2-3.1-0.5-4.6c-0.2-1.2-0.4-3.2-1.5-3.9c-1.4-0.9-2.4,1.3-2.6,2.3c-0.5,2.3,1.6,4.4,3,5.9
			c0.1,0.1,0.1,0.1,0.2,0.1c0,0.1,0,0.2,0,0.3C448.6,525.9,450,525.9,449.9,525z M447.7,518.7c0.4,1.3,0.6,2.7,0.8,4.1
			c-1-1.1-2.1-2.5-1.7-3.9c0.1-0.3,0.3-0.7,0.5-1c0,0,0,0,0,0C447.5,518.1,447.6,518.4,447.7,518.7z"/>
		<path class="st0" d="M449.9,525.7c0.1-0.1,0.3-0.2,0.4-0.3c1.3,0.6,2.8,1,4.2,1.4c1.1,0.3,4,1.4,5,0.3c1.3-1.5-1.4-3.4-2.6-3.7
			c-1.9-0.4-4.6-0.4-6.5,0.4c-0.2-0.1-0.3-0.2-0.5-0.2c-0.7-0.4-1.3,0.6-0.8,1.1C448.7,525.3,449.3,526.1,449.9,525.7z M452.2,524.8
			c1.3-0.2,2.6-0.3,3.6-0.1c1,0.2,1.9,0.5,2.4,1.4c0,0,0,0,0,0.1c-0.1,0-0.3,0-0.4,0C456.1,526.1,454.1,525.5,452.2,524.8z"/>
		<path class="st0" d="M509.6,493.6c0.9,0,0.9-1.4,0-1.4c0,0,0,0,0,0c0-0.1-0.1-0.3-0.2-0.4c-2.6-2-5.7-3.7-9.1-3.3
			c-0.3,0-0.7,0.3-0.7,0.7C500,494.1,506,493.6,509.6,493.6z M501,489.9c2.4,0,4.6,1,6.6,2.4C505,492.3,501.8,492.2,501,489.9z"/>
		<path class="st0" d="M508.1,514.2c1.4-1.1,3.4,0.8,2,1.9C508.7,517.3,506.7,515.3,508.1,514.2z"/>
		<path class="st0" d="M497.2,510.6c0.5-0.5,1.5-0.6,1.9,0l0.1,0.2c0.5,0.6,0.6,1.4,0,2c-0.5,0.5-1.5,0.6-1.9,0l-0.1-0.2
			C496.8,511.9,496.7,511.2,497.2,510.6z"/>
		<path class="st0" d="M462.4,505.6c1.4-1.1,3.4,0.8,2,1.9C463,508.6,461,506.7,462.4,505.6z"/>
		<path class="st0" d="M455.1,500.5l0.2-0.1c0.6-0.5,1.4-0.6,1.9,0c0.5,0.5,0.6,1.5,0,1.9l-0.2,0.1c-0.6,0.5-1.4,0.6-1.9,0
			C454.6,502,454.5,501,455.1,500.5z"/>
		<path class="st0" d="M433.9,491l0.2-0.1c0.6-0.5,1.4-0.6,1.9,0c0.5,0.5,0.6,1.5,0,1.9l-0.2,0.1c-0.6,0.5-1.4,0.6-1.9,0
			C433.5,492.5,433.3,491.5,433.9,491z"/>
		<path class="st0" d="M440.9,483.3c0.3-0.4,0.9-0.5,1.3-0.4c0.7,0.1,1.4,0.6,1.4,1.4c0,0.5-0.4,1.1-0.9,1.3c-0.4,0.2-0.8,0.3-1.3,0
			c-0.2-0.1-0.3-0.2-0.5-0.3C440.3,484.7,440.4,484,440.9,483.3z"/>
		<path class="st0" d="M457.9,516.3l0.2-0.2c0.6-0.5,1.4-0.6,1.9,0c0.5,0.5,0.6,1.5,0,1.9l-0.2,0.2c-0.6,0.5-1.4,0.6-1.9,0
			C457.4,517.8,457.3,516.8,457.9,516.3z"/>
		<path class="st0" d="M511.3,498.9c1.4-1.1,3.4,0.8,2,1.9C511.9,501.9,509.9,500,511.3,498.9z"/>
		<path class="st0" d="M516.7,506.4c1.4-1.1,3.4,0.8,2,1.9C517.4,509.4,515.4,507.5,516.7,506.4z"/>
		<path class="st0" d="M508.8,487.1c0.5-0.5,1.5-0.6,1.9,0l0.1,0.2c0.5,0.6,0.6,1.4,0,1.9c-0.5,0.5-1.5,0.6-1.9,0l-0.1-0.2
			C508.4,488.4,508.2,487.6,508.8,487.1z"/>
		<path class="st0" d="M538.2,507.1c1.4-1.1,3.4,0.8,2,1.9C538.8,510.2,536.8,508.2,538.2,507.1z"/>
		<path class="st0" d="M471,493.6c0.5-0.4,1.3-0.6,1.9-0.2c0.5,0.3,0.9,0.9,0.7,1.5c-0.1,0.3-0.2,0.6-0.5,0.8
			c-0.3,0.3-0.7,0.4-1.1,0.4C470.7,496.4,469.8,494.4,471,493.6z"/>
		<path class="st0" d="M473.8,489.5l0.2-0.1c0.6-0.5,1.4-0.6,1.9,0c0.5,0.5,0.6,1.5,0,1.9l-0.2,0.1c-0.6,0.5-1.4,0.6-1.9,0
			C473.4,491,473.2,490,473.8,489.5z"/>
	</g>
	<g>
		<path class="st0" d="M597.5,385.7c-1.4,4.5,0.5,10.6,1,15.2c0.7,6,0.8,12.1-0.4,18c-2.4,12.2-4.7,24.5-9.2,36.1
			c-4.5,11.7-11.2,22.6-18.9,32.4c-7.6,9.7-17.4,17-26.9,24.7c-0.7,0.6,0.3,1.5,1,1c9.9-8,19.7-15.6,27.6-25.7
			c7.4-9.4,13.5-19.8,18.1-30.9c4.7-11.6,7-23.9,9.4-36.1c1.1-5.5,1.4-10.8,1-16.4c-0.2-2.9-0.6-5.8-1-8.8c-0.4-2.9-1.2-6.5-0.4-9.3
			C599.1,385.2,597.8,384.8,597.5,385.7z"/>
		<path class="st0" d="M558,454.4c-0.8-0.3-1.5,0.9-0.7,1.2c5.4,2.3,8.7,8.3,11,13.4c2.4,5.2,4.7,12.8,2,18.3
			c-0.4,0.8,0.8,1.5,1.2,0.7c2.8-5.8,0.6-13.1-1.6-18.7C567.6,463.7,563.8,456.9,558,454.4z"/>
		<path class="st0" d="M565.1,425.6C565.1,425.6,565.1,425.6,565.1,425.6C565.1,425.6,565.1,425.6,565.1,425.6c-0.1,0-0.1,0-0.2,0
			c-0.8,0.1-0.5,1.3,0.2,1.4l2.4,0.3c0.4,0.1,0.6-0.2,0.6-0.5c10.3-0.3,21.9,5.7,24.5,16.3c0.2,0.9,1.5,0.5,1.3-0.4
			C591,430.4,576.8,424,565.1,425.6z"/>
		<path class="st0" d="M626.9,422.9c-14.3-1-29.8,5.5-34.1,20.2c-0.3,0.9,1.1,1.2,1.3,0.4c4.1-14.1,19.1-20.1,32.8-19.2
			C627.8,424.3,627.8,422.9,626.9,422.9z"/>
		<path class="st0" d="M576.9,390.7c-0.8,0-1,1.2-0.2,1.4c0.5,0.1,1,0.2,1.4,0.4c0.4,0.2,0.7-0.1,0.8-0.4c10,0.8,17,9.9,19.9,19
			c0.3,0.9,1.6,0.5,1.3-0.4C596.9,400.5,588.6,390.3,576.9,390.7z"/>
		<path class="st0" d="M619,389.1c-9.8-0.1-17.5,12.2-20.1,20.4c-0.3,0.8,1.1,1.2,1.3,0.3c2.4-7.6,9.7-19.5,18.8-19.4
			C619.9,390.5,619.9,389.2,619,389.1z"/>
		<g>
			<path class="st0" d="M561.2,442c-5.1,0.3-5.9,7.7-4.8,11.6c-0.1,0.1-0.3,0.2-0.3,0.3c-0.1,0.1-0.2,0.3-0.1,0.4
				c-3.8,1-9.7,5.4-7.5,10.1c0.7,1.5,3,1.4,4.1,0.6c1.2-0.9,2-2.2,2.5-3.6c0.2,0.3,0.6,0.5,1.1,0.2c1.7-0.9,1.3-2.6,1.2-4.3
				c1.6-0.1,0.8-1.5-0.1-2.6c1.3,0.2,2.9,0.2,2.2-1.2c1.5-0.7,3.2-1.2,3.1-3.2c0-0.6-0.3-0.8-0.7-0.9c1-1.1,1.7-2.5,1.8-4
				C563.9,443.9,562.8,441.9,561.2,442z"/>
			<path class="st0" d="M549.9,447.5c-2.3,0.4-3.6,2.2-3.5,4.4c0.2,4.7,6.5,5.7,9.6,3.5c0.5-0.3-0.1-1-0.5-0.7
				c-2.6,1.9-7.2,1.1-8.1-2.3c-0.7-2.5,1.4-3.9,3.6-4.2c2.2-0.2,4,1.3,5.6,2.5c0.5,0.3,1-0.4,0.5-0.7
				C554.9,448.3,552.8,447,549.9,447.5z"/>
			<path class="st0" d="M551.7,455.9c-1.6,1.3-3.3,3-5.4,3.4c-2.2,0.5-3.3-1.7-2.2-3.4c0.8-1.1,2.5-1.1,3.7-1.4
				c0.5-0.1,0.4-1-0.1-0.9c-1.6,0.3-3.1,0.4-4.3,1.7c-0.9,1.1-1,3,0.1,4c2.8,2.6,6.6-1,8.7-2.8C552.7,456.2,552.2,455.6,551.7,455.9
				z"/>
			<path class="st0" d="M539,449.5c-0.5,1.6,1.1,3.4,2.3,4.1c1.8,1,4.2,1.2,6.2,0.8c0.5-0.1,0.4-1-0.1-0.9c-1.5,0.3-3.1,0.2-4.6-0.3
				c-1.4-0.4-3.5-2-2.9-3.7c0.4-1.2,2.7-1.1,3.6-1c1.3,0.1,2.5,0.6,3.6,1.2c0.5,0.3,0.8-0.5,0.3-0.8
				C545.4,447.9,540.1,446.3,539,449.5z"/>
			<path class="st0" d="M542.5,441.8c-3,2.2,2.7,7,4.6,7.7c0.5,0.2,0.8-0.6,0.3-0.8c-1.6-0.6-6.3-4.3-4.4-6.3c2-2.1,6,3.8,6.7,5.3
				c0.2,0.5,1,0.2,0.8-0.3C549.5,445.1,545.5,439.6,542.5,441.8z"/>
			<path class="st0" d="M548.3,438.8c-1.2,0.9-0.7,2.9-0.5,4.1c0.3,1.7,0.8,4,2.4,5c0.5,0.3,0.9-0.3,0.5-0.6
				c-1.2-0.8-1.5-2.5-1.8-3.7c-0.3-1.2-0.6-2.5-0.3-3.6c0.5-1.6,2.2,0.1,2.6,0.9c0.4,0.7,0.7,1.6,0.9,2.5c0.4,1.6,0.3,3.1,0.6,4.7
				c0.1,0.5,0.9,0.4,0.8-0.1c-0.5-2.6-0.3-4.9-1.5-7.4C551.3,439.3,549.6,437.8,548.3,438.8z"/>
			<path class="st0" d="M555.1,440.7c-3.4-1.3-2.6,5.8-2.3,7.3c0.1,0.5,1,0.4,0.9-0.1c-0.2-1.2-0.3-2.4-0.3-3.7
				c0-0.7,0.1-1.4,0.4-2.1c0.4-1.1,1.5-0.7,1.9,0.1c1.2,2.4,0.2,5.6,0.3,8.2c0,0.4,0.6,0.5,0.8,0.2l0-0.1c0.1-0.1,0.1-0.2,0-0.3
				c-0.1-1.8,0.2-3.6,0.2-5.4C556.9,443.3,556.6,441.3,555.1,440.7z"/>
		</g>
		<g>
			<path class="st0" d="M565,415.7c-3.8,1.7-2.3,7.6-0.4,10.2c-0.1,0.1-0.1,0.2-0.1,0.3c0,0.1,0,0.2,0,0.4c-2.6,1.9-5.9,6.9-2.9,9.8
				c1,0.9,2.7,0.3,3.3-0.7c0.7-1,0.9-2.3,0.9-3.5c0.3,0.2,0.6,0.2,0.9-0.2c1.1-1.2,0.3-2.4-0.3-3.6c1.1-0.5,0.2-1.4-0.8-2
				c1.1-0.2,2.3-0.7,1.4-1.6c1-1,2.1-1.8,1.5-3.3c-0.2-0.5-0.5-0.5-0.8-0.5c0.4-1.2,0.6-2.4,0.3-3.6
				C567.6,416.3,566.2,415.1,565,415.7z"/>
			<path class="st0" d="M558,423c-1.6,1-2.1,2.7-1.4,4.4c1.5,3.5,6.5,2.5,8.3-0.1c0.3-0.4-0.3-0.7-0.6-0.4c-1.5,2.2-5.2,2.9-6.8,0.5
				c-1.2-1.7-0.1-3.4,1.6-4.2c1.6-0.8,3.4-0.2,5,0.3c0.4,0.1,0.6-0.6,0.2-0.7C562,422.2,560,421.8,558,423z"/>
			<path class="st0" d="M561.7,429c-0.9,1.5-1.7,3.2-3.2,4.2c-1.5,1-3-0.3-2.6-2c0.3-1.1,1.6-1.6,2.4-2.1c0.4-0.2,0.1-0.9-0.3-0.6
				c-1.2,0.7-2.3,1.2-2.8,2.5c-0.4,1.1,0.1,2.6,1.2,3c2.9,1.2,4.7-2.7,5.9-4.6C562.6,428.9,562,428.6,561.7,429z"/>
			<path class="st0" d="M550.2,427.6c0,1.4,1.8,2.3,2.9,2.5c1.6,0.3,3.6-0.3,4.9-1.1c0.4-0.2,0-0.9-0.3-0.6c-1.1,0.7-2.3,1-3.6,1.1
				c-1.2,0.1-3.2-0.5-3.2-2c0-1,1.7-1.6,2.5-1.8c1-0.3,2.1-0.3,3.1-0.1c0.5,0.1,0.5-0.6,0-0.7C554.7,424.6,550.1,424.9,550.2,427.6z
				"/>
			<path class="st0" d="M550.7,420.8c-1.7,2.5,4,4.6,5.7,4.6c0.5,0,0.5-0.7,0-0.7c-1.4,0-6-1.5-5.1-3.6c1-2.2,5.6,1.2,6.6,2.2
				c0.3,0.3,0.8-0.2,0.5-0.5C557,421.3,552.4,418.2,550.7,420.8z"/>
			<path class="st0" d="M554.3,416.8c-0.7,1,0.3,2.4,0.8,3.3c0.7,1.2,1.7,2.8,3.2,3.2c0.4,0.1,0.6-0.5,0.2-0.6
				c-1.1-0.3-1.9-1.5-2.5-2.3c-0.5-0.8-1.2-1.7-1.2-2.7c-0.1-1.4,1.7-0.5,2.3-0.1c0.5,0.5,1,1.1,1.4,1.6c0.7,1.1,1.1,2.3,1.8,3.5
				c0.2,0.4,0.8,0.1,0.6-0.3c-1.1-1.8-1.6-3.7-3.2-5.2C556.7,416.3,555,415.7,554.3,416.8z"/>
			<path class="st0" d="M560,416.3c-3,0-0.3,5.2,0.3,6.3c0.2,0.4,0.8,0.1,0.6-0.3c-0.5-0.9-0.9-1.8-1.3-2.7
				c-0.2-0.5-0.3-1.1-0.3-1.7c0-0.9,0.9-1,1.5-0.5c1.6,1.5,1.7,4.2,2.5,6.2c0.1,0.3,0.6,0.2,0.6-0.1l0-0.1c0-0.1,0-0.2-0.1-0.3
				c-0.5-1.4-0.8-2.8-1.4-4.2C562.1,417.9,561.3,416.3,560,416.3z"/>
		</g>
		<g>
			<path class="st0" d="M619.5,400.7c3.8-1.6,2.5-7.5,0.6-10.2c0.1-0.1,0.1-0.2,0.1-0.3c0-0.1,0.1-0.2,0-0.4c2.7-1.8,6-6.8,3-9.8
				c-1-0.9-2.7-0.3-3.3,0.7c-0.7,1-1,2.3-1,3.5c-0.3-0.2-0.6-0.2-0.9,0.1c-1.1,1.2-0.3,2.4,0.3,3.6c-1.2,0.5-0.2,1.4,0.7,2
				c-1.1,0.2-2.3,0.6-1.4,1.6c-1,0.9-2.1,1.8-1.5,3.3c0.2,0.5,0.5,0.5,0.8,0.5c-0.4,1.1-0.6,2.4-0.3,3.6
				C616.9,400,618.3,401.2,619.5,400.7z"/>
			<path class="st0" d="M626.7,393.5c1.6-0.9,2.2-2.7,1.5-4.4c-1.4-3.5-6.5-2.6-8.3-0.1c-0.3,0.4,0.3,0.7,0.6,0.4
				c1.5-2.2,5.2-2.8,6.9-0.4c1.2,1.8,0,3.4-1.6,4.2c-1.6,0.8-3.4,0.1-5-0.4c-0.4-0.1-0.6,0.5-0.2,0.7
				C622.7,394.2,624.6,394.6,626.7,393.5z"/>
			<path class="st0" d="M623,387.5c0.9-1.5,1.7-3.2,3.2-4.1c1.6-1,3,0.4,2.6,2c-0.3,1.1-1.6,1.5-2.5,2c-0.4,0.2-0.1,0.8,0.3,0.6
				c1.2-0.7,2.3-1.1,2.8-2.4c0.4-1.1,0-2.6-1.1-3c-2.9-1.2-4.8,2.6-6,4.5C622.2,387.5,622.8,387.8,623,387.5z"/>
			<path class="st0" d="M634.5,389c0-1.4-1.7-2.3-2.9-2.5c-1.6-0.3-3.6,0.2-5,1c-0.4,0.2-0.1,0.9,0.3,0.6c1.1-0.7,2.3-1,3.6-1
				c1.2-0.1,3.2,0.6,3.2,2.1c0,1-1.8,1.5-2.5,1.7c-1,0.3-2.1,0.2-3.1,0.1c-0.5-0.1-0.5,0.6,0,0.7C630,391.9,634.6,391.7,634.5,389z"
				/>
			<path class="st0" d="M633.9,395.8c1.7-2.5-4-4.7-5.6-4.7c-0.5,0-0.5,0.7,0,0.7c1.4,0,6,1.6,5,3.6c-1,2.1-5.6-1.3-6.5-2.3
				c-0.3-0.3-0.8,0.1-0.5,0.5C627.7,395.2,632.2,398.3,633.9,395.8z"/>
			<path class="st0" d="M630.3,399.7c0.7-1-0.2-2.4-0.7-3.3c-0.7-1.2-1.7-2.8-3.2-3.2c-0.4-0.1-0.6,0.5-0.2,0.6
				c1.1,0.3,1.8,1.5,2.4,2.4c0.5,0.8,1.2,1.7,1.2,2.7c0,1.4-1.7,0.5-2.3,0c-0.5-0.5-0.9-1.1-1.3-1.7c-0.7-1.1-1-2.3-1.7-3.5
				c-0.2-0.4-0.8-0.1-0.6,0.3c1,1.8,1.6,3.7,3.1,5.3C627.9,400.2,629.5,400.8,630.3,399.7z"/>
			<path class="st0" d="M624.6,400.1c3,0.1,0.4-5.2-0.2-6.3c-0.2-0.4-0.8-0.1-0.6,0.3c0.5,0.9,0.9,1.8,1.2,2.8
				c0.2,0.6,0.3,1.1,0.3,1.7c0,0.9-0.9,0.9-1.5,0.4c-1.6-1.5-1.7-4.3-2.4-6.2c-0.1-0.3-0.6-0.2-0.6,0.1l0,0.1c0,0.1,0,0.2,0.1,0.3
				c0.5,1.4,0.8,2.8,1.3,4.2C622.5,398.5,623.2,400.1,624.6,400.1z"/>
		</g>
		<g>
			<path class="st0" d="M627.5,434.7c3.8-1.6,2.5-7.5,0.6-10.2c0.1-0.1,0.1-0.2,0.1-0.3c0-0.1,0-0.2,0-0.4c2.7-1.8,6-6.8,3-9.8
				c-1-0.9-2.7-0.3-3.3,0.7c-0.7,1-1,2.3-1,3.5c-0.3-0.2-0.6-0.2-0.9,0.1c-1.1,1.2-0.3,2.4,0.3,3.6c-1.2,0.5-0.2,1.4,0.7,2
				c-1.1,0.2-2.3,0.6-1.4,1.6c-1,0.9-2.1,1.8-1.5,3.3c0.2,0.4,0.5,0.5,0.8,0.5c-0.4,1.1-0.6,2.4-0.3,3.6
				C624.9,434,626.3,435.2,627.5,434.7z"/>
			<path class="st0" d="M634.7,427.4c1.6-0.9,2.2-2.7,1.5-4.4c-1.4-3.5-6.5-2.6-8.3-0.1c-0.3,0.4,0.3,0.7,0.6,0.4
				c1.5-2.2,5.2-2.8,6.9-0.4c1.2,1.8,0,3.4-1.6,4.2c-1.6,0.8-3.4,0.1-5-0.4c-0.4-0.1-0.6,0.5-0.2,0.7
				C630.6,428.1,632.6,428.6,634.7,427.4z"/>
			<path class="st0" d="M631,421.4c0.9-1.5,1.7-3.2,3.2-4.1c1.6-1,3,0.4,2.6,2c-0.3,1.1-1.6,1.5-2.5,2c-0.4,0.2-0.1,0.9,0.3,0.6
				c1.2-0.7,2.3-1.1,2.8-2.5c0.4-1.1,0-2.6-1.1-3c-2.9-1.2-4.8,2.6-6,4.5C630.2,421.4,630.8,421.8,631,421.4z"/>
			<path class="st0" d="M642.5,422.9c0-1.4-1.7-2.3-2.9-2.5c-1.6-0.3-3.6,0.2-5,1c-0.4,0.2-0.1,0.9,0.3,0.6c1.1-0.7,2.3-1,3.6-1
				c1.2-0.1,3.2,0.6,3.2,2.1c0,1-1.8,1.5-2.5,1.7c-1,0.3-2.1,0.2-3.1,0.1c-0.5-0.1-0.5,0.6,0,0.7C638,425.9,642.5,425.7,642.5,422.9
				z"/>
			<path class="st0" d="M641.9,429.8c1.7-2.5-3.9-4.7-5.6-4.7c-0.5,0-0.5,0.7,0,0.7c1.4,0,6,1.6,5,3.6c-1,2.1-5.6-1.3-6.5-2.3
				c-0.3-0.3-0.8,0.1-0.5,0.5C635.6,429.1,640.1,432.3,641.9,429.8z"/>
			<path class="st0" d="M638.3,433.6c0.7-1-0.2-2.4-0.7-3.3c-0.7-1.2-1.7-2.8-3.2-3.2c-0.4-0.1-0.6,0.5-0.2,0.6
				c1.1,0.3,1.9,1.5,2.4,2.4c0.5,0.8,1.2,1.7,1.2,2.7c0,1.4-1.7,0.5-2.3,0c-0.5-0.5-0.9-1.1-1.3-1.7c-0.7-1.1-1.1-2.3-1.7-3.5
				c-0.2-0.4-0.8-0.1-0.6,0.3c1,1.9,1.6,3.7,3.1,5.3C635.8,434.1,637.5,434.8,638.3,433.6z"/>
			<path class="st0" d="M632.5,434.1c3,0.1,0.4-5.2-0.2-6.3c-0.2-0.4-0.8-0.1-0.6,0.3c0.5,0.9,0.9,1.8,1.2,2.8
				c0.2,0.5,0.3,1.1,0.3,1.7c0,0.9-0.9,0.9-1.5,0.4c-1.6-1.5-1.7-4.3-2.4-6.2c-0.1-0.3-0.6-0.2-0.6,0.1l0,0.1c0,0.1,0,0.2,0.1,0.3
				c0.5,1.4,0.8,2.8,1.3,4.2C630.4,432.5,631.2,434,632.5,434.1z"/>
		</g>
		<g>
			<path class="st0" d="M577.5,381c-3.8,1.7-2.3,7.6-0.4,10.2c-0.1,0.1-0.1,0.2-0.1,0.3c0,0.1,0,0.3,0,0.4c-2.6,1.9-5.9,6.9-2.9,9.8
				c1,0.9,2.7,0.3,3.3-0.7c0.7-1,0.9-2.3,0.9-3.5c0.3,0.2,0.6,0.2,0.9-0.2c1.1-1.2,0.3-2.4-0.3-3.6c1.1-0.5,0.2-1.4-0.8-2
				c1.1-0.2,2.3-0.7,1.4-1.6c1-1,2.1-1.8,1.5-3.3c-0.2-0.4-0.5-0.5-0.8-0.5c0.4-1.2,0.6-2.4,0.3-3.6
				C580.1,381.6,578.7,380.4,577.5,381z"/>
			<path class="st0" d="M570.5,388.4c-1.6,0.9-2.1,2.7-1.4,4.4c1.5,3.5,6.5,2.5,8.3-0.1c0.3-0.4-0.3-0.7-0.6-0.4
				c-1.5,2.2-5.2,2.9-6.8,0.5c-1.2-1.7-0.1-3.4,1.6-4.2c1.6-0.8,3.4-0.2,5,0.3c0.4,0.1,0.6-0.5,0.2-0.7
				C574.5,387.6,572.6,387.1,570.5,388.4z"/>
			<path class="st0" d="M574.3,394.3c-0.9,1.5-1.7,3.2-3.2,4.2c-1.5,1-3-0.3-2.6-2c0.3-1.1,1.6-1.6,2.4-2.1c0.4-0.2,0.1-0.9-0.3-0.6
				c-1.2,0.7-2.3,1.2-2.8,2.5c-0.4,1.1,0.1,2.6,1.2,3c2.9,1.2,4.7-2.7,5.9-4.6C575.1,394.3,574.5,393.9,574.3,394.3z"/>
			<path class="st0" d="M562.7,393c0,1.4,1.8,2.3,2.9,2.5c1.6,0.3,3.6-0.3,4.9-1.1c0.4-0.2,0-0.9-0.3-0.6c-1.1,0.7-2.3,1-3.6,1.1
				c-1.2,0.1-3.2-0.5-3.2-2c0-1,1.7-1.6,2.5-1.8c1-0.3,2.1-0.3,3.1-0.1c0.5,0.1,0.5-0.6,0-0.7C567.2,390,562.6,390.2,562.7,393z"/>
			<path class="st0" d="M563.2,386.1c-1.7,2.5,4,4.6,5.7,4.6c0.5,0,0.5-0.7,0-0.7c-1.4,0-6-1.5-5.1-3.6c1-2.2,5.6,1.2,6.6,2.2
				c0.3,0.3,0.8-0.2,0.5-0.5C569.5,386.6,564.9,383.6,563.2,386.1z"/>
			<path class="st0" d="M566.8,382.2c-0.7,1,0.3,2.4,0.8,3.3c0.7,1.2,1.7,2.8,3.2,3.2c0.4,0.1,0.6-0.5,0.2-0.6
				c-1.1-0.3-1.9-1.5-2.5-2.3c-0.6-0.8-1.2-1.7-1.2-2.7c-0.1-1.4,1.7-0.5,2.3-0.1c0.5,0.5,1,1.1,1.4,1.6c0.7,1.1,1.1,2.3,1.8,3.4
				c0.2,0.4,0.8,0.1,0.6-0.3c-1.1-1.8-1.6-3.7-3.2-5.2C569.2,381.7,567.6,381,566.8,382.2z"/>
			<path class="st0" d="M572.5,381.7c-3,0-0.3,5.2,0.3,6.3c0.2,0.4,0.8,0.1,0.6-0.3c-0.5-0.9-0.9-1.8-1.3-2.7
				c-0.2-0.5-0.3-1.1-0.3-1.7c0-0.9,0.9-1,1.5-0.5c1.6,1.5,1.7,4.2,2.5,6.2c0.1,0.3,0.6,0.2,0.6-0.1l0-0.1c0-0.1,0-0.2-0.1-0.3
				c-0.5-1.4-0.8-2.8-1.4-4.2C574.6,383.2,573.9,381.7,572.5,381.7z"/>
		</g>
		<g>
			<path class="st0" d="M607.9,382c-2.8-3.1-7.9,0-9.8,2.6c-0.1-0.1-0.2-0.1-0.4,0c-0.1,0-0.3,0-0.3,0.1c-2.6-2-8.4-3.6-10.2,0.2
				c-0.6,1.2,0.6,2.6,1.7,2.9c1.2,0.3,2.4,0.2,3.6-0.2c-0.1,0.3,0,0.6,0.4,0.8c1.5,0.7,2.4-0.4,3.3-1.4c0.9,0.9,1.4-0.2,1.6-1.3
				c0.5,1,1.4,2,1.9,0.8c1.2,0.6,2.4,1.4,3.6,0.4c0.4-0.3,0.4-0.6,0.2-0.9c1.2,0.1,2.4-0.2,3.5-0.8C608,384.7,608.8,383,607.9,382z"
				/>
			<path class="st0" d="M598.7,377.4c-1.4-1.3-3.2-1.2-4.6,0c-2.9,2.5-0.4,7,2.6,7.9c0.4,0.1,0.6-0.6,0.2-0.7
				c-2.5-0.8-4.3-4.1-2.6-6.4c1.3-1.7,3.2-1.1,4.5,0.3c1.2,1.3,1.2,3.2,1.3,4.9c0,0.5,0.7,0.4,0.7,0
				C600.7,381,600.5,379,598.7,377.4z"/>
			<path class="st0" d="M594.2,382.8c-1.7-0.4-3.6-0.7-4.9-1.8c-1.4-1.2-0.6-3,1.1-3.1c1.1-0.1,2,1.1,2.7,1.7
				c0.3,0.3,0.8-0.2,0.5-0.5c-1-0.9-1.8-1.8-3.2-1.9c-1.2-0.1-2.4,0.8-2.5,2c-0.2,3.1,4,3.7,6.2,4.3
				C594.5,383.6,594.7,382.9,594.2,382.8z"/>
			<path class="st0" d="M592,371.4c-1.3,0.4-1.6,2.4-1.5,3.5c0.2,1.7,1.3,3.3,2.6,4.4c0.3,0.3,0.8-0.2,0.5-0.5
				c-1-0.8-1.7-1.9-2.1-3.1c-0.4-1.1-0.5-3.2,0.9-3.7c1-0.3,2,1.2,2.4,1.8c0.6,0.9,0.9,1.9,1.1,2.9c0.1,0.5,0.8,0.3,0.7-0.2
				C596.2,374.7,594.5,370.5,592,371.4z"/>
			<path class="st0" d="M598.6,369.8c-2.9-0.9-3.1,5.2-2.6,6.8c0.1,0.4,0.8,0.2,0.7-0.2c-0.4-1.3-0.4-6.2,1.8-5.9
				c2.3,0.3,0.6,5.8,0,7c-0.2,0.4,0.4,0.7,0.6,0.3C600,375.9,601.5,370.7,598.6,369.8z"/>
			<path class="st0" d="M603.4,372.1c-1.1-0.3-2.2,1-2.8,1.7c-0.9,1-2.1,2.5-2,4c0,0.4,0.7,0.4,0.7,0c-0.1-1.1,0.8-2.2,1.5-3.1
				c0.6-0.8,1.3-1.6,2.2-2c1.3-0.5,1,1.5,0.8,2.1c-0.3,0.7-0.7,1.2-1.1,1.8c-0.8,1-1.9,1.7-2.7,2.7c-0.3,0.3,0.2,0.8,0.5,0.5
				c1.4-1.6,3-2.6,4-4.6C604.7,374.2,604.7,372.4,603.4,372.1z"/>
			<path class="st0" d="M605.7,377.4c-0.9-2.9-5.1,1.2-5.9,2.1c-0.3,0.3,0.2,0.8,0.5,0.5c0.7-0.7,1.4-1.4,2.2-2
				c0.5-0.3,1-0.6,1.5-0.8c0.9-0.3,1.2,0.6,0.9,1.3c-0.9,2-3.5,2.9-5.1,4.2c-0.2,0.2,0,0.6,0.3,0.6l0.1,0c0.1,0,0.2-0.1,0.2-0.1
				c1.1-0.9,2.4-1.6,3.5-2.6C604.9,379.9,606.1,378.7,605.7,377.4z"/>
		</g>
		<path class="st0" d="M559.3,469c-3.5,0.6-3,3.8-1.2,6c1.2,1.5,2.6,2.9,4,4.1c1.7,1.5,3.1,2.9,4.5,4.5c-1.9-0.8-4-1.2-5.8-1.5
			c-2.3-0.3-7.1-0.6-8.1,2.3c-3.3,8.8,15,3.5,17.9,4.1c0.8,0.2,1.2-1,0.4-1.3c0.1-0.1,0.2-0.3,0.2-0.5
			C570.7,480.5,567.8,467.6,559.3,469z M553.9,486.7c-2.1-5.3,12.4-2.7,15.3,0.5C564.6,487.4,555.4,490.5,553.9,486.7z M569.6,485.3
			c-2-2.6-4.1-4.9-6.6-7.1c-1.3-1.1-6.9-5.8-4.4-7.5c4.3-2.8,7.7,3.6,9,6.6C568.6,479.8,569.3,482.6,569.6,485.3z"/>
		<path class="st0" d="M583.8,491.5c-3.4-3.5-8.5-5.5-13.4-4.5c-0.1,0-0.1,0-0.2,0.1c-0.2-0.2-0.5-0.3-0.9-0.3c-0.5,0-0.8,0.6-0.6,1
			c0.1,0.1,0.3,0.3,0.3,0.3c0.2,0.4,0.5,0.5,0.8,0.4c0.8,0.9,2,3,2.2,3.4c1,1.4,2.1,2.8,3.2,4.2c1.8,2.2,3.6,4.6,5.9,6.2
			c1.5,1.1,5.8,3.9,7,0.9C589.8,499.3,586.4,494.2,583.8,491.5z M585,503.1c-3.3-0.9-5.9-4.4-8-6.9c-1.9-2.2-3.6-4.6-5.2-6.9
			c-0.2-0.3-0.4-0.7-0.6-1c4.3-0.7,8.4,1.2,11.6,4.2c1.7,1.5,2.9,3.5,3.7,5.6C587.1,499.7,588.3,504,585,503.1z"/>
		<path class="st0" d="M570.9,487.8c0-0.1,0.1-0.1,0.1-0.2c0.5-0.8-0.7-1.4-1.2-0.7c-1.4,2.3-1.2,5.7-1,8.3c0.2,2,0.4,5.6,2.4,6.6
			c2,1.1,3.2-2.3,3.3-3.6C574.7,494.8,572.9,490.6,570.9,487.8z M572.6,495c0.4,1.4,0.8,3.2,0.1,4.6c-0.5,1.1-1.1,1.2-1.6,0.2
			c-1.3-2.5-1.8-7.2-0.9-10.5C571.3,491.1,572.1,493.1,572.6,495z"/>
		<path class="st0" d="M593.3,444.1c-2.6-3.5-6-6.5-10.3-7.1c-4.1-0.6-8.6,2.3-10.3,6c-1.1,2.6,2.1,3.2,3.9,3.2
			c1.8,0.1,3.5-0.2,5.3-0.5c3.6-0.5,7-0.3,10.6,0.4c0.7,0.2,1.1-0.8,0.7-1.2C593.4,444.8,593.5,444.4,593.3,444.1z M582.4,444.3
			c-2.5,0.4-5.2,0.9-7.6,0.3c-2.3-0.5,1.1-3.6,1.7-4.2c1.9-1.8,4.3-2.4,6.8-2c3.6,0.5,6.6,3.5,8.7,6.3
			C588.8,444.1,585.6,443.8,582.4,444.3z"/>
		<path class="st0" d="M592.2,445.7c-0.7-0.1-1.4,0-2.1,0.2c-7.1,1.1-22.3,6-19.2,13.7c1.4,3.3,6-1.2,7.3-2.3c2.4-2.1,4.6-4.4,7-6.4
			c1.4-1.2,3.5-3.2,5.5-3.7c0.5-0.1,0.9-0.1,1.4-0.1c0.5,0.1,0.7-0.3,0.6-0.6C592.9,446,592.7,445.6,592.2,445.7z M583.8,450.3
			c-3.2,2.8-6.5,7.3-10.6,8.9c-2.3,1-0.6-3.6,0.1-4.4c1.6-1.8,3.9-3,6-4c2.2-1,4.6-2,7.1-2.8C585.4,448.9,584.5,449.7,583.8,450.3z"
			/>
		<path class="st0" d="M615,437c-6.2-7.7-20,1.9-22.5,8.5c-0.2,0.4,0.1,0.7,0.5,0.8c0,0,0,0.1,0,0.1l0.1,0.2
			c0.1,0.3,0.3,0.5,0.7,0.5C596.9,447.1,620.5,443.9,615,437z M607.7,443c-2,0.5-4,1.1-6,1.6c-0.9,0.2-7.4,1.5-7.4,1.4
			c-0.1-0.2-0.2-0.3-0.4-0.4c2.4-6,12-12.1,18.2-9.1C618,439.5,610.4,442.3,607.7,443z"/>
		<path class="st0" d="M606.8,450.9c-3.1-3.1-9-6.5-13.6-5.4c-0.5-0.2-1.1-0.4-1.6-0.4c-0.9,0-0.9,1.4,0,1.4c0.2,0,0.4,0,0.6,0.1
			c0.1,0.3,0.4,0.5,0.8,0.4c0,0,0.1,0,0.1,0c1.2,0.7,2.2,2.1,2.9,3c1.7,2,3.2,4.2,4.9,6.3c1.4,1.9,4.7,6.6,7.6,4.7
			C612.3,458.5,609,453.2,606.8,450.9z M608.3,458.9c-0.9,2-2.5,0.8-3.7-0.2c-2.7-2.5-4.7-5.8-7-8.7c-0.7-1-1.7-2.2-2.8-3.2
			c4.1-0.1,8.8,3.1,11.4,5.7C608.1,454.1,609.4,456.5,608.3,458.9z"/>
		<path class="st0" d="M593,446.8c-0.2-0.2-0.4-0.1-0.6,0c-0.3-0.7-1.5-0.4-1.3,0.4c1.9,6.2,1.6,12.7,3,19c0.5,2.3,2.4,7.7,5.6,5
			c3.7-2.9,1.8-8.6,0.5-12.3C598.8,454.9,596.7,449.4,593,446.8z M599.6,469.5c-3.3,4-4.6-5.8-4.9-7.7c-0.6-4.5-0.8-9-1.9-13.4
			c2.6,2.2,4.3,6.4,5.5,9.4C599.5,460.8,601.9,466.6,599.6,469.5z"/>
		<path class="st0" d="M600.5,410.2c-0.3-0.1-0.6-0.2-0.9-0.3c-2.3-2.8-5.6-5.2-9.2-5.5c-3.2-0.3-7.9,1.3-8.7,4.9
			c-0.6,2.7,2.4,3,4.4,3c4.2-0.1,8.7-2.3,12.8-1.2c0,0,0,0,0,0.1c0.2,0.3,0.5,0.3,0.7,0.2c0.1,0,0.2,0.1,0.3,0.1
			C600.6,411.7,601.3,410.5,600.5,410.2z M585.5,410.9c-0.6,0-1.2-0.1-1.8-0.2c-1.8-0.4,0.6-2.8,0.7-3c1.4-1.6,3.3-2.1,5.3-2
			c2.9,0.1,5.6,1.8,7.7,3.8C593.5,409.2,589.4,410.8,585.5,410.9z"/>
		<path class="st0" d="M617.6,400.7c-2.2-2.8-6.8-1.6-9.3-0.2c-3.9,2.2-7.1,6.2-9.3,10.1c-0.1,0.1-0.2,0.2-0.2,0.4
			c0,0,0,0.1-0.1,0.1c-0.4,0.8,0.8,1.5,1.2,0.7c0,0,0,0,0-0.1C602.9,410.9,621.5,405.7,617.6,400.7z M610,406.8
			c-3,1.2-6,2.4-9.2,3.2c3.2-5.1,9.1-11.8,15.1-9C618.9,402.4,610.7,406.5,610,406.8z"/>
		<path class="st0" d="M599.8,410.5c-0.4,0-0.8,0-1.2,0.1c0.1-0.1,0.2-0.3,0.3-0.4c0.5-0.7-0.7-1.4-1.2-0.7
			c-0.3,0.4-0.6,0.9-0.8,1.3c-5.2,0.9-12.6,3.9-11.5,9.3c0.5,2.4,4,0.8,5.1,0.2c3.4-1.8,5.2-5,7.2-8.2c0.8-0.1,1.6-0.2,2.2-0.2
			C600.7,411.9,600.7,410.5,599.8,410.5z M592.1,417.5c-0.6,0.6-5.8,4.1-5.4,1.1c0.4-3.3,5.2-5.3,9.2-6.2
			C594.8,414.2,593.7,416.1,592.1,417.5z"/>
		<path class="st0" d="M600.1,410.3c-0.3-0.3-0.6-0.3-0.9,0c-0.3,0-0.6,0-0.9,0.1c-0.9,0.1-0.5,1.5,0.4,1.3c0.2,0,0.5-0.1,0.7-0.1
			c2.5,3.2,4.5,6.8,7.8,9.3c1.7,1.2,4.7,2.4,5.2-0.5C613.4,414.8,605.3,410.6,600.1,410.3z M611,418.5c1.2,4.4-3.9,0.6-5-0.6
			c-1.8-1.9-3.2-4.1-4.7-6.2C605.2,412.4,610.1,415.2,611,418.5z"/>
		<path class="st0" d="M585.1,386.3c-1.1-0.4-1.9,1.3-1.9,2.2c0,1.7,1.2,3.3,2.1,4.7c0,0,0.1,0.1,0.1,0.1c0.1,0.6,0.9,1,1.3,0.3
			c0.7-1.4,0.7-2.9,0.3-4.4C586.8,388.1,586.3,386.6,585.1,386.3z M585.9,391.4c-0.4-0.6-0.7-1.1-1-1.7c-0.3-0.6-0.3-1-0.2-1.6
			c0-0.1,0.1-0.2,0.2-0.3C585.7,388.4,586,390,585.9,391.4z"/>
		<path class="st0" d="M586.2,393.4c-0.2-0.1-0.4-0.1-0.6,0c-2.1,0.9-4.2,2.4-5.1,4.6c-0.3,0.8-0.4,3.1,1.1,2.7
			c1.3-0.4,2.3-1.9,3-2.9c0.9-1.1,1.6-2.3,2.5-3.3C587.7,393.8,586.8,392.8,586.2,393.4z M582.4,398.4c-0.2,0.2-0.4,0.5-0.7,0.7
			c0-0.1,0-0.3,0.1-0.4c0.2-1.3,1.6-2.5,2.9-3.2C584,396.4,583.2,397.4,582.4,398.4z"/>
		<path class="st0" d="M573.5,418.1c-0.2-0.3-0.7-0.3-1,0c-2.2,2.3-0.8,6.1,1.3,8c0,0.1,0,0.1,0,0.2c-0.3,0.8,1.1,1.2,1.3,0.3
			C576.1,423.6,575.6,420.5,573.5,418.1z M574.2,424.5c-1.1-1.3-1.9-3.2-1.1-4.7C574,421.2,574.4,422.8,574.2,424.5z"/>
		<path class="st0" d="M575.2,424.7c-0.2,0.3-0.4,0.6-0.6,0.9c0,0-0.1,0-0.1,0c-1.7,0.8-2.9,2.2-3.6,4c-0.3,0.9-0.9,3.5,0.7,3.6
			c1.3,0.1,2.3-1.6,2.9-2.6c1-1.5,0.4-3.6,1.5-5C576.7,425,575.8,424,575.2,424.7z M572.7,431.1c-0.2,0.2-0.4,0.5-0.7,0.7
			c0,0,0-0.1,0-0.2c0-0.5,0.2-1,0.3-1.5c0.3-1,1-1.9,1.8-2.5c0,0.1,0,0.1,0,0.2C574,429.1,573.6,430,572.7,431.1z"/>
		<path class="st0" d="M581.4,420.1c-3.2-0.6-5,2.8-6.2,5.2c-0.1,0.2-0.1,0.5,0,0.7c-0.3,0.2-0.6,0.4-0.9,0.5
			c-0.8,0.5-0.1,1.7,0.7,1.2c2.7-1.6,6.1-3.4,6.9-6.8C582,420.5,581.8,420.1,581.4,420.1z M577,424.9c0.8-1.5,1.8-3.3,3.3-3.5
			C579.7,422.9,578.4,424,577,424.9z"/>
		<path class="st0" d="M612,381.9c-3.5,1.6-3.3,6.8-1.6,9.7c0.2,0.3,0.5,0.4,0.8,0.3c0.4,0.2,0.8,0.1,1-0.4c0.7-3,2.1-6.3,0.8-9.3
			C612.8,381.8,612.3,381.8,612,381.9z M611.1,390c-0.8-2.1-0.9-5,0.8-6.4C612.5,385.6,611.7,388,611.1,390z"/>
		<path class="st0" d="M611.1,391.2c-2.3-2.5-7.9-2.4-8.5,1.6c-0.1,0.4,0.1,0.7,0.5,0.8c2.7,0.6,5.1-0.7,7.7-1.3
			c0.3-0.1,0.5-0.3,0.5-0.6C611.3,391.5,611.3,391.3,611.1,391.2z M609.1,391.4c-1.6,0.5-3.3,1.1-4.9,1
			C604.9,390.6,607.4,390.5,609.1,391.4z"/>
		<path class="st0" d="M624.3,413.7c-4.2,0.5-4,6-3.6,9.2c-0.1,0.1-0.2,0.2-0.2,0.3c-0.6,0.7,0.4,1.7,1,1c2.4-2.8,4.9-6.1,3.5-10
			C624.9,414,624.6,413.7,624.3,413.7z M622,421.5c-0.2-2.3-0.2-5.6,1.9-6.2C624.4,417.5,623.3,419.6,622,421.5z"/>
		<path class="st0" d="M622,422.9c-0.1,0-0.1-0.1-0.2-0.1c0-0.1,0-0.1,0-0.2c-0.6-2-1.4-4.8-3.7-5.5c-1-0.3-3.4-0.5-3.3,1.1
			c0.1,1.3,1.8,2.5,2.7,3.2c1.2,1,2.5,1.9,3.8,2.7C622,424.5,622.7,423.3,622,422.9z M616.2,418.2
			C616.2,418.2,616.2,418.2,616.2,418.2c0.4-0.1,0.8,0,1.2,0.1c1.4,0.3,2.2,1.9,2.6,3.4c-1.1-0.8-2.2-1.7-3.2-2.6
			C616.6,418.8,616.4,418.5,616.2,418.2z"/>
		<path class="st0" d="M621.5,423.1c-0.2-0.7-1.3-0.6-1.3,0.2c0,0.2,0,0.4,0,0.5c-1.7,1.3-3,3.6-3.5,5.5c-0.3,1.2,0,4.5,1.9,4.1
			c1.5-0.3,1.9-3.4,2.2-4.5c0.3-1.4,0.6-2.9,0.7-4.3c0.1-0.1,0.3-0.2,0.4-0.3C622.5,424,622.1,423.1,621.5,423.1z M618.4,431.6
			c-0.1,0.1-0.1,0.2-0.2,0.4c0,0,0,0,0-0.1c-0.6-0.9-0.4-1.9-0.1-2.8c0.3-1,1-2.2,1.8-3.2C619.7,427.9,619.2,429.9,618.4,431.6z"/>
		<path class="st0" d="M566,450.1c-0.3-0.2-0.7,0-0.9,0.3c-2,2.8-2.1,6.3-1.6,9.6c0,0.2,0.1,0.3,0.2,0.4c0,0,0,0,0,0
			c-0.4,0.8,0.8,1.5,1.2,0.7C566.6,457.9,570,452.9,566,450.1z M564.7,458.6c-0.3-2.4-0.1-4.8,1.1-6.9
			C567.4,453.5,566,456.4,564.7,458.6z"/>
		<path class="st0" d="M583.7,469.7c-1.6,0.7-0.9,3.3,0.7,2.7C586,471.7,585.3,469,583.7,469.7z"/>
		<path class="st0" d="M585.7,458.4c-0.7,0.2-1.2,1-1,1.7l0.1,0.2c0.3,0.7,0.9,1.2,1.7,1c0.7-0.2,1.2-1,1-1.7l-0.1-0.2
			C587.1,458.7,586.5,458.2,585.7,458.4z"/>
		<path class="st0" d="M598.2,425.5c-1.6,0.7-0.9,3.3,0.7,2.7C600.6,427.5,599.8,424.9,598.2,425.5z"/>
		<path class="st0" d="M597.3,416.7l-0.2,0.1c-0.7,0.3-1.2,0.9-1,1.7c0.2,0.7,1,1.3,1.7,1l0.2-0.1c0.7-0.3,1.2-0.9,1-1.7
			C598.8,417,598,416.4,597.3,416.7z"/>
		<path class="st0" d="M599.3,393.5l-0.2,0.1c-0.7,0.3-1.2,0.9-1,1.7c0.2,0.7,1,1.3,1.7,1l0.2-0.1c0.7-0.3,1.2-0.9,1-1.7
			C600.8,393.9,599.9,393.3,599.3,393.5z"/>
		<path class="st0" d="M589.2,395.9c-0.5,0.1-0.8,0.5-1,0.9c-0.3,0.7-0.2,1.5,0.5,1.9c0.5,0.3,1.2,0.2,1.6-0.2
			c0.4-0.2,0.7-0.6,0.7-1.1c0-0.2,0-0.4-0.1-0.6C590.6,396.1,590,395.8,589.2,395.9z"/>
		<path class="st0" d="M609.8,426.8l-0.3,0.1c-0.7,0.3-1.2,0.9-1,1.7c0.2,0.7,1,1.3,1.7,1l0.3-0.1c0.7-0.3,1.2-0.9,1-1.7
			C611.3,427.1,610.5,426.5,609.8,426.8z"/>
		<path class="st0" d="M568.7,465.1c-1.6,0.7-0.9,3.3,0.7,2.7C571,467.1,570.3,464.4,568.7,465.1z"/>
		<path class="st0" d="M572.6,473.5c-1.6,0.7-0.9,3.3,0.7,2.7C574.9,475.5,574.2,472.8,572.6,473.5z"/>
		<path class="st0" d="M559.5,457.1c-0.7,0.2-1.2,1-1,1.7l0.1,0.2c0.3,0.7,0.9,1.2,1.7,1c0.7-0.2,1.2-1,1-1.7l-0.1-0.2
			C560.9,457.4,560.3,456.9,559.5,457.1z"/>
		<path class="st0" d="M562.9,492.6c-1.6,0.7-0.9,3.3,0.7,2.7C565.2,494.6,564.5,491.9,562.9,492.6z"/>
		<path class="st0" d="M583.5,427.3c-0.6,0.3-1.1,0.8-1.1,1.5c0.1,0.6,0.4,1.2,1,1.3c0.3,0.1,0.6,0.1,1,0c0.4-0.1,0.7-0.4,0.9-0.8
			C586.1,428.4,584.9,426.6,583.5,427.3z"/>
		<path class="st0" d="M578.7,427.8l-0.2,0.1c-0.7,0.3-1.2,0.9-1,1.7c0.2,0.7,1,1.3,1.7,1l0.2-0.1c0.7-0.3,1.2-0.9,1-1.7
			C580.2,428.1,579.3,427.5,578.7,427.8z"/>
	</g>
</g>
</svg>
